<svg width="100" height="100" viewBox="0 0 100 100" fill="none" xmlns="http://www.w3.org/2000/svg"><path fill-rule="evenodd" clip-rule="evenodd" d="M97.746 97.746C99.25 96.244 100 94.431 100 92.308c0-2.124-.741-3.927-2.224-5.409L77.164 66.286c4.967-7.171 7.451-15.164 7.451-23.978 0-5.73-1.111-11.208-3.335-16.437-2.224-5.228-5.228-9.735-9.014-13.521-3.786-3.786-8.294-6.791-13.522-9.015C53.516 1.112 48.037 0 42.308 0 36.578 0 31.1 1.112 25.87 3.335c-5.227 2.225-9.734 5.229-13.52 9.015-3.786 3.786-6.791 8.293-9.015 13.521C1.112 31.1 0 36.578 0 42.308c0 5.729 1.112 11.208 3.335 16.436 2.224 5.228 5.229 9.736 9.015 13.522 3.786 3.786 8.293 6.79 13.521 9.014 5.229 2.224 10.707 3.335 16.437 3.335 8.814 0 16.807-2.484 23.978-7.451L86.9 97.715C88.341 99.24 90.144 100 92.308 100c2.123 0 3.936-.751 5.438-2.254zM69.04 42.171c0-7.397-2.629-13.724-7.886-18.982-5.258-5.258-11.585-7.886-18.982-7.886-7.397 0-13.724 2.628-18.982 7.886-5.258 5.258-7.886 11.585-7.886 18.982 0 7.397 2.628 13.724 7.886 18.982 5.258 5.257 11.585 7.886 18.982 7.886 7.397 0 13.724-2.629 18.982-7.886 5.257-5.258 7.886-11.585 7.886-18.982zm-7.473-1.744v3.843c0 .52-.19.971-.57 1.352a1.85 1.85 0 01-1.352.57H46.192v13.452c0 .52-.19.971-.57 1.351-.38.38-.831.57-1.352.57h-3.843c-.52 0-.97-.19-1.351-.57-.38-.38-.57-.83-.57-1.35V46.191H25.052c-.52 0-.97-.19-1.35-.57a1.845 1.845 0 01-.571-1.352v-3.843c0-.52.19-.97.57-1.351.38-.38.83-.57 1.351-.57h13.452V25.052c0-.52.19-.97.57-1.35a1.848 1.848 0 011.352-.571h3.843c.52 0 .971.19 1.352.57.38.38.57.83.57 1.351v13.452h13.452c.52 0 .971.19 1.351.57.38.381.57.832.57 1.352z" fill="#fff"/></svg>