<svg width="110" height="83" viewBox="0 0 110 83" fill="none" xmlns="http://www.w3.org/2000/svg">
<path fill-rule="evenodd" clip-rule="evenodd" d="M107.476 80.205C109.159 78.5173 110 76.4883 110 74.1183V8.6184C110 6.24834 109.159 4.21943 107.476 2.53166C105.793 0.843885 103.77 0 101.406 0H8.59375C6.23047 0 4.20736 0.843885 2.52441 2.53166C0.841471 4.21943 0 6.24834 0 8.6184V74.1183C0 76.4883 0.841471 78.5173 2.52441 80.205C4.20736 81.8928 6.23047 82.7367 8.59375 82.7367H101.406C103.77 82.7367 105.793 81.8928 107.476 80.205ZM103.125 8.6184C103.125 8.15158 102.955 7.74759 102.615 7.40644C102.275 7.0653 101.872 6.89472 101.406 6.89472H8.59375C8.12825 6.89472 7.72542 7.0653 7.38525 7.40644C7.04508 7.74759 6.875 8.15158 6.875 8.6184V74.1183C6.875 74.5851 7.04508 74.9891 7.38525 75.3302C7.72542 75.6714 8.12825 75.842 8.59375 75.842H27.5V70.6709C27.5 70.1682 27.6611 69.7552 27.9834 69.432C28.3057 69.1088 28.7174 68.9472 29.2188 68.9472H32.6562C33.1576 68.9472 33.5693 69.1088 33.8916 69.432C34.2139 69.7552 34.375 70.1682 34.375 70.6709V75.842H75.625V70.6709C75.625 70.1682 75.7861 69.7552 76.1084 69.432C76.4307 69.1088 76.8424 68.9472 77.3438 68.9472H80.7812C81.2826 68.9472 81.6943 69.1088 82.0166 69.432C82.3389 69.7552 82.5 70.1682 82.5 70.6709V75.842H101.406C101.872 75.842 102.275 75.6714 102.615 75.3302C102.955 74.9891 103.125 74.5851 103.125 74.1183V8.6184ZM46.5674 26.0168C46.5674 29.3924 45.3768 32.2741 42.9956 34.6621C40.6144 37.0502 37.7409 38.2442 34.375 38.2442C31.0091 38.2442 28.1356 37.0502 25.7544 34.6621C23.3732 32.2741 22.1826 29.3924 22.1826 26.0168C22.1826 22.6413 23.3732 19.7595 25.7544 17.3715C28.1356 14.9835 31.0091 13.7894 34.375 13.7894C37.7409 13.7894 40.6144 14.9835 42.9956 17.3715C45.3768 19.7595 46.5674 22.6413 46.5674 26.0168ZM55 54.0266C55 56.3249 54.3376 58.2371 53.0127 59.7632C51.6878 61.2894 50.0586 62.0525 48.125 62.0525H20.625C18.6914 62.0525 17.0622 61.2894 15.7373 59.7632C14.4124 58.2371 13.75 56.3249 13.75 54.0266C13.75 51.7284 13.9111 49.6187 14.2334 47.6975C14.5557 45.7763 15.0838 43.9269 15.8179 42.1494C16.5519 40.3718 17.6351 38.9713 19.0674 37.9479C20.4997 36.9245 22.2363 36.4128 24.2773 36.4128C24.4922 36.5564 25.0293 36.8796 25.8887 37.3823C26.748 37.8851 27.4194 38.2711 27.9028 38.5404C28.3862 38.8098 29.0218 39.124 29.8096 39.4831C30.5973 39.8422 31.3672 40.1025 32.1191 40.2641C32.8711 40.4257 33.623 40.5065 34.375 40.5065C35.127 40.5065 35.8789 40.4257 36.6309 40.2641C37.3828 40.1025 38.1527 39.8422 38.9404 39.4831C39.7282 39.124 40.3638 38.8098 40.8472 38.5404C41.3306 38.2711 42.002 37.8851 42.8613 37.3823C43.7207 36.8796 44.2578 36.5564 44.4727 36.4128C46.5137 36.4128 48.2503 36.9245 49.6826 37.9479C51.1149 38.9713 52.1981 40.3718 52.9321 42.1494C53.6662 43.9269 54.1943 45.7763 54.5166 47.6975C54.8389 49.6187 55 51.7284 55 54.0266ZM96.25 53.4341V49.9867C96.25 49.484 96.0889 49.071 95.7666 48.7479C95.4443 48.4247 95.0326 48.2631 94.5312 48.2631H63.5938C63.0924 48.2631 62.6807 48.4247 62.3584 48.7479C62.0361 49.071 61.875 49.484 61.875 49.9867V53.4341C61.875 53.9368 62.0361 54.3498 62.3584 54.673C62.6807 54.9962 63.0924 55.1578 63.5938 55.1578H94.5312C95.0326 55.1578 95.4443 54.9962 95.7666 54.673C96.0889 54.3498 96.25 53.9368 96.25 53.4341ZM96.25 36.4128V39.4292C96.25 39.9678 96.062 40.4257 95.686 40.8028C95.3101 41.1798 94.8535 41.3683 94.3164 41.3683H63.8086C63.2715 41.3683 62.8149 41.1798 62.439 40.8028C62.063 40.4257 61.875 39.9678 61.875 39.4292V36.4128C61.875 35.8741 62.063 35.4163 62.439 35.0392C62.8149 34.6621 63.2715 34.4736 63.8086 34.4736H94.3164C94.8535 34.4736 95.3101 34.6621 95.686 35.0392C96.062 35.4163 96.25 35.8741 96.25 36.4128ZM96.25 25.8552V22.4079C96.25 21.9051 96.0889 21.4921 95.7666 21.169C95.4443 20.8458 95.0326 20.6842 94.5312 20.6842H63.5938C63.0924 20.6842 62.6807 20.8458 62.3584 21.169C62.0361 21.4921 61.875 21.9051 61.875 22.4079V25.8552C61.875 26.358 62.0361 26.7709 62.3584 27.0941C62.6807 27.4173 63.0924 27.5789 63.5938 27.5789H94.5312C95.0326 27.5789 95.4443 27.4173 95.7666 27.0941C96.0889 26.7709 96.25 26.358 96.25 25.8552Z" fill="#D7499A"/>
</svg>
