<svg width="70" height="60" viewBox="0 0 70 60" fill="none" xmlns="http://www.w3.org/2000/svg">
<path fill-rule="evenodd" clip-rule="evenodd" d="M55 10V60H15V10H20V3.75C20 2.70833 20.3646 1.82292 21.0938 1.09375C21.8229 0.364583 22.7083 0 23.75 0H46.25C47.2917 0 48.1771 0.364583 48.9062 1.09375C49.6354 1.82292 50 2.70833 50 3.75V10H55ZM45 10H25V5H45V10ZM11.25 60V10H8.75C6.35417 10 4.29688 10.8594 2.57812 12.5781C0.859375 14.2969 0 16.3542 0 18.75V51.25C0 53.6458 0.859375 55.7031 2.57812 57.4219C4.29688 59.1406 6.35417 60 8.75 60H11.25ZM70 51.25V18.75C70 16.3542 69.1406 14.2969 67.4219 12.5781C65.7031 10.8594 63.6458 10 61.25 10H58.75V60H61.25C63.6458 60 65.7031 59.1406 67.4219 57.4219C69.1406 55.7031 70 53.6458 70 51.25Z" fill="#D7499A"/>
</svg>
