<svg width="86" height="75" viewBox="0 0 86 75" fill="none" xmlns="http://www.w3.org/2000/svg">
<path d="M30.0714 7.25V5.75H28.5714V7.25H30.0714ZM55.9286 7.25H57.4286V5.75H55.9286V7.25ZM55.9286 16V17.5H57.4286V16H55.9286ZM30.0714 16H28.5714V17.5H30.0714V16ZM33.0714 13H31.5714V14.5H33.0714V13ZM33.0714 10.25V8.75H31.5714V10.25H33.0714ZM52.9286 13V14.5H54.4286V13H52.9286ZM52.9286 10.25H54.4286V8.75H52.9286V10.25ZM7.01039 18.5222L5.94643 17.4648H5.94643L7.01039 18.5222ZM7.01039 67.9778L5.94643 69.0352H5.94643L7.01039 67.9778ZM18.6429 70.5V72H20.1429V70.5H18.6429ZM18.6429 16H20.1429V14.5H18.6429V16ZM4.88247 16.4075L5.94643 17.4648L4.88247 16.4075ZM21.6429 13H23.1429V11.5H21.6429V13ZM21.6429 73.5V75H23.1429V73.5H21.6429ZM4.88247 70.0925L5.94643 69.0352H5.94643L4.88247 70.0925ZM28.1711 5.31516L29.2351 6.37251L28.1711 5.31516ZM27.3571 16V17.5H28.8571V16H27.3571ZM21.6429 16V14.5H20.1429V16H21.6429ZM21.6429 70.5H20.1429V72H21.6429V70.5ZM64.3571 70.5V72H65.8571V70.5H64.3571ZM64.3571 16H65.8571V14.5H64.3571V16ZM58.6429 16H57.1429V17.5H58.6429V16ZM57.8289 5.31516L56.7649 6.37251L56.7649 6.37252L57.8289 5.31516ZM26.0432 3.20046L27.1071 4.25781V4.25781L26.0432 3.20046ZM59.9568 3.20046L61.0208 2.14311L61.0208 2.14311L59.9568 3.20046ZM61.6429 13H60.1429V14.5H61.6429V13ZM67.3571 13H68.8571V11.5H67.3571V13ZM67.3571 73.5V75H68.8571V73.5H67.3571ZM18.6429 73.5H17.1429V75H18.6429V73.5ZM18.6429 13V11.5H17.1429V13H18.6429ZM24.3571 13V14.5H25.8571V13H24.3571ZM64.3571 13V11.5H62.8571V13H64.3571ZM81.1175 16.4075L80.0536 17.4648L81.1175 16.4075ZM81.1175 70.0925L80.0536 69.0352L81.1175 70.0925ZM64.3571 73.5H62.8571V75H64.3571V73.5ZM67.3571 70.5H65.8571V72H67.3571V70.5ZM67.3571 16V14.5H65.8571V16H67.3571ZM78.9896 67.9778L80.0536 69.0352L78.9896 67.9778ZM78.9896 18.5222L80.0536 17.4648L78.9896 18.5222ZM31.5714 5.75H30.0714V8.75H31.5714V5.75ZM54.4286 5.75H31.5714V8.75H54.4286V5.75ZM55.9286 5.75H54.4286V8.75H55.9286V5.75ZM57.4286 8.75V7.25H54.4286V8.75H57.4286ZM57.4286 14.5V8.75H54.4286V14.5H57.4286ZM57.4286 16V14.5H54.4286V16H57.4286ZM54.4286 17.5H55.9286V14.5H54.4286V17.5ZM31.5714 17.5H54.4286V14.5H31.5714V17.5ZM30.0714 17.5H31.5714V14.5H30.0714V17.5ZM28.5714 14.5V16H31.5714V14.5H28.5714ZM28.5714 8.75V14.5H31.5714V8.75H28.5714ZM28.5714 7.25V8.75H31.5714V7.25H28.5714ZM34.5714 13V10.25H31.5714V13H34.5714ZM52.9286 11.5H33.0714V14.5H52.9286V11.5ZM51.4286 10.25V13H54.4286V10.25H51.4286ZM33.0714 11.75H52.9286V8.75H33.0714V11.75ZM8.07435 19.5795C9.48664 18.1584 11.0765 17.5 13 17.5V14.5C10.262 14.5 7.91078 15.4882 5.94643 17.4648L8.07435 19.5795ZM6 24.5625C6 22.6097 6.66152 21.0012 8.07435 19.5795L5.94643 17.4648C3.9821 19.4414 3 21.8073 3 24.5625H6ZM6 61.9375V24.5625H3V61.9375H6ZM8.07435 66.9205C6.66152 65.4988 6 63.8903 6 61.9375H3C3 64.6927 3.9821 67.0586 5.94643 69.0352L8.07435 66.9205ZM13 69C11.0765 69 9.48664 68.3416 8.07435 66.9205L5.94643 69.0352C7.91078 71.0118 10.262 72 13 72V69ZM18.6429 69H13V72H18.6429V69ZM17.1429 16V70.5H20.1429V16H17.1429ZM13 17.5H18.6429V14.5H13V17.5ZM13 11.5C9.44719 11.5 6.33468 12.8182 3.81851 15.3501L5.94643 17.4648C7.91076 15.4882 10.262 14.5 13 14.5V11.5ZM20.1429 11.5H13V14.5H20.1429V11.5ZM21.6429 11.5H20.1429V14.5H21.6429V11.5ZM23.1429 14.5V13H20.1429V14.5H23.1429ZM23.1429 72V14.5H20.1429V72H23.1429ZM23.1429 73.5V72H20.1429V73.5H23.1429ZM20.1429 75H21.6429V72H20.1429V75ZM13 75H20.1429V72H13V75ZM3.81851 71.1499C6.33468 73.6818 9.44719 75 13 75V72C10.262 72 7.91076 71.0118 5.94643 69.0352L3.81851 71.1499ZM0 61.9375C0 65.4952 1.30283 68.6185 3.81851 71.1499L5.94643 69.0352C3.98211 67.0586 3 64.6927 3 61.9375H0ZM0 24.5625V61.9375H3V24.5625H0ZM3.81851 15.3501C1.30283 17.8815 0 21.0048 0 24.5625H3C3 21.8073 3.98211 19.4414 5.94643 17.4648L3.81851 15.3501ZM29.2351 6.37251C29.5009 6.105 29.7451 6 30.1429 6V3C28.9523 3 27.9404 3.41935 27.1071 4.25781L29.2351 6.37251ZM28.8571 7.3125C28.8571 6.89537 28.9684 6.6408 29.2351 6.37251L27.1071 4.25781C26.2739 5.09622 25.8571 6.11439 25.8571 7.3125H28.8571ZM28.8571 14.5V7.3125H25.8571V14.5H28.8571ZM28.8571 16V14.5H25.8571V16H28.8571ZM25.8571 17.5H27.3571V14.5H25.8571V17.5ZM21.6429 17.5H25.8571V14.5H21.6429V17.5ZM23.1429 70.5V16H20.1429V70.5H23.1429ZM64.3571 69H21.6429V72H64.3571V69ZM62.8571 16V70.5H65.8571V16H62.8571ZM60.1429 17.5H64.3571V14.5H60.1429V17.5ZM58.6429 17.5H60.1429V14.5H58.6429V17.5ZM57.1429 14.5V16H60.1429V14.5H57.1429ZM57.1429 7.3125V14.5H60.1429V7.3125H57.1429ZM56.7649 6.37252C57.0316 6.6408 57.1429 6.89537 57.1429 7.3125H60.1429C60.1429 6.11439 59.7261 5.09622 58.8929 4.25781L56.7649 6.37252ZM55.8571 6C56.2549 6 56.4991 6.105 56.7649 6.37251L58.8929 4.25781C58.0596 3.41935 57.0477 3 55.8571 3V6ZM30.1429 6H55.8571V3H30.1429V6ZM30.1429 0C28.1598 0 26.3802 0.733425 24.9792 2.14311L27.1071 4.25781C27.9404 3.41931 28.9523 3 30.1429 3V0ZM55.8571 0H30.1429V3H55.8571V0ZM61.0208 2.14311C59.6198 0.733425 57.8402 0 55.8571 0V3C57.0477 3 58.0596 3.41931 58.8929 4.25781L61.0208 2.14311ZM63.1429 7.3125C63.1429 5.33409 62.421 3.55211 61.0208 2.14311L58.8929 4.25781C59.7261 5.09629 60.1429 6.11449 60.1429 7.3125H63.1429ZM63.1429 13V7.3125H60.1429V13H63.1429ZM65.8571 11.5H61.6429V14.5H65.8571V11.5ZM67.3571 11.5H65.8571V14.5H67.3571V11.5ZM68.8571 14.5V13H65.8571V14.5H68.8571ZM68.8571 72V14.5H65.8571V72H68.8571ZM68.8571 73.5V72H65.8571V73.5H68.8571ZM65.8571 75H67.3571V72H65.8571V75ZM20.1429 75H65.8571V72H20.1429V75ZM18.6429 75H20.1429V72H18.6429V75ZM17.1429 72V73.5H20.1429V72H17.1429ZM17.1429 14.5V72H20.1429V14.5H17.1429ZM17.1429 13V14.5H20.1429V13H17.1429ZM20.1429 11.5H18.6429V14.5H20.1429V11.5ZM24.3571 11.5H20.1429V14.5H24.3571V11.5ZM22.8571 7.3125V13H25.8571V7.3125H22.8571ZM24.9792 2.14311C23.579 3.55211 22.8571 5.33409 22.8571 7.3125H25.8571C25.8571 6.11449 26.2739 5.09629 27.1071 4.25781L24.9792 2.14311ZM65.8571 11.5H64.3571V14.5H65.8571V11.5ZM73 11.5H65.8571V14.5H73V11.5ZM82.1815 15.3501C79.6653 12.8182 76.5528 11.5 73 11.5V14.5C75.738 14.5 78.0892 15.4882 80.0536 17.4648L82.1815 15.3501ZM86 24.5625C86 21.0048 84.6972 17.8815 82.1815 15.3501L80.0536 17.4648C82.0179 19.4414 83 21.8073 83 24.5625H86ZM86 61.9375V24.5625H83V61.9375H86ZM82.1815 71.1499C84.6972 68.6185 86 65.4952 86 61.9375H83C83 64.6927 82.0179 67.0586 80.0536 69.0352L82.1815 71.1499ZM73 75C76.5528 75 79.6653 73.6818 82.1815 71.1499L80.0536 69.0352C78.0892 71.0118 75.738 72 73 72V75ZM65.8571 75H73V72H65.8571V75ZM64.3571 75H65.8571V72H64.3571V75ZM62.8571 72V73.5H65.8571V72H62.8571ZM62.8571 14.5V72H65.8571V14.5H62.8571ZM62.8571 13V14.5H65.8571V13H62.8571ZM68.8571 70.5V16H65.8571V70.5H68.8571ZM73 69H67.3571V72H73V69ZM77.9257 66.9205C76.5134 68.3416 74.9235 69 73 69V72C75.738 72 78.0892 71.0118 80.0536 69.0352L77.9257 66.9205ZM80 61.9375C80 63.8903 79.3385 65.4988 77.9257 66.9205L80.0536 69.0352C82.0179 67.0586 83 64.6927 83 61.9375H80ZM80 24.5625V61.9375H83V24.5625H80ZM77.9257 19.5795C79.3385 21.0012 80 22.6097 80 24.5625H83C83 21.8073 82.0179 19.4414 80.0536 17.4648L77.9257 19.5795ZM73 17.5C74.9235 17.5 76.5134 18.1584 77.9257 19.5795L80.0536 17.4648C78.0892 15.4882 75.738 14.5 73 14.5V17.5ZM67.3571 17.5H73V14.5H67.3571V17.5Z" fill="#D7499A"/>
<rect x="36.5" y="36.7" width="13" height="14.25" stroke="#D7499A" stroke-width="3"/>
<path d="M35.5714 43.8251H20.6704" stroke="#D7499A" stroke-width="3" stroke-linecap="square"/>
<path d="M65.8685 43.8251H51.5275" stroke="#D7499A" stroke-width="3" stroke-linecap="square"/>
</svg>
