<svg width="19" height="19" viewBox="0 0 19 19" fill="none" xmlns="http://www.w3.org/2000/svg">
<path d="M16.131 15.0829C16.0977 15.2717 16.0192 15.5121 15.8957 15.804C15.7721 16.0959 15.6564 16.3225 15.5486 16.4838C15.3401 16.8077 14.848 17.1031 14.0725 17.3703C13.3522 17.611 12.6703 17.6747 12.0268 17.5612C11.8379 17.5279 11.6547 17.483 11.4772 17.4265C11.2997 17.3699 11.1063 17.2907 10.8971 17.1889C10.6878 17.0871 10.5324 17.0075 10.4308 16.9499C10.3291 16.8923 10.1477 16.7864 9.88641 16.6321C9.62514 16.4779 9.46488 16.3847 9.40563 16.3526C8.76334 15.987 8.20252 15.5888 7.72315 15.1581C6.9323 14.4489 6.14223 13.5307 5.35297 12.4035C4.5637 11.2763 3.9711 10.2199 3.57518 9.23416C3.33441 8.6364 3.15206 7.97321 3.02812 7.2446C3.01823 7.17795 2.9855 6.99549 2.92992 6.69721C2.87433 6.39894 2.83686 6.1922 2.81751 6.07701C2.79816 5.96181 2.77643 5.7885 2.75233 5.55708C2.72823 5.32566 2.71997 5.11686 2.72756 4.93069C2.73514 4.74452 2.75559 4.55701 2.78888 4.36816C2.90235 3.72468 3.1954 3.10565 3.66804 2.51108C4.18429 1.87371 4.63022 1.51242 5.00584 1.4272C5.19427 1.3811 5.44677 1.3499 5.76336 1.3336C6.07995 1.31731 6.33267 1.32581 6.52152 1.35911C6.61944 1.37637 6.69103 1.39981 6.73629 1.42943C6.85479 1.4936 6.99327 1.79206 7.15175 2.32484C7.20525 2.4713 7.27687 2.67864 7.3666 2.94688C7.45632 3.21511 7.53957 3.45877 7.61633 3.67784C7.69309 3.89691 7.76851 4.10313 7.8426 4.29649C7.85865 4.32817 7.90443 4.42639 7.97995 4.59115C8.05547 4.75592 8.10877 4.89332 8.13985 5.00337C8.17092 5.11343 8.17783 5.21741 8.16056 5.31533C8.1359 5.45522 8.00539 5.61251 7.76906 5.78719C7.53272 5.96187 7.28198 6.11598 7.01683 6.24953C6.75169 6.38307 6.50218 6.53019 6.26831 6.69088C6.03444 6.85158 5.9064 6.99487 5.8842 7.12077C5.8731 7.18372 5.87671 7.26549 5.89504 7.36608C5.91336 7.46667 5.93044 7.54361 5.94629 7.59688C5.96214 7.65016 5.9963 7.74273 6.04877 7.87458C6.10125 8.00643 6.12975 8.07997 6.13428 8.09519C6.49689 9.14715 6.96049 10.0763 7.52507 10.8826C8.08966 11.6889 8.8042 12.4423 9.6687 13.1429C9.68145 13.1523 9.74081 13.2043 9.84676 13.2987C9.95272 13.3931 10.028 13.4568 10.0727 13.49C10.1173 13.5231 10.1838 13.5654 10.272 13.6171C10.3603 13.6687 10.4359 13.7 10.4988 13.7111C10.6247 13.7333 10.8032 13.662 11.0342 13.4972C11.2652 13.3324 11.4887 13.1483 11.7049 12.9448C11.9211 12.7413 12.1517 12.5584 12.3966 12.3961C12.6416 12.2337 12.8341 12.1649 12.9739 12.1896C13.0719 12.2068 13.1672 12.2489 13.26 12.3157C13.3528 12.3826 13.4637 12.4796 13.5927 12.607C13.7217 12.7343 13.7983 12.8109 13.8226 12.8368C13.979 12.9726 14.1469 13.114 14.3265 13.261C14.5061 13.4081 14.7066 13.5696 14.928 13.7457C15.1494 13.9218 15.3197 14.06 15.4391 14.1603C15.8855 14.4915 16.1186 14.7237 16.1384 14.857C16.1507 14.9096 16.1483 14.9849 16.131 15.0829Z" fill="#4D4D4F"/>
</svg>
