<svg width="75" height="57" viewBox="0 0 75 57" fill="none" xmlns="http://www.w3.org/2000/svg">
<path fill-rule="evenodd" clip-rule="evenodd" d="M70.4539 26.4201C73.4846 23.3972 75 19.7496 75 15.4772C75 11.2048 73.4846 7.55723 70.4539 4.53434C67.4232 1.51145 63.7662 0 59.4828 0H12.931C12.2306 0 11.6245 0.255266 11.1126 0.765799C10.6008 1.27633 10.3448 1.88091 10.3448 2.57953V32.2442C10.3448 34.7162 11.2338 36.839 13.0119 38.6124C14.7899 40.3858 16.9181 41.2725 19.3966 41.2725H47.8448C50.3233 41.2725 52.4515 40.3858 54.2295 38.6124C56.0075 36.839 56.8966 34.7162 56.8966 32.2442V30.9544H59.4828C63.7662 30.9544 67.4232 29.443 70.4539 26.4201ZM67.2414 15.4772C67.2414 13.3276 66.4871 11.5004 64.9784 9.99569C63.4698 8.49096 61.6379 7.7386 59.4828 7.7386H56.8966V23.2158H59.4828C61.6379 23.2158 63.4698 22.4634 64.9784 20.9587C66.4871 19.454 67.2414 17.6268 67.2414 15.4772ZM0 46.4316H72.4138C72.4138 49.2798 71.4036 51.7116 69.3831 53.7268C67.3626 55.7421 64.9246 56.7497 62.069 56.7497H10.3448C7.48922 56.7497 5.05119 55.7421 3.03071 53.7268C1.01024 51.7116 0 49.2798 0 46.4316Z" fill="#D7499A"/>
</svg>
