<svg width="80" height="88" viewBox="0 0 80 88" fill="none" xmlns="http://www.w3.org/2000/svg">
<path fill-rule="evenodd" clip-rule="evenodd" d="M35.1475 7.4753C27.0164 8.52448 19.4098 12.3278 13.6393 18.2294L12.1967 16.7868C18.2295 10.6228 26.3607 6.55727 35.0164 5.50809C35.2787 3.01629 37.377 1.04907 40 1.04907C42.8852 1.04907 45.1147 3.27858 45.1147 6.16383C45.1147 9.04907 42.7541 11.2786 40 11.2786C37.6393 11.2786 35.8033 9.57366 35.1475 7.4753ZM43.1475 6.16383C43.1475 4.45891 41.7049 3.01629 40 3.01629C38.2951 3.01629 36.8525 4.32776 36.8525 6.16383C36.8525 7.86874 38.2951 9.31137 40 9.31137C41.7049 9.31137 43.1475 7.86874 43.1475 6.16383Z" fill="#D7499A"/>
<path d="M13.6393 18.2294L13.2858 18.583L13.6433 18.9405L13.9968 18.579L13.6393 18.2294ZM35.1475 7.4753L35.6248 7.32616L35.4996 6.92572L35.0835 6.97941L35.1475 7.4753ZM12.1967 16.7868L11.8394 16.437L11.4934 16.7906L11.8432 17.1403L12.1967 16.7868ZM35.0164 5.50809L35.0766 6.00446L35.4719 5.95653L35.5136 5.56043L35.0164 5.50809ZM13.9968 18.579C19.6893 12.7571 27.1927 9.00588 35.2115 7.97119L35.0835 6.97941C26.8401 8.04309 19.1304 11.8984 13.2818 17.8798L13.9968 18.579ZM11.8432 17.1403L13.2858 18.583L13.9929 17.8758L12.5503 16.4332L11.8432 17.1403ZM34.9562 5.01172C26.1863 6.07474 17.9508 10.1928 11.8394 16.437L12.5541 17.1365C18.5083 11.0529 26.535 7.0398 35.0766 6.00446L34.9562 5.01172ZM40 0.549072C37.1176 0.549072 34.8078 2.71299 34.5191 5.45575L35.5136 5.56043C35.7495 3.31959 37.6364 1.54907 40 1.54907V0.549072ZM45.6147 6.16383C45.6147 3.00244 43.1614 0.549072 40 0.549072V1.54907C42.6091 1.54907 44.6147 3.55472 44.6147 6.16383H45.6147ZM40 11.7786C43.0219 11.7786 45.6147 9.33352 45.6147 6.16383H44.6147C44.6147 8.76462 42.4863 10.7786 40 10.7786V11.7786ZM34.6703 7.62444C35.3772 9.88652 37.3769 11.7786 40 11.7786V10.7786C37.9018 10.7786 36.2293 9.2608 35.6248 7.32616L34.6703 7.62444ZM40 3.51629C41.4288 3.51629 42.6475 4.73505 42.6475 6.16383H43.6475C43.6475 4.18277 41.9811 2.51629 40 2.51629V3.51629ZM37.3525 6.16383C37.3525 4.61747 38.5575 3.51629 40 3.51629V2.51629C38.0327 2.51629 36.3525 4.03806 36.3525 6.16383H37.3525ZM40 8.81137C38.5712 8.81137 37.3525 7.5926 37.3525 6.16383H36.3525C36.3525 8.14489 38.0189 9.81137 40 9.81137V8.81137ZM42.6475 6.16383C42.6475 7.5926 41.4288 8.81137 40 8.81137V9.81137C41.9811 9.81137 43.6475 8.14489 43.6475 6.16383H42.6475Z" fill="#D7499A"/>
<path fill-rule="evenodd" clip-rule="evenodd" d="M4.59018 54.4261L2.75411 54.9507C1.70493 51.4097 1.18034 47.6065 1.04919 44.0655C1.04919 38.8196 2.09837 33.7048 4.06559 28.9835C2.09837 27.4097 1.44264 24.6556 2.75411 22.4261C3.67215 20.8524 5.37706 19.9343 7.21313 19.9343C8.13116 19.9343 9.04919 20.1966 9.83608 20.5901C11.0164 21.3769 11.8033 22.4261 12.1967 23.7376C12.5902 25.0491 12.3279 26.3606 11.6721 27.5409C10.7541 29.1147 9.04919 30.0327 7.21313 30.0327C6.81969 30.0327 6.2951 30.0327 5.90165 29.9015C4.06559 34.3606 3.14755 39.213 3.14755 44.0655C3.14755 47.6065 3.541 51.0163 4.59018 54.4261ZM7.34428 21.7704C6.16395 21.7704 5.11477 22.4261 4.59018 23.3442C3.67215 24.7868 4.19674 26.754 5.77051 27.5409C7.21313 28.4589 9.18034 27.9343 10.0984 26.4917C10.4918 25.836 10.623 24.9179 10.3607 24.131C10.0984 23.213 9.57378 22.5573 8.91805 22.1638C8.39346 21.9015 7.86887 21.7704 7.34428 21.7704Z" fill="#D7499A"/>
<path d="M2.75411 54.9507L2.27471 55.0928L2.41538 55.5675L2.89147 55.4315L2.75411 54.9507ZM4.59018 54.4261L4.72754 54.9069L5.21811 54.7667L5.06807 54.2791L4.59018 54.4261ZM1.04919 44.0655H0.549194V44.0747L0.549537 44.084L1.04919 44.0655ZM4.06559 28.9835L4.52713 29.1758L4.67194 28.8283L4.37794 28.5931L4.06559 28.9835ZM2.75411 22.4261L3.18508 22.6796L3.186 22.6781L2.75411 22.4261ZM9.83608 20.5901L10.1134 20.174L10.0875 20.1568L10.0597 20.1429L9.83608 20.5901ZM11.6721 27.5409L12.1041 27.7929L12.1092 27.7837L11.6721 27.5409ZM5.90165 29.9015L6.05977 29.4272L5.61701 29.2796L5.43931 29.7112L5.90165 29.9015ZM4.59018 23.3442L5.01201 23.6126L5.0184 23.6026L5.0243 23.5922L4.59018 23.3442ZM5.77051 27.5409L6.03894 27.1191L6.01718 27.1052L5.99411 27.0937L5.77051 27.5409ZM10.0984 26.4917L10.5204 26.7602L10.5271 26.749L10.0984 26.4917ZM10.3607 24.131L9.87991 24.2684L9.88289 24.2789L9.88633 24.2892L10.3607 24.131ZM8.91805 22.1638L9.17529 21.7351L9.15883 21.7252L9.14165 21.7166L8.91805 22.1638ZM2.89147 55.4315L4.72754 54.9069L4.45282 53.9454L2.61675 54.47L2.89147 55.4315ZM0.549537 44.084C0.681925 47.6585 1.21147 51.5043 2.27471 55.0928L3.23351 54.8087C2.1984 51.3152 1.67876 47.5545 1.54885 44.047L0.549537 44.084ZM3.60405 28.7912C1.61177 33.5727 0.549194 38.7527 0.549194 44.0655H1.54919C1.54919 38.8864 2.58498 33.837 4.52713 29.1758L3.60405 28.7912ZM2.32315 22.1726C0.874149 24.6359 1.6101 27.6594 3.75324 29.3739L4.37794 28.5931C2.58665 27.16 2.01112 24.6754 3.18508 22.6796L2.32315 22.1726ZM7.21313 19.4343C5.21176 19.4343 3.336 20.4363 2.32222 22.1742L3.186 22.6781C4.00829 21.2684 5.54237 20.4343 7.21313 20.4343V19.4343ZM10.0597 20.1429C9.21738 19.7217 8.22306 19.4343 7.21313 19.4343V20.4343C8.03927 20.4343 8.88101 20.6715 9.61247 21.0373L10.0597 20.1429ZM12.6756 23.5939C12.2475 22.1667 11.3868 21.023 10.1134 20.174L9.55873 21.0061C10.646 21.7309 11.3591 22.6856 11.7178 23.8813L12.6756 23.5939ZM12.1092 27.7837C12.8139 26.5153 13.1167 25.064 12.6756 23.5939L11.7178 23.8813C12.0637 25.0341 11.8419 26.2058 11.2351 27.2981L12.1092 27.7837ZM7.21313 30.5327C9.2145 30.5327 11.0903 29.5307 12.104 27.7928L11.2403 27.2889C10.418 28.6986 8.88389 29.5327 7.21313 29.5327V30.5327ZM5.74354 30.3759C6.22945 30.5379 6.84304 30.5327 7.21313 30.5327V29.5327C6.79633 29.5327 6.36074 29.5275 6.05977 29.4272L5.74354 30.3759ZM3.64755 44.0655C3.64755 39.2752 4.55396 34.4877 6.36399 30.0919L5.43931 29.7112C3.57722 34.2334 2.64755 39.1508 2.64755 44.0655H3.64755ZM5.06807 54.2791C4.03667 50.927 3.64755 47.5685 3.64755 44.0655H2.64755C2.64755 47.6444 3.04532 51.1055 4.11229 54.5732L5.06807 54.2791ZM5.0243 23.5922C5.46155 22.827 6.34675 22.2704 7.34428 22.2704V21.2704C5.98115 21.2704 4.76798 22.0252 4.15606 23.0961L5.0243 23.5922ZM5.99411 27.0937C4.68585 26.4395 4.25296 24.8054 5.01201 23.6126L4.16835 23.0757C3.09133 24.7682 3.70762 27.0685 5.5469 27.9881L5.99411 27.0937ZM9.67654 26.2233C8.89327 27.4541 7.22795 27.8757 6.03894 27.1191L5.50207 27.9627C7.19831 29.0421 9.46741 28.4145 10.5202 26.7601L9.67654 26.2233ZM9.88633 24.2892C10.1001 24.9306 9.99183 25.6975 9.66963 26.2345L10.5271 26.749C10.9918 25.9745 11.1458 24.9052 10.835 23.9729L9.88633 24.2892ZM8.6608 22.5926C9.2012 22.9168 9.6503 23.4648 9.87991 24.2684L10.8414 23.9937C10.5465 22.9613 9.94637 22.1977 9.17529 21.7351L8.6608 22.5926ZM7.34428 22.2704C7.78248 22.2704 8.23099 22.3793 8.69444 22.611L9.14165 21.7166C8.55592 21.4238 7.95525 21.2704 7.34428 21.2704V22.2704Z" fill="#D7499A"/>
<path fill-rule="evenodd" clip-rule="evenodd" d="M11.4098 60.0656C12.5902 62.1639 12.1967 64.6557 10.623 66.2295C15.4754 72.5246 22.2951 77.2459 29.9016 79.3443L29.3771 81.1803C21.2459 78.9508 14.1639 73.9672 9.04919 67.2787C8.39345 67.541 7.73772 67.6721 7.08198 67.6721C5.24591 67.6721 3.54099 66.623 2.62296 65.0492C1.96722 63.7377 1.70493 62.4262 2.09837 61.1148C2.36067 59.8033 3.2787 58.7541 4.45903 58.0984C5.24591 57.7049 6.0328 57.4426 6.95083 57.4426C8.7869 57.4426 10.4918 58.4918 11.4098 60.0656ZM4.06558 61.7705C3.80329 62.5574 3.93444 63.3443 4.32788 64.1312C5.24591 65.5738 7.21313 66.2295 8.65575 65.4426C10.0984 64.5246 10.623 62.5574 9.83608 61.1148C9.31149 60.1967 8.26231 59.541 7.08198 59.541C6.55739 59.541 6.0328 59.6721 5.50821 59.9344C4.85247 60.3279 4.32788 60.9836 4.06558 61.7705Z" fill="#D7499A"/>
<path d="M10.623 66.2295L10.2694 65.876L9.95866 66.1867L10.227 66.5348L10.623 66.2295ZM11.4098 60.0656L11.8457 59.8204L11.8417 59.8136L11.4098 60.0656ZM29.9016 79.3443L30.3824 79.4816L30.521 78.9965L30.0346 78.8623L29.9016 79.3443ZM29.3771 81.1803L29.2448 81.6625L29.7219 81.7933L29.8578 81.3177L29.3771 81.1803ZM9.04919 67.2787L9.44637 66.975L9.21585 66.6735L8.8635 66.8145L9.04919 67.2787ZM2.62296 65.0492L2.17575 65.2728L2.18295 65.2872L2.19107 65.3011L2.62296 65.0492ZM2.09837 61.1148L2.57728 61.2584L2.58405 61.2359L2.58866 61.2128L2.09837 61.1148ZM4.45903 58.0984L4.23542 57.6512L4.2257 57.656L4.21621 57.6613L4.45903 58.0984ZM4.32788 64.1312L3.88067 64.3548L3.8922 64.3778L3.90605 64.3996L4.32788 64.1312ZM4.06558 61.7705L4.53993 61.9286L4.06558 61.7705ZM8.65575 65.4426L8.89517 65.8816L8.90997 65.8735L8.92419 65.8645L8.65575 65.4426ZM9.83608 61.1148L10.2751 60.8753L10.2702 60.8667L9.83608 61.1148ZM5.50821 59.9344L5.2846 59.4872L5.26743 59.4958L5.25096 59.5057L5.50821 59.9344ZM10.9765 66.5831C12.7094 64.8502 13.1355 62.1135 11.8456 59.8204L10.9741 60.3107C12.0449 62.2144 11.6841 64.4613 10.2694 65.876L10.9765 66.5831ZM30.0346 78.8623C22.5379 76.7942 15.8086 72.1379 11.019 65.9243L10.227 66.5348C15.1422 72.9113 22.0523 77.6976 29.7687 79.8263L30.0346 78.8623ZM29.8578 81.3177L30.3824 79.4816L29.4209 79.2069L28.8963 81.043L29.8578 81.3177ZM8.65201 67.5824C13.8286 74.3518 21.0012 79.4022 29.2448 81.6625L29.5093 80.6981C21.4906 78.4995 14.4993 73.5826 9.44637 66.975L8.65201 67.5824ZM7.08198 68.1721C7.80608 68.1721 8.52467 68.027 9.23489 67.7429L8.8635 66.8145C8.26223 67.055 7.66935 67.1721 7.08198 67.1721V68.1721ZM2.19107 65.3011C3.19246 67.0178 5.05601 68.1721 7.08198 68.1721V67.1721C5.43582 67.1721 3.88953 66.2281 3.05485 64.7972L2.19107 65.3011ZM1.61946 60.9711C1.17751 62.4442 1.48477 63.8908 2.17575 65.2728L3.07017 64.8256C2.44968 63.5846 2.23235 62.4082 2.57728 61.2584L1.61946 60.9711ZM4.21621 57.6613C2.94014 58.3702 1.90571 59.5286 1.60808 61.0167L2.58866 61.2128C2.81562 60.078 3.61726 59.138 4.70185 58.5354L4.21621 57.6613ZM6.95083 56.9426C5.92943 56.9426 5.06431 57.2367 4.23542 57.6512L4.68263 58.5456C5.42752 58.1731 6.13616 57.9426 6.95083 57.9426V56.9426ZM11.8417 59.8136C10.8404 58.097 8.9768 56.9426 6.95083 56.9426V57.9426C8.59699 57.9426 10.1433 58.8866 10.978 60.3175L11.8417 59.8136ZM4.77509 63.9075C4.42262 63.2026 4.33096 62.5555 4.53993 61.9286L3.59124 61.6124C3.27562 62.5593 3.44626 63.4859 3.88067 64.3548L4.77509 63.9075ZM8.41632 65.0037C7.24402 65.6431 5.55192 65.1233 4.74971 63.8627L3.90605 64.3996C4.93991 66.0242 7.18223 66.8159 8.89517 65.8816L8.41632 65.0037ZM9.39713 61.3542C10.0528 62.5562 9.61739 64.238 8.38731 65.0208L8.92419 65.8645C10.5794 64.8112 11.1931 62.5586 10.275 60.8753L9.39713 61.3542ZM7.08198 60.041C8.07951 60.041 8.9647 60.5976 9.40195 61.3628L10.2702 60.8667C9.65827 59.7958 8.44511 59.041 7.08198 59.041V60.041ZM5.73181 60.3816C6.19526 60.1499 6.64377 60.041 7.08198 60.041V59.041C6.471 59.041 5.87033 59.1943 5.2846 59.4872L5.73181 60.3816ZM4.53993 61.9286C4.76624 61.2497 5.21675 60.6924 5.76546 60.3632L5.25096 59.5057C4.48819 59.9633 3.88952 60.7176 3.59124 61.6124L4.53993 61.9286Z" fill="#D7499A"/>
<path fill-rule="evenodd" clip-rule="evenodd" d="M44.8525 80.3934C52.8525 79.3442 60.3279 75.6721 66.0984 69.9016L67.4098 71.2131C61.2459 77.377 53.3771 81.3114 44.8525 82.3606C44.5902 84.8524 42.4918 86.8196 39.8689 86.8196C38.5574 86.8196 37.2459 86.1639 36.3279 85.2459C35.4098 84.1967 34.8853 82.8852 34.8853 81.5737C34.8853 78.8196 37.2459 76.5901 40 76.5901C42.3607 76.5901 44.3279 78.2951 44.8525 80.3934ZM37.7705 84.0655C38.2951 84.5901 39.082 84.9836 40 84.9836C41.7049 84.9836 43.1475 83.541 43.1475 81.836C43.1475 80.1311 41.7049 78.6885 40 78.6885C38.2951 78.6885 36.8525 80.1311 36.8525 81.836C36.8525 82.6229 37.2459 83.4098 37.7705 84.0655Z" fill="#D7499A"/>
<path d="M66.0984 69.9016L66.4519 69.5481L66.0984 69.1945L65.7448 69.5481L66.0984 69.9016ZM44.8525 80.3934L44.3674 80.5147L44.4755 80.9471L44.9175 80.8892L44.8525 80.3934ZM67.4098 71.2131L67.7634 71.5666L68.117 71.2131L67.7634 70.8595L67.4098 71.2131ZM44.8525 82.3606L44.7914 81.8644L44.3968 81.9129L44.3552 82.3083L44.8525 82.3606ZM36.3279 85.2459L35.9516 85.5751L35.9626 85.5877L35.9743 85.5994L36.3279 85.2459ZM37.7705 84.0655L37.3801 84.3779L37.3974 84.3995L37.4169 84.4191L37.7705 84.0655ZM65.7448 69.5481C60.0521 75.2408 52.6781 78.8628 44.7874 79.8977L44.9175 80.8892C53.0269 79.8256 60.6037 76.1034 66.4519 70.2552L65.7448 69.5481ZM67.7634 70.8595L66.4519 69.5481L65.7448 70.2552L67.0563 71.5666L67.7634 70.8595ZM44.9135 82.8569C53.5532 81.7935 61.5238 77.8063 67.7634 71.5666L67.0563 70.8595C60.9681 76.9478 53.201 80.8293 44.7914 81.8644L44.9135 82.8569ZM39.8689 87.3196C42.7512 87.3196 45.061 85.1557 45.3497 82.413L44.3552 82.3083C44.1193 84.5491 42.2324 86.3196 39.8689 86.3196V87.3196ZM35.9743 85.5994C36.9659 86.591 38.3986 87.3196 39.8689 87.3196V86.3196C38.7161 86.3196 37.526 85.7369 36.6814 84.8923L35.9743 85.5994ZM34.3853 81.5737C34.3853 83.0179 34.9617 84.4439 35.9516 85.5751L36.7042 84.9166C35.858 83.9495 35.3853 82.7526 35.3853 81.5737H34.3853ZM40 76.0901C36.9868 76.0901 34.3853 78.5268 34.3853 81.5737H35.3853C35.3853 79.1125 37.5051 77.0901 40 77.0901V76.0901ZM45.3375 80.2721C44.7607 77.9649 42.6039 76.0901 40 76.0901V77.0901C42.1174 77.0901 43.895 78.6252 44.3674 80.5147L45.3375 80.2721ZM40 84.4836C39.2269 84.4836 38.564 84.1519 38.1241 83.712L37.4169 84.4191C38.0262 85.0284 38.9371 85.4836 40 85.4836V84.4836ZM42.6475 81.836C42.6475 83.2648 41.4288 84.4836 40 84.4836V85.4836C41.9811 85.4836 43.6475 83.8171 43.6475 81.836H42.6475ZM40 79.1885C41.4288 79.1885 42.6475 80.4073 42.6475 81.836H43.6475C43.6475 79.855 41.9811 78.1885 40 78.1885V79.1885ZM37.3525 81.836C37.3525 80.4073 38.5712 79.1885 40 79.1885V78.1885C38.0189 78.1885 36.3525 79.855 36.3525 81.836H37.3525ZM38.1609 83.7532C37.6719 83.1419 37.3525 82.4634 37.3525 81.836H36.3525C36.3525 82.7825 36.82 83.6778 37.3801 84.3779L38.1609 83.7532Z" fill="#D7499A"/>
<path fill-rule="evenodd" clip-rule="evenodd" d="M68.1967 24.1312C68.459 23.2132 68.8525 22.5575 69.5082 21.9017C64.5246 15.0821 57.1803 10.2296 48.918 8.26238L49.4426 6.29517C58.0984 8.39353 65.8361 13.6394 71.2131 20.8525C71.7377 20.5902 72.3934 20.4591 73.0492 20.4591C74.8852 20.4591 76.5902 21.5083 77.5082 23.0821C78.1639 24.3935 78.2951 25.705 77.9016 27.0165C77.6393 28.328 76.7213 29.3771 75.541 30.0329C74.7541 30.4263 73.9672 30.6886 73.0492 30.6886C71.2131 30.6886 69.5082 29.6394 68.5902 28.0657C67.9344 26.7542 67.8033 25.4427 68.1967 24.1312ZM76.0656 26.3607C76.3279 25.5739 76.1967 24.787 75.8033 24.0001C75.2787 23.0821 74.2295 22.4263 73.1803 22.4263C72.6557 22.4263 72.1311 22.5575 71.6066 22.8198C70.9508 23.2132 70.4262 23.8689 70.1639 24.6558C69.9016 25.4427 70.0328 26.2296 70.4262 27.0165C71.2131 28.4591 73.1803 28.9837 74.6229 28.1968C75.2787 27.8034 75.8033 27.1476 76.0656 26.3607Z" fill="#D7499A"/>
<path d="M69.5082 21.9017L69.8617 22.2553L70.1646 21.9525L69.9119 21.6067L69.5082 21.9017ZM68.1967 24.1312L68.6757 24.2749L68.6775 24.2686L68.1967 24.1312ZM48.918 8.26238L48.4349 8.13355L48.3026 8.62982L48.8022 8.74878L48.918 8.26238ZM49.4426 6.29517L49.5604 5.80924L49.0854 5.69409L48.9595 6.16633L49.4426 6.29517ZM71.2131 20.8525L70.8122 21.1514L71.0624 21.4869L71.4367 21.2998L71.2131 20.8525ZM77.5082 23.0821L77.9554 22.8584L77.9482 22.844L77.9401 22.8301L77.5082 23.0821ZM77.9016 27.0165L77.4227 26.8728L77.416 26.8953L77.4113 26.9184L77.9016 27.0165ZM75.541 30.0329L75.7646 30.4801L75.7743 30.4752L75.7838 30.4699L75.541 30.0329ZM68.5902 28.0657L68.1429 28.2893L68.1502 28.3037L68.1583 28.3176L68.5902 28.0657ZM75.8033 24.0001L76.2505 23.7765L76.2443 23.7641L76.2374 23.752L75.8033 24.0001ZM76.0656 26.3607L76.5399 26.5189L76.0656 26.3607ZM71.6066 22.8198L71.3829 22.3725L71.3658 22.3811L71.3493 22.391L71.6066 22.8198ZM70.1639 24.6558L69.6896 24.4977L70.1639 24.6558ZM70.4262 27.0165L69.979 27.2401L69.983 27.2481L69.9873 27.2559L70.4262 27.0165ZM74.6229 28.1968L74.8624 28.6358L74.8714 28.6308L74.8802 28.6256L74.6229 28.1968ZM69.1546 21.5482C68.4397 22.2631 68.0019 22.9929 67.716 23.9939L68.6775 24.2686C68.9161 23.4335 69.2652 22.8518 69.8617 22.2553L69.1546 21.5482ZM48.8022 8.74878C56.9502 10.6888 64.1919 15.4742 69.1045 22.1967L69.9119 21.6067C64.8573 14.6899 57.4104 9.7704 49.0338 7.77598L48.8022 8.74878ZM48.9595 6.16633L48.4349 8.13355L49.4011 8.39121L49.9257 6.424L48.9595 6.16633ZM71.614 20.5537C66.1703 13.2512 58.3342 7.93623 49.5604 5.80924L49.3248 6.78109C57.8625 8.85082 65.5018 14.0277 70.8122 21.1514L71.614 20.5537ZM73.0492 19.9591C72.3333 19.9591 71.5977 20.1013 70.9895 20.4053L71.4367 21.2998C71.8777 21.0792 72.4535 20.9591 73.0492 20.9591V19.9591ZM77.9401 22.8301C76.9387 21.1135 75.0751 19.9591 73.0492 19.9591V20.9591C74.6953 20.9591 76.2416 21.9031 77.0763 23.334L77.9401 22.8301ZM78.3805 27.1602C78.8133 25.7175 78.6637 24.275 77.9554 22.8584L77.061 23.3057C77.6642 24.5121 77.7768 25.6925 77.4227 26.8728L78.3805 27.1602ZM75.7838 30.4699C77.0599 29.761 78.0943 28.6027 78.3919 27.1145L77.4113 26.9184C77.1844 28.0532 76.3828 28.9932 75.2982 29.5958L75.7838 30.4699ZM73.0492 31.1886C74.0706 31.1886 74.9357 30.8945 75.7646 30.4801L75.3174 29.5857C74.5725 29.9581 73.8638 30.1886 73.0492 30.1886V31.1886ZM68.1583 28.3176C69.1597 30.0343 71.0232 31.1886 73.0492 31.1886V30.1886C71.403 30.1886 69.8567 29.2446 69.022 27.8137L68.1583 28.3176ZM67.7178 23.9876C67.285 25.4302 67.4347 26.8727 68.1429 28.2893L69.0374 27.8421C68.4342 26.6356 68.3215 25.4552 68.6756 24.2749L67.7178 23.9876ZM75.3561 24.2237C75.7085 24.9286 75.8002 25.5757 75.5912 26.2026L76.5399 26.5189C76.8555 25.572 76.6849 24.6453 76.2505 23.7765L75.3561 24.2237ZM73.1803 22.9263C74.0351 22.9263 74.9259 23.4724 75.3692 24.2482L76.2374 23.752C75.6315 22.6917 74.424 21.9263 73.1803 21.9263V22.9263ZM71.8302 23.267C72.2936 23.0352 72.7421 22.9263 73.1803 22.9263V21.9263C72.5694 21.9263 71.9687 22.0797 71.3829 22.3725L71.8302 23.267ZM70.6383 24.8139C70.8646 24.135 71.3151 23.5777 71.8638 23.2485L71.3493 22.391C70.5865 22.8487 69.9879 23.6029 69.6896 24.4977L70.6383 24.8139ZM70.8734 26.7929C70.521 26.0879 70.4293 25.4408 70.6383 24.8139L69.6896 24.4977C69.374 25.4446 69.5446 26.3713 69.979 27.2401L70.8734 26.7929ZM74.3835 27.7579C73.1698 28.4199 71.5126 27.9639 70.8652 26.7771L69.9873 27.2559C70.9137 28.9543 73.1908 29.5475 74.8624 28.6358L74.3835 27.7579ZM75.5912 26.2026C75.3649 26.8816 74.9144 27.4388 74.3657 27.7681L74.8802 28.6256C75.643 28.1679 76.2416 27.4137 76.5399 26.5189L75.5912 26.2026Z" fill="#D7499A"/>
<path fill-rule="evenodd" clip-rule="evenodd" d="M78.8197 43.9345C78.8197 49.3115 77.7705 54.4263 75.6721 59.2787C76.5902 60.0656 77.2459 60.9836 77.2459 62.0328C77.6393 63.3443 77.377 64.6558 76.7213 65.8361C75.8033 67.4099 74.2295 68.3279 72.3934 68.3279C71.4754 68.3279 70.5574 68.1967 69.7705 67.6722C68.5902 67.0164 67.8033 65.8361 67.4098 64.5246C67.0164 63.2131 67.2787 61.9017 67.9344 60.7213C68.8525 59.1476 70.4262 58.2295 72.2623 58.2295C72.7869 58.2295 73.3115 58.2295 73.7049 58.3607C75.6721 53.7705 76.7213 48.9181 76.7213 43.9345C76.7213 40.7869 76.3279 37.6394 75.541 34.623L77.5082 34.0984C78.4262 37.2459 78.8197 40.6558 78.8197 43.9345ZM70.8197 65.9672C72.2623 66.8853 74.3607 66.3607 75.1475 64.9181C75.6721 64.1312 75.8033 63.3443 75.541 62.4263C75.2787 61.5082 74.7541 60.8525 74.0984 60.459C73.5738 60.1967 73.0492 60.0656 72.5246 60.0656C71.3443 60.0656 70.2951 60.7213 69.7705 61.6394C68.8525 63.2131 69.377 65.0492 70.8197 65.9672Z" fill="#D7499A"/>
<path d="M75.6721 59.2787L75.2132 59.0803L75.0669 59.4185L75.3467 59.6583L75.6721 59.2787ZM77.2459 62.0328H76.7459V62.1062L76.767 62.1765L77.2459 62.0328ZM76.7213 65.8361L77.1533 66.0881L77.1584 66.0789L76.7213 65.8361ZM69.7705 67.6722L70.0478 67.2561L70.031 67.2449L70.0133 67.2351L69.7705 67.6722ZM67.4098 64.5246L67.8887 64.3809L67.4098 64.5246ZM67.9344 60.7213L67.5024 60.4693L67.4973 60.4785L67.9344 60.7213ZM73.7049 58.3607L73.5468 58.835L73.9833 58.9805L74.1645 58.5576L73.7049 58.3607ZM75.541 34.623L75.4122 34.1399L74.9316 34.268L75.0572 34.7492L75.541 34.623ZM77.5082 34.0984L77.9882 33.9584L77.8514 33.4894L77.3794 33.6153L77.5082 34.0984ZM75.1475 64.9181L74.7315 64.6407L74.7192 64.6592L74.7086 64.6786L75.1475 64.9181ZM70.8197 65.9672L70.5512 66.3891H70.5512L70.8197 65.9672ZM75.541 62.4263L76.0217 62.2889V62.2889L75.541 62.4263ZM74.0984 60.459L74.3556 60.0303L74.3391 60.0204L74.322 60.0118L74.0984 60.459ZM69.7705 61.6394L70.2024 61.8913L70.2046 61.8874L69.7705 61.6394ZM76.1311 59.4772C78.257 54.561 79.3197 49.3786 79.3197 43.9345H78.3197C78.3197 49.2444 77.284 54.2915 75.2132 59.0803L76.1311 59.4772ZM77.7459 62.0328C77.7459 60.7642 76.9547 59.7196 75.9975 58.8991L75.3467 59.6583C76.2256 60.4116 76.7459 61.203 76.7459 62.0328H77.7459ZM77.1584 66.0789C77.863 64.8105 78.1658 63.3592 77.7248 61.8891L76.767 62.1765C77.1128 63.3294 76.891 64.501 76.2842 65.5933L77.1584 66.0789ZM72.3934 68.8279C74.4093 68.8279 76.1466 67.8137 77.1532 66.088L76.2894 65.5842C75.46 67.006 74.0497 67.8279 72.3934 67.8279V68.8279ZM69.4931 68.0882C70.4003 68.693 71.4356 68.8279 72.3934 68.8279V67.8279C71.5152 67.8279 70.7144 67.7005 70.0478 67.2561L69.4931 68.0882ZM66.9309 64.6683C67.3511 66.069 68.2046 67.3742 69.5277 68.1092L70.0133 67.2351C68.9757 66.6587 68.2554 65.6032 67.8887 64.3809L66.9309 64.6683ZM67.4973 60.4785C66.7927 61.7469 66.4899 63.1982 66.9309 64.6683L67.8887 64.3809C67.5429 63.2281 67.7647 62.0564 68.3715 60.9642L67.4973 60.4785ZM72.2623 57.7295C70.2464 57.7295 68.5092 58.7437 67.5025 60.4694L68.3663 60.9733C69.1957 59.5514 70.606 58.7295 72.2623 58.7295V57.7295ZM73.863 57.8863C73.3758 57.7239 72.7585 57.7295 72.2623 57.7295V58.7295C72.8152 58.7295 73.2471 58.7351 73.5468 58.835L73.863 57.8863ZM76.2213 43.9345C76.2213 48.8467 75.1873 53.6324 73.2453 58.1637L74.1645 58.5576C76.1569 53.9087 77.2213 48.9894 77.2213 43.9345H76.2213ZM75.0572 34.7492C75.833 37.7231 76.2213 40.8282 76.2213 43.9345H77.2213C77.2213 40.7456 76.8228 37.5556 76.0248 34.4968L75.0572 34.7492ZM77.3794 33.6153L75.4122 34.1399L75.6698 35.1061L77.637 34.5815L77.3794 33.6153ZM79.3197 43.9345C79.3197 40.6182 78.922 37.16 77.9882 33.9584L77.0282 34.2384C77.9305 37.3319 78.3197 40.6933 78.3197 43.9345H79.3197ZM74.7086 64.6786C74.0659 65.8568 72.2967 66.3145 71.0881 65.5454L70.5512 66.3891C72.2279 67.456 74.6554 66.8646 75.5865 65.1575L74.7086 64.6786ZM75.0602 62.5636C75.2815 63.3379 75.1763 63.9735 74.7315 64.6407L75.5636 65.1954C76.168 64.2888 76.3251 63.3506 76.0217 62.2889L75.0602 62.5636ZM73.8411 60.8878C74.3815 61.212 74.8306 61.76 75.0602 62.5636L76.0217 62.2889C75.7268 61.2565 75.1267 60.4929 74.3556 60.0303L73.8411 60.8878ZM72.5246 60.5656C72.9628 60.5656 73.4113 60.6745 73.8748 60.9063L74.322 60.0118C73.7362 59.719 73.1356 59.5656 72.5246 59.5656V60.5656ZM70.2046 61.8874C70.6419 61.1222 71.5271 60.5656 72.5246 60.5656V59.5656C71.1615 59.5656 69.9483 60.3204 69.3364 61.3913L70.2046 61.8874ZM71.0881 65.5454C69.8627 64.7656 69.4252 63.2235 70.2024 61.8913L69.3386 61.3874C68.2797 63.2028 68.8914 65.3328 70.5512 66.3891L71.0881 65.5454Z" fill="#D7499A"/>
<path fill-rule="evenodd" clip-rule="evenodd" d="M35.541 26.8852C36.8525 26.0983 38.4262 25.7049 40 25.7049C41.5738 25.7049 43.1476 26.0983 44.459 26.8852C45.6394 26.0983 47.082 25.5737 48.6557 25.5737C52.9836 25.5737 56.3935 28.9836 56.3935 33.3114C56.3935 37.6393 52.8525 41.0491 48.6557 41.0491C47.8689 41.0491 46.9508 40.918 46.1639 40.6557C44.5902 42.2295 42.3607 43.1475 40 43.1475C37.6394 43.1475 35.4098 42.2295 33.8361 40.6557C33.0492 40.918 32.2623 41.0491 31.3443 41.0491C27.0164 41.0491 23.6066 37.6393 23.6066 33.3114C23.6066 28.9836 27.1476 25.5737 31.3443 25.5737C32.7869 25.5737 34.2295 26.0983 35.541 26.8852ZM31.3443 27.5409C28.1967 27.5409 25.5738 30.1639 25.5738 33.3114C25.5738 36.459 28.0656 39.0819 31.3443 38.9508H31.3443C31.8689 38.9508 32.2623 38.9508 32.6557 38.8196C31.8689 37.5082 31.3443 36.0655 31.3443 34.3606C31.3443 32 32.3935 29.7705 33.9672 28.1967C33.1803 27.8032 32.2623 27.5409 31.3443 27.5409ZM40 41.1803C36.3279 41.1803 33.1803 38.1639 33.1803 34.3606C33.1803 30.6885 36.1967 27.5409 40 27.5409C43.6721 27.5409 46.8197 30.5573 46.8197 34.3606C46.8197 38.1639 43.6721 41.1803 40 41.1803ZM54.4262 33.3114C54.4262 30.1639 51.8033 27.5409 48.6557 27.5409C47.7377 27.5409 46.9508 27.8032 46.0328 28.3278C47.6066 29.9016 48.6557 32 48.6557 34.4918C48.6557 36.0655 48.1312 37.6393 47.3443 38.9508C47.8689 39.0819 48.2623 39.0819 48.6557 39.0819C51.8033 39.0819 54.4262 36.459 54.4262 33.3114Z" fill="#D7499A"/>
<path d="M35.541 26.8852L35.2837 27.314L35.541 27.4683L35.7982 27.314L35.541 26.8852ZM44.459 26.8852L44.2018 27.314L44.4731 27.4767L44.7364 27.3012L44.459 26.8852ZM46.1639 40.6557L46.3221 40.1814L46.0289 40.0836L45.8104 40.3021L46.1639 40.6557ZM33.8361 40.6557L34.1896 40.3021L33.9711 40.0836L33.678 40.1814L33.8361 40.6557ZM31.3443 38.9508V38.4508H31.3343L31.3243 38.4512L31.3443 38.9508ZM32.6557 38.8196L32.8139 39.294L33.4052 39.0969L33.0845 38.5624L32.6557 38.8196ZM33.9672 28.1967L34.3208 28.5502L34.8113 28.0597L34.1908 27.7495L33.9672 28.1967ZM46.0328 28.3278L45.7847 27.8937L45.2164 28.2185L45.6792 28.6814L46.0328 28.3278ZM47.3443 38.9508L46.9155 38.6935L46.5683 39.2722L47.223 39.4359L47.3443 38.9508ZM40 25.2049C38.3463 25.2049 36.6816 25.6177 35.2837 26.4565L35.7982 27.314C37.0233 26.5789 38.5062 26.2049 40 26.2049V25.2049ZM44.7163 26.4565C43.3184 25.6177 41.6537 25.2049 40 25.2049V26.2049C41.4938 26.2049 42.9767 26.5789 44.2018 27.314L44.7163 26.4565ZM48.6557 25.0737C46.9693 25.0737 45.4317 25.6358 44.1817 26.4692L44.7364 27.3012C45.847 26.5608 47.1947 26.0737 48.6557 26.0737V25.0737ZM56.8935 33.3114C56.8935 28.7074 53.2598 25.0737 48.6557 25.0737V26.0737C52.7075 26.0737 55.8935 29.2597 55.8935 33.3114H56.8935ZM48.6557 41.5491C53.1231 41.5491 56.8935 37.9209 56.8935 33.3114H55.8935C55.8935 37.3577 52.5819 40.5491 48.6557 40.5491V41.5491ZM46.0058 41.13C46.8488 41.411 47.8208 41.5491 48.6557 41.5491V40.5491C47.9169 40.5491 47.0528 40.4249 46.3221 40.1814L46.0058 41.13ZM40 43.6475C42.4883 43.6475 44.8465 42.6802 46.5175 41.0093L45.8104 40.3021C44.3338 41.7787 42.233 42.6475 40 42.6475V43.6475ZM33.4825 41.0093C35.1535 42.6802 37.5117 43.6475 40 43.6475V42.6475C37.767 42.6475 35.6662 41.7787 34.1896 40.3021L33.4825 41.0093ZM31.3443 41.5491C32.3145 41.5491 33.1549 41.4098 33.9942 41.13L33.678 40.1814C32.9435 40.4262 32.2101 40.5491 31.3443 40.5491V41.5491ZM23.1066 33.3114C23.1066 37.9154 26.7403 41.5491 31.3443 41.5491V40.5491C27.2925 40.5491 24.1066 37.3632 24.1066 33.3114H23.1066ZM31.3443 25.0737C26.8769 25.0737 23.1066 28.7019 23.1066 33.3114H24.1066C24.1066 29.2652 27.4182 26.0737 31.3443 26.0737V25.0737ZM35.7982 26.4565C34.4376 25.6401 32.9058 25.0737 31.3443 25.0737V26.0737C32.6679 26.0737 34.0214 26.5566 35.2837 27.314L35.7982 26.4565ZM26.0738 33.3114C26.0738 30.44 28.4729 28.0409 31.3443 28.0409V27.0409C27.9206 27.0409 25.0738 29.8878 25.0738 33.3114H26.0738ZM31.3243 38.4512C28.3484 38.5702 26.0738 36.1944 26.0738 33.3114H25.0738C25.0738 36.7235 27.7828 39.5936 31.3643 39.4504L31.3243 38.4512ZM31.3443 38.4508H31.3443V39.4508H31.3443V38.4508ZM32.4976 38.3453C32.195 38.4462 31.8866 38.4508 31.3443 38.4508V39.4508C31.8512 39.4508 32.3296 39.4554 32.8139 39.294L32.4976 38.3453ZM30.8443 34.3606C30.8443 36.1766 31.4053 37.7074 32.227 39.0769L33.0845 38.5624C32.3324 37.3089 31.8443 35.9544 31.8443 34.3606H30.8443ZM33.6137 27.8431C31.9564 29.5004 30.8443 31.8535 30.8443 34.3606H31.8443C31.8443 32.1465 32.8305 30.0405 34.3208 28.5502L33.6137 27.8431ZM31.3443 28.0409C32.1704 28.0409 33.0122 28.2782 33.7436 28.6439L34.1908 27.7495C33.3485 27.3283 32.3542 27.0409 31.3443 27.0409V28.0409ZM32.6803 34.3606C32.6803 38.4463 36.058 41.6803 40 41.6803V40.6803C36.5978 40.6803 33.6803 37.8815 33.6803 34.3606H32.6803ZM40 27.0409C35.9144 27.0409 32.6803 30.4186 32.6803 34.3606H33.6803C33.6803 30.9584 36.4791 28.0409 40 28.0409V27.0409ZM47.3197 34.3606C47.3197 30.275 43.942 27.0409 40 27.0409V28.0409C43.4023 28.0409 46.3197 30.8397 46.3197 34.3606H47.3197ZM40 41.6803C43.942 41.6803 47.3197 38.4463 47.3197 34.3606H46.3197C46.3197 37.8815 43.4023 40.6803 40 40.6803V41.6803ZM48.6557 28.0409C51.5271 28.0409 53.9262 30.44 53.9262 33.3114H54.9262C54.9262 29.8878 52.0794 27.0409 48.6557 27.0409V28.0409ZM46.2809 28.762C47.1484 28.2662 47.8496 28.0409 48.6557 28.0409V27.0409C47.6258 27.0409 46.7533 27.3402 45.7847 27.8937L46.2809 28.762ZM49.1557 34.4918C49.1557 31.8495 48.0405 29.6284 46.3864 27.9743L45.6792 28.6814C47.1727 30.1748 48.1557 32.1504 48.1557 34.4918H49.1557ZM47.773 39.208C48.5971 37.8345 49.1557 36.1728 49.1557 34.4918H48.1557C48.1557 35.9583 47.6652 37.4441 46.9155 38.6935L47.773 39.208ZM48.6557 38.5819C48.2668 38.5819 47.9262 38.5809 47.4655 38.4657L47.223 39.4359C47.8115 39.583 48.2578 39.5819 48.6557 39.5819V38.5819ZM53.9262 33.3114C53.9262 36.1828 51.5271 38.5819 48.6557 38.5819V39.5819C52.0794 39.5819 54.9262 36.7351 54.9262 33.3114H53.9262Z" fill="#D7499A"/>
<path fill-rule="evenodd" clip-rule="evenodd" d="M64.2623 49.0492C64.6557 51.1476 64.918 53.7705 65.0492 56.6558L65.3115 57.8361H58.6229C58.6921 58.3897 58.7248 58.9799 58.7595 59.6066C58.7906 60.1675 58.8233 60.7577 58.8852 61.3771V62.4263H21.377V61.3771C21.439 60.7577 21.4717 60.1675 21.5027 59.6066L21.5027 59.6066C21.5374 58.9799 21.5701 58.3897 21.6393 57.8361H14.9508V56.7869C15.2131 53.9017 15.4754 51.2787 15.7377 49.1804V49.0492C15.8688 48 16.1311 46.8197 16.7869 45.7705L16.918 45.5082C17.4426 44.5902 18.2295 43.6722 19.2787 43.1476C19.541 42.8853 19.9344 42.7541 20.3279 42.623L25.8361 40.6558L28.0656 44.9836L33.5738 43.0164L39.082 53.2459H40.918L46.4262 43.0164L51.9344 44.9836L54.1639 40.6558L59.8033 42.623C60.0776 42.7144 60.3519 42.8696 60.5818 42.9997L60.5818 42.9997C60.6816 43.0562 60.773 43.1079 60.8524 43.1476C61.7705 43.6722 62.6885 44.5902 63.2131 45.5082V45.6394C63.7377 46.8197 64.1311 47.8689 64.2623 48.9181V49.0492ZM16.9251 55.6066L16.918 55.7377V55.6066H16.9251ZM21.7705 55.6066H16.9251C17.0584 53.1722 17.3161 51.1153 17.5738 49.3115V49.0492C17.7049 48.2623 17.9672 47.4754 18.4918 46.4263C18.8852 45.7705 19.4098 45.2459 20.1967 44.7213L20.9836 44.3279L24.918 42.8853L26.3606 45.6394C25.1803 46.2951 24.1311 47.2131 23.4754 48.3935C22.6885 49.8361 22.1639 51.2787 22.1639 52.7213C22.1639 52.8162 22.1296 53.0139 22.0796 53.3021L22.0796 53.3021L22.0796 53.3021C21.9914 53.811 21.8542 54.6019 21.7705 55.6066ZM23.3442 60.3279C23.6065 55.6066 24.1311 53.2459 24.1311 53.2459V52.9836C24.1311 51.9345 24.5246 50.7541 25.1803 49.5738C25.8361 48.5246 26.8852 47.6066 28.0656 47.2131L32.6557 45.5082L37.9016 55.3443H41.9672L47.2131 45.5082L51.8033 47.082C52.1967 47.2131 52.459 47.3443 52.7213 47.4754L52.7213 47.4754C53.5082 48 54.1639 48.5246 54.6885 49.4426V49.5738C55.2131 50.623 55.6065 51.541 55.7377 52.459V52.7213C56 54.8197 56.2623 57.4426 56.5246 60.3279H23.3442ZM57.8361 52.4598C57.9673 53.5087 58.0984 54.5577 58.2295 55.7377V55.8689H63.082C62.9508 53.3771 62.6885 51.2787 62.4262 49.4426V49.1804C62.2951 48.3935 62.0328 47.6066 61.5082 46.6885V46.5574C60.9836 45.9017 60.459 45.3771 59.8033 44.9836L59.0164 44.5902L55.2131 43.1476L53.7705 45.9017C54.9508 46.5574 55.8688 47.4754 56.5246 48.5246V48.6558C57.3115 49.8361 57.7049 51.1476 57.8361 52.3279V52.459L57.8361 52.4598Z" fill="#D7499A"/>
<path d="M65.0492 56.6558L64.5497 56.6785L64.5517 56.7218L64.5611 56.7642L65.0492 56.6558ZM64.2623 49.0492H63.7623V49.0957L63.7708 49.1413L64.2623 49.0492ZM65.3115 57.8361V58.3361H65.9348L65.7996 57.7276L65.3115 57.8361ZM58.6229 57.8361V57.3361H58.0565L58.1268 57.8981L58.6229 57.8361ZM58.7595 59.6066L58.2603 59.6342V59.6342L58.7595 59.6066ZM58.8852 61.3771H59.3852V61.3521L59.3827 61.3273L58.8852 61.3771ZM58.8852 62.4263V62.9263H59.3852V62.4263H58.8852ZM21.377 62.4263H20.877V62.9263H21.377V62.4263ZM21.377 61.3771L20.8795 61.3273L20.877 61.3521V61.3771H21.377ZM21.5027 59.6066L22.002 59.6343L22.0023 59.6274L21.5027 59.6066ZM21.5027 59.6066L21.0034 59.5789L21.0032 59.5858L21.5027 59.6066ZM21.6393 57.8361L22.1355 57.8981L22.2057 57.3361H21.6393V57.8361ZM14.9508 57.8361H14.4508V58.3361H14.9508V57.8361ZM14.9508 56.7869L14.4529 56.7416L14.4508 56.7642V56.7869H14.9508ZM15.7377 49.1804L16.2338 49.2424L16.2377 49.2115V49.1804H15.7377ZM15.7377 49.0492L15.2416 48.9872L15.2377 49.0181V49.0492H15.7377ZM16.7869 45.7705L17.2109 46.0355L17.2235 46.0154L17.2341 45.9941L16.7869 45.7705ZM16.918 45.5082L16.4839 45.2602L16.477 45.2722L16.4708 45.2846L16.918 45.5082ZM19.2787 43.1476L19.5023 43.5948L19.5749 43.5585L19.6322 43.5011L19.2787 43.1476ZM20.3279 42.623L20.486 43.0974L20.496 43.0938L20.3279 42.623ZM25.8361 40.6558L26.2805 40.4268L26.0801 40.0377L25.6679 40.1849L25.8361 40.6558ZM28.0656 44.9836L27.6211 45.2126L27.8215 45.6017L28.2337 45.4545L28.0656 44.9836ZM33.5738 43.0164L34.014 42.7794L33.8103 42.401L33.4056 42.5455L33.5738 43.0164ZM39.082 53.2459L38.6417 53.483L38.7833 53.7459H39.082V53.2459ZM40.918 53.2459V53.7459H41.2167L41.3583 53.483L40.918 53.2459ZM46.4262 43.0164L46.5944 42.5455L46.1897 42.401L45.986 42.7794L46.4262 43.0164ZM51.9344 44.9836L51.7662 45.4545L52.1785 45.6017L52.3789 45.2126L51.9344 44.9836ZM54.1639 40.6558L54.3286 40.1837L53.9184 40.0406L53.7194 40.4268L54.1639 40.6558ZM59.8033 42.623L59.6386 43.0951L59.6451 43.0973L59.8033 42.623ZM60.5818 42.9997L60.3355 43.4349L60.3426 43.4388L60.5818 42.9997ZM60.5818 42.9997L60.8281 42.5645L60.821 42.5606L60.5818 42.9997ZM60.8524 43.1476L61.1005 42.7134L61.0885 42.7066L61.076 42.7003L60.8524 43.1476ZM63.2131 45.5082H63.7131V45.3754L63.6472 45.2602L63.2131 45.5082ZM63.2131 45.6394H62.7131V45.7455L62.7562 45.8424L63.2131 45.6394ZM64.2623 48.9181H64.7623V48.8869L64.7584 48.856L64.2623 48.9181ZM16.918 55.7377H16.418L17.4173 55.7645L16.918 55.7377ZM16.918 55.6066V55.1066H16.418V55.6066H16.918ZM21.7705 55.6066V56.1066H22.2305L22.2688 55.6481L21.7705 55.6066ZM17.5738 49.3115L18.0687 49.3822L18.0738 49.347V49.3115H17.5738ZM17.5738 49.0492L17.0806 48.967L17.0738 49.0078V49.0492H17.5738ZM18.4918 46.4263L18.063 46.169L18.0532 46.1855L18.0446 46.2026L18.4918 46.4263ZM20.1967 44.7213L19.9731 44.2741L19.9453 44.288L19.9194 44.3053L20.1967 44.7213ZM20.9836 44.3279L20.8115 43.8585L20.7851 43.8681L20.76 43.8807L20.9836 44.3279ZM24.918 42.8853L25.3609 42.6533L25.1575 42.2649L24.7459 42.4158L24.918 42.8853ZM26.3606 45.6394L26.6035 46.0764L27.0299 45.8395L26.8036 45.4074L26.3606 45.6394ZM23.4754 48.3935L23.0383 48.1506L23.0364 48.154L23.4754 48.3935ZM22.0796 53.3021L21.587 53.2166L21.585 53.2283L21.5835 53.2401L22.0796 53.3021ZM22.0796 53.3021L22.5685 53.4069L22.5731 53.3856L22.5758 53.3641L22.0796 53.3021ZM22.0796 53.3021L21.5907 53.1973L21.5887 53.207L21.587 53.2167L22.0796 53.3021ZM24.1311 53.2459L24.6192 53.3544L24.6311 53.3008V53.2459H24.1311ZM23.3442 60.3279L22.845 60.3002L22.8157 60.8279H23.3442V60.3279ZM25.1803 49.5738L24.7563 49.3088L24.7495 49.3197L24.7432 49.331L25.1803 49.5738ZM28.0656 47.2131L28.2237 47.6875L28.2317 47.6848L28.2397 47.6819L28.0656 47.2131ZM32.6557 45.5082L33.0969 45.2729L32.8913 44.8874L32.4816 45.0395L32.6557 45.5082ZM37.9016 55.3443L37.4604 55.5796L37.6016 55.8443H37.9016V55.3443ZM41.9672 55.3443V55.8443H42.2672L42.4084 55.5796L41.9672 55.3443ZM47.2131 45.5082L47.3753 45.0352L46.9724 44.8971L46.7719 45.2729L47.2131 45.5082ZM51.8033 47.082L51.6411 47.555L51.6451 47.5563L51.8033 47.082ZM52.7213 47.4754L52.9664 47.0396L52.9558 47.0336L52.9449 47.0282L52.7213 47.4754ZM52.7213 47.4754L52.9986 47.0594L52.9829 47.0489L52.9664 47.0396L52.7213 47.4754ZM54.6885 49.4426H55.1885V49.3099L55.1226 49.1946L54.6885 49.4426ZM54.6885 49.5738H54.1885V49.6918L54.2413 49.7974L54.6885 49.5738ZM55.7377 52.459H56.2377V52.4235L56.2327 52.3883L55.7377 52.459ZM55.7377 52.7213H55.2377V52.7525L55.2416 52.7834L55.7377 52.7213ZM56.5246 60.3279V60.8279H57.0721L57.0225 60.2826L56.5246 60.3279ZM58.2295 55.7377H58.7295V55.71L58.7264 55.6825L58.2295 55.7377ZM57.8361 52.4598L58.3323 52.3977L58.332 52.3958L57.8361 52.4598ZM58.2295 55.8689H57.7295V56.3689H58.2295V55.8689ZM63.082 55.8689V56.3689H63.609L63.5813 55.8426L63.082 55.8689ZM62.4262 49.4426H61.9262V49.4782L61.9312 49.5134L62.4262 49.4426ZM62.4262 49.1804H62.9262V49.139L62.9194 49.0982L62.4262 49.1804ZM61.5082 46.6885H61.0082V46.8213L61.0741 46.9366L61.5082 46.6885ZM61.5082 46.5574H62.0082V46.382L61.8986 46.2451L61.5082 46.5574ZM59.8033 44.9836L60.0605 44.5549L60.044 44.545L60.0269 44.5364L59.8033 44.9836ZM59.0164 44.5902L59.24 44.143L59.2174 44.1317L59.1937 44.1227L59.0164 44.5902ZM55.2131 43.1476L55.3904 42.6801L54.9759 42.5228L54.7702 42.9156L55.2131 43.1476ZM53.7705 45.9017L53.3276 45.6697L53.1012 46.1018L53.5277 46.3387L53.7705 45.9017ZM56.5246 48.5246H57.0246V48.3812L56.9486 48.2596L56.5246 48.5246ZM56.5246 48.6558H56.0246V48.8071L56.1086 48.9331L56.5246 48.6558ZM57.8361 52.3279H58.3361V52.3002L58.333 52.2727L57.8361 52.3279ZM57.8361 52.459H57.3361V52.4912L57.3402 52.523L57.8361 52.459ZM65.5487 56.6331C65.4169 53.7341 65.1529 51.0862 64.7537 48.9571L63.7708 49.1413C64.1585 51.2089 64.4192 53.8069 64.5497 56.6785L65.5487 56.6331ZM65.7996 57.7276L65.5373 56.5473L64.5611 56.7642L64.8234 57.9446L65.7996 57.7276ZM58.6229 58.3361H65.3115V57.3361H58.6229V58.3361ZM59.2588 59.5789C59.2243 58.9561 59.1908 58.348 59.1191 57.7741L58.1268 57.8981C58.1935 58.4314 58.2254 59.0037 58.2603 59.6342L59.2588 59.5789ZM59.3827 61.3273C59.3221 60.7206 59.2899 60.1411 59.2588 59.5789L58.2603 59.6342C58.2913 60.1939 58.3245 60.7947 58.3877 61.4268L59.3827 61.3273ZM59.3852 62.4263V61.3771H58.3852V62.4263H59.3852ZM21.377 62.9263H58.8852V61.9263H21.377V62.9263ZM20.877 61.3771V62.4263H21.877V61.3771H20.877ZM21.0035 59.579C20.9724 60.1411 20.9402 60.7206 20.8795 61.3273L21.8746 61.4268C21.9378 60.7947 21.971 60.1939 22.002 59.6343L21.0035 59.579ZM21.0032 59.5858L21.0032 59.5858L22.0023 59.6274L22.0023 59.6274L21.0032 59.5858ZM21.1432 57.7741C21.0714 58.348 21.038 58.9561 21.0035 59.5789L22.002 59.6342C22.0369 59.0037 22.0688 58.4314 22.1355 57.8981L21.1432 57.7741ZM14.9508 58.3361H21.6393V57.3361H14.9508V58.3361ZM14.4508 56.7869V57.8361H15.4508V56.7869H14.4508ZM15.2416 49.1183C14.9782 51.2252 14.7153 53.8549 14.4529 56.7416L15.4488 56.8322C15.7109 53.9485 15.9726 51.3322 16.2338 49.2424L15.2416 49.1183ZM15.2377 49.0492V49.1804H16.2377V49.0492H15.2377ZM16.3629 45.5055C15.6511 46.6444 15.3764 47.9082 15.2416 48.9872L16.2338 49.1112C16.3612 48.0919 16.6112 46.995 17.2109 46.0355L16.3629 45.5055ZM16.4708 45.2846L16.3397 45.5469L17.2341 45.9941L17.3652 45.7318L16.4708 45.2846ZM19.0551 42.7004C17.89 43.2829 17.0395 44.2878 16.4839 45.2602L17.3521 45.7563C17.8457 44.8925 18.569 44.0614 19.5023 43.5948L19.0551 42.7004ZM20.1697 42.1486C19.8071 42.2695 19.2871 42.432 18.9251 42.794L19.6322 43.5011C19.7948 43.3385 20.0617 43.2387 20.486 43.0973L20.1697 42.1486ZM25.6679 40.1849L20.1597 42.1521L20.496 43.0938L26.0042 41.1266L25.6679 40.1849ZM28.51 44.7547L26.2805 40.4268L25.3916 40.8847L27.6211 45.2126L28.51 44.7547ZM33.4056 42.5455L27.8974 44.5128L28.2337 45.4545L33.7419 43.4873L33.4056 42.5455ZM39.5222 53.0089L34.014 42.7794L33.1335 43.2535L38.6417 53.483L39.5222 53.0089ZM40.918 52.7459H39.082V53.7459H40.918V52.7459ZM45.986 42.7794L40.4778 53.0089L41.3583 53.483L46.8665 43.2535L45.986 42.7794ZM52.1026 44.5128L46.5944 42.5455L46.258 43.4873L51.7662 45.4545L52.1026 44.5128ZM53.7194 40.4268L51.4899 44.7547L52.3789 45.2126L54.6084 40.8847L53.7194 40.4268ZM59.9679 42.1509L54.3286 40.1837L53.9992 41.1279L59.6386 43.0951L59.9679 42.1509ZM60.828 42.5645C60.6063 42.439 60.2897 42.2581 59.9614 42.1486L59.6451 43.0973C59.8655 43.1708 60.0975 43.3002 60.3356 43.4348L60.828 42.5645ZM60.821 42.5606L60.8209 42.5606L60.3426 43.4388L60.3427 43.4388L60.821 42.5606ZM61.076 42.7003C61.0105 42.6676 60.9313 42.6229 60.8281 42.5645L60.3356 43.4349C60.432 43.4894 60.5356 43.5482 60.6288 43.5948L61.076 42.7003ZM63.6472 45.2602C63.0783 44.2646 62.0961 43.2823 61.1005 42.7134L60.6044 43.5817C61.4449 44.062 62.2987 44.9158 62.779 45.7563L63.6472 45.2602ZM63.7131 45.6394V45.5082H62.7131V45.6394H63.7131ZM64.7584 48.856C64.6177 47.7302 64.1984 46.6251 63.67 45.4363L62.7562 45.8424C63.277 47.0143 63.6446 48.0076 63.7661 48.9801L64.7584 48.856ZM64.7623 49.0492V48.9181H63.7623V49.0492H64.7623ZM17.4173 55.7645L17.4243 55.6334L16.4258 55.5798L16.4187 55.7109L17.4173 55.7645ZM16.418 55.6066V55.7377H17.418V55.6066H16.418ZM16.9251 55.1066H16.918V56.1066H16.9251V55.1066ZM16.9251 56.1066H21.7705V55.1066H16.9251V56.1066ZM17.0788 49.2408C16.8201 51.0517 16.5603 53.1245 16.4258 55.5792L17.4243 55.6339C17.5565 53.2198 17.8121 51.1788 18.0687 49.3822L17.0788 49.2408ZM17.0738 49.0492V49.3115H18.0738V49.0492H17.0738ZM18.0446 46.2026C17.5037 47.2843 17.2219 48.1192 17.0806 48.967L18.067 49.1314C18.1879 48.4054 18.4307 47.6665 18.939 46.6499L18.0446 46.2026ZM19.9194 44.3053C19.0851 44.8615 18.5025 45.4366 18.063 46.169L18.9205 46.6835C19.268 46.1044 19.7345 45.6304 20.4741 45.1374L19.9194 44.3053ZM20.76 43.8807L19.9731 44.2741L20.4203 45.1685L21.2072 44.7751L20.76 43.8807ZM24.7459 42.4158L20.8115 43.8585L21.1557 44.7973L25.0901 43.3547L24.7459 42.4158ZM26.8036 45.4074L25.3609 42.6533L24.4751 43.1173L25.9177 45.8714L26.8036 45.4074ZM23.9125 48.6363C24.512 47.5572 25.4826 46.6991 26.6035 46.0764L26.1178 45.2023C24.878 45.8911 23.7503 46.8691 23.0383 48.1506L23.9125 48.6363ZM22.6639 52.7213C22.6639 51.3979 23.1461 50.0413 23.9143 48.6329L23.0364 48.154C22.2309 49.6308 21.6639 51.1595 21.6639 52.7213H22.6639ZM22.5723 53.3875C22.597 53.2453 22.6191 53.118 22.6348 53.0145C22.6493 52.9196 22.6639 52.8115 22.6639 52.7213H21.6639C21.6639 52.7187 21.6639 52.7282 21.6608 52.757C21.6578 52.7837 21.6531 52.8188 21.6462 52.8639C21.6324 52.955 21.6123 53.0707 21.587 53.2166L22.5723 53.3875ZM22.5758 53.3641L22.5758 53.3641L21.5835 53.2401L21.5835 53.2401L22.5758 53.3641ZM22.5685 53.4069L22.5685 53.4069L21.5907 53.1973L21.5907 53.1973L22.5685 53.4069ZM22.2688 55.6481C22.3505 54.6667 22.4844 53.8941 22.5723 53.3876L21.587 53.2167C21.4983 53.7279 21.3579 54.537 21.2722 55.5651L22.2688 55.6481ZM24.1311 53.2459C23.643 53.1375 23.643 53.1375 23.643 53.1376C23.643 53.1377 23.643 53.1378 23.6429 53.1379C23.6429 53.138 23.6429 53.1383 23.6428 53.1385C23.6427 53.139 23.6426 53.1396 23.6424 53.1404C23.642 53.142 23.6416 53.1441 23.641 53.1468C23.6398 53.1522 23.6382 53.16 23.636 53.17C23.6318 53.1901 23.6257 53.2193 23.6179 53.2579C23.6024 53.3349 23.5803 53.4489 23.553 53.5997C23.4985 53.9014 23.4237 54.3507 23.3408 54.9476C23.175 56.1415 22.9769 57.9257 22.845 60.3002L23.8435 60.3556C23.9739 58.0088 24.1692 56.252 24.3313 55.0852C24.4123 54.5018 24.485 54.0659 24.5371 53.7774C24.5632 53.6332 24.584 53.5258 24.5982 53.4553C24.6053 53.42 24.6108 53.394 24.6143 53.3772C24.6161 53.3688 24.6174 53.3627 24.6182 53.3589C24.6187 53.357 24.6189 53.3557 24.6191 53.3549C24.6192 53.3545 24.6192 53.3543 24.6193 53.3542C24.6193 53.3542 24.6193 53.3542 24.6193 53.3542C24.6193 53.3542 24.6193 53.3543 24.6193 53.3543C24.6192 53.3543 24.6192 53.3544 24.1311 53.2459ZM23.6311 52.9836V53.2459H24.6311V52.9836H23.6311ZM24.7432 49.331C24.0649 50.5519 23.6311 51.8178 23.6311 52.9836H24.6311C24.6311 52.0511 24.9842 50.9563 25.6174 49.8166L24.7432 49.331ZM27.9074 46.7388C26.5989 47.175 25.4628 48.1784 24.7563 49.3088L25.6043 49.8388C26.2093 48.8709 27.1715 48.0382 28.2237 47.6875L27.9074 46.7388ZM32.4816 45.0395L27.8915 46.7444L28.2397 47.6819L32.8298 45.9769L32.4816 45.0395ZM38.3428 55.109L33.0969 45.2729L32.2145 45.7435L37.4604 55.5796L38.3428 55.109ZM41.9672 54.8443H37.9016V55.8443H41.9672V54.8443ZM46.7719 45.2729L41.526 55.109L42.4084 55.5796L47.6543 45.7435L46.7719 45.2729ZM51.9654 46.609L47.3753 45.0352L47.0509 45.9812L51.6411 47.555L51.9654 46.609ZM52.9449 47.0282C52.6794 46.8955 52.3905 46.7507 51.9614 46.6076L51.6451 47.5563C52.0028 47.6756 52.2385 47.7931 52.4977 47.9226L52.9449 47.0282ZM52.9664 47.0396L52.9664 47.0396L52.4761 47.9112L52.4762 47.9112L52.9664 47.0396ZM55.1226 49.1946C54.5417 48.178 53.8116 47.6013 52.9986 47.0594L52.4439 47.8915C53.2048 48.3987 53.7861 48.8712 54.2544 49.6907L55.1226 49.1946ZM55.1885 49.5738V49.4426H54.1885V49.5738H55.1885ZM56.2327 52.3883C56.0893 51.3845 55.663 50.4047 55.1357 49.3502L54.2413 49.7974C54.7632 50.8412 55.1238 51.6975 55.2427 52.5298L56.2327 52.3883ZM56.2377 52.7213V52.459H55.2377V52.7213H56.2377ZM57.0225 60.2826C56.7601 57.3959 56.4972 54.7662 56.2338 52.6593L55.2416 52.7834C55.5028 54.8732 55.7645 57.4894 56.0266 60.3732L57.0225 60.2826ZM23.3442 60.8279H56.5246V59.8279H23.3442V60.8279ZM58.7264 55.6825C58.5949 54.4986 58.4634 53.4464 58.3323 52.3977L57.34 52.5218C57.4712 53.571 57.6019 54.6167 57.7326 55.7929L58.7264 55.6825ZM58.7295 55.8689V55.7377H57.7295V55.8689H58.7295ZM63.082 55.3689H58.2295V56.3689H63.082V55.3689ZM61.9312 49.5134C62.1925 51.3421 62.4526 53.4242 62.5826 55.8952L63.5813 55.8426C63.449 53.33 63.1845 51.2154 62.9212 49.3719L61.9312 49.5134ZM61.9262 49.1804V49.4426H62.9262V49.1804H61.9262ZM61.0741 46.9366C61.5705 47.8053 61.812 48.5363 61.933 49.2626L62.9194 49.0982C62.7782 48.2507 62.4951 47.4078 61.9423 46.4405L61.0741 46.9366ZM61.0082 46.5574V46.6885H62.0082V46.5574H61.0082ZM59.546 45.4124C60.1316 45.7637 60.6131 46.2389 61.1177 46.8697L61.8986 46.2451C61.3541 45.5644 60.7864 44.9904 60.0605 44.5549L59.546 45.4124ZM58.7928 45.0374L59.5797 45.4308L60.0269 44.5364L59.24 44.143L58.7928 45.0374ZM55.0358 43.6151L58.8391 45.0577L59.1937 44.1227L55.3904 42.6801L55.0358 43.6151ZM54.2134 46.1337L55.656 43.3796L54.7702 42.9156L53.3276 45.6697L54.2134 46.1337ZM56.9486 48.2596C56.2508 47.1431 55.2721 46.1639 54.0133 45.4646L53.5277 46.3387C54.6295 46.9509 55.4869 47.8077 56.1006 48.7896L56.9486 48.2596ZM57.0246 48.6558V48.5246H56.0246V48.6558H57.0246ZM58.333 52.2727C58.1946 51.0269 57.779 49.636 56.9406 48.3784L56.1086 48.9331C56.8439 50.0361 57.2152 51.2682 57.3391 52.3831L58.333 52.2727ZM58.3361 52.459V52.3279H57.3361V52.459H58.3361ZM58.332 52.3958L58.3319 52.3951L57.3402 52.523L57.3403 52.5237L58.332 52.3958Z" fill="#D7499A"/>
</svg>
