<svg width="82" height="76" viewBox="0 0 82 76" fill="none" xmlns="http://www.w3.org/2000/svg">
<path fill-rule="evenodd" clip-rule="evenodd" d="M77.8003 62.2688V72.6129H81V75H65.0013H52.2031H49.8033H37.0035H1.0064V72.6129H5.00688V66.2473H13.0062V17.7097H13.0054H1.0064V15.4141L1 15.4061L1.0064 15.4006V15.3226H1.10319L11.8951 6.56989H13.0054V1H26.5732V6.90568L51.6255 15.3226H53.0022V17.7097H52.2023V21.6874H53.8238V24.0745H52.2023V28.0538H50.7512L52.1807 28.1914C51.9311 30.7528 49.7913 32.6855 47.2043 32.6855C44.4469 32.6855 42.2047 30.4544 42.2047 27.7124C42.2047 26.7552 42.4799 25.8242 42.9998 25.0198L45.0173 26.3128C44.7461 26.7305 44.6037 27.2143 44.6037 27.7124C44.6037 29.1383 45.7692 30.2984 47.2035 30.2984C48.5482 30.2984 49.6609 29.2935 49.7905 27.9607L49.8033 27.9623V24.0737H48.2034V21.6866H49.8033V17.7097H26.5732V66.2473H34.6045V72.6129H37.0035V59.8817H37.0043V47.9462H39.4041V59.8817H49.8033V48.3688H49.8025V40.7849H52.2023V47.1505H62.6007V21.6882H65.0005V34.4194H75.4012V8.16129H77.8011V48.3688H77.8003V49.5376V59.8817V62.2688ZM23.779 27.7323L15.406 19.4037V36.0609L23.779 27.7323ZM15.4052 8.95699H24.1733V15.3226H15.4052V8.95699ZM16.9723 37.8791L24.1733 45.0419V30.7154L16.9723 37.8791ZM24.1733 24.75L17.0963 17.7097H24.1733V24.75ZM23.327 47.5746L15.406 39.6956V55.4537L23.327 47.5746ZM24.1733 50.1082V64.4355L16.9715 57.2726L24.1733 50.1082ZM26.5732 15.3226H44.1269L26.5732 9.42486V15.3226ZM15.4052 3.3871H24.1733V6.56989H15.4052V3.3871ZM12.7495 8.95619L4.89969 15.3226H13.0046V8.95619H12.7495ZM15.406 59.0908L22.6007 66.2473H15.406V59.0908ZM32.2047 68.6344H7.40669V72.6129H32.2047V68.6344ZM75.4005 72.6129H65.0013V62.2688H75.4005V72.6129ZM65.0013 59.8817H75.4005V49.5376H65.0013V59.8817ZM65.0013 36.8064H75.4005V47.1505H65.0013V36.8064ZM62.6015 49.5376H52.2031V59.8817H62.6015V49.5376ZM39.4033 72.6129V62.2688H49.8033V72.6129H39.4033ZM62.6015 62.2688H52.2031V72.6129H62.6015V62.2688Z" fill="#D7499A"/>
<path d="M77.8003 72.6129H77.5503V72.8629H77.8003V72.6129ZM81 72.6129H81.25V72.3629H81V72.6129ZM81 75V75.25H81.25V75H81ZM1.0064 75H0.756399V75.25H1.0064V75ZM1.0064 72.6129V72.3629H0.756399V72.6129H1.0064ZM5.00688 72.6129V72.8629H5.25688V72.6129H5.00688ZM5.00688 66.2473V65.9973H4.75688V66.2473H5.00688ZM13.0062 66.2473V66.4973H13.2562V66.2473H13.0062ZM13.0062 17.7097H13.2562V17.4597H13.0062V17.7097ZM1.0064 17.7097H0.756399V17.9597H1.0064V17.7097ZM1.0064 15.4141H1.2564V15.326L1.20122 15.2574L1.0064 15.4141ZM1 15.4061L0.835877 15.2175L0.654483 15.3754L0.805184 15.5628L1 15.4061ZM1.0064 15.4006L1.17052 15.5891L1.2564 15.5144V15.4006H1.0064ZM1.0064 15.3226V15.0726H0.756399V15.3226H1.0064ZM1.10319 15.3226V15.5726H1.19183L1.26067 15.5167L1.10319 15.3226ZM11.8951 6.56989V6.31989H11.8065L11.7377 6.37573L11.8951 6.56989ZM13.0054 6.56989V6.81989H13.2554V6.56989H13.0054ZM13.0054 1V0.75H12.7554V1H13.0054ZM26.5732 1H26.8232V0.75H26.5732V1ZM26.5732 6.90568H26.3232V7.08542L26.4935 7.14266L26.5732 6.90568ZM51.6255 15.3226L51.5459 15.5596L51.5847 15.5726H51.6255V15.3226ZM53.0022 15.3226H53.2522V15.0726H53.0022V15.3226ZM53.0022 17.7097V17.9597H53.2522V17.7097H53.0022ZM52.2023 17.7097V17.4597H51.9523V17.7097H52.2023ZM52.2023 21.6874H51.9523V21.9374H52.2023V21.6874ZM53.8238 21.6874H54.0738V21.4374H53.8238V21.6874ZM53.8238 24.0745V24.3245H54.0738V24.0745H53.8238ZM52.2023 24.0745V23.8245H51.9523V24.0745H52.2023ZM52.2023 28.0538V28.3038H52.4523V28.0538H52.2023ZM50.7512 28.0538V27.8038L50.7273 28.3026L50.7512 28.0538ZM52.1807 28.1914L52.4295 28.2157L52.4538 27.9666L52.2047 27.9426L52.1807 28.1914ZM42.9998 25.0198L43.1347 24.8093L42.9251 24.6749L42.7899 24.8841L42.9998 25.0198ZM45.0173 26.3128L45.227 26.4489L45.3639 26.238L45.1522 26.1023L45.0173 26.3128ZM49.7905 27.9607L49.8213 27.7126L49.5665 27.6809L49.5417 27.9365L49.7905 27.9607ZM49.8033 27.9623L49.7725 28.2103L50.0533 28.2453V27.9623H49.8033ZM49.8033 24.0737H50.0533V23.8237H49.8033V24.0737ZM48.2034 24.0737H47.9534V24.3237H48.2034V24.0737ZM48.2034 21.6866V21.4366H47.9534V21.6866H48.2034ZM49.8033 21.6866V21.9366H50.0533V21.6866H49.8033ZM49.8033 17.7097H50.0533V17.4597H49.8033V17.7097ZM26.5732 17.7097V17.4597H26.3232V17.7097H26.5732ZM26.5732 66.2473H26.3232V66.4973H26.5732V66.2473ZM34.6045 66.2473H34.8545V65.9973H34.6045V66.2473ZM34.6045 72.6129H34.3545V72.8629H34.6045V72.6129ZM37.0035 72.6129V72.8629H37.2535V72.6129H37.0035ZM37.0035 59.8817V59.6317H36.7535V59.8817H37.0035ZM37.0043 59.8817V60.1317H37.2543V59.8817H37.0043ZM37.0043 47.9462V47.6962H36.7543V47.9462H37.0043ZM39.4041 47.9462H39.6541V47.6962H39.4041V47.9462ZM39.4041 59.8817H39.1541V60.1317H39.4041V59.8817ZM49.8033 59.8817V60.1317H50.0533V59.8817H49.8033ZM49.8033 48.3688H50.0533V48.1188H49.8033V48.3688ZM49.8025 48.3688H49.5525V48.6188H49.8025V48.3688ZM49.8025 40.7849V40.5349H49.5525V40.7849H49.8025ZM52.2023 40.7849H52.4523V40.5349H52.2023V40.7849ZM52.2023 47.1505H51.9523V47.4005H52.2023V47.1505ZM62.6007 47.1505V47.4005H62.8507V47.1505H62.6007ZM62.6007 21.6882V21.4382H62.3507V21.6882H62.6007ZM65.0005 21.6882H65.2505V21.4382H65.0005V21.6882ZM65.0005 34.4194H64.7505V34.6694H65.0005V34.4194ZM75.4012 34.4194V34.6694H75.6512V34.4194H75.4012ZM75.4012 8.16129V7.91129H75.1512V8.16129H75.4012ZM77.8011 8.16129H78.0511V7.91129H77.8011V8.16129ZM77.8011 48.3688V48.6188H78.0511V48.3688H77.8011ZM77.8003 48.3688V48.1188H77.5503V48.3688H77.8003ZM15.406 19.4037L15.5824 19.2265L15.156 18.8024V19.4037H15.406ZM23.779 27.7323L23.9553 27.9095L24.1335 27.7323L23.9553 27.5551L23.779 27.7323ZM15.406 36.0609H15.156V36.6622L15.5824 36.2381L15.406 36.0609ZM24.1733 8.95699H24.4233V8.70699H24.1733V8.95699ZM15.4052 8.95699V8.70699H15.1552V8.95699H15.4052ZM24.1733 15.3226V15.5726H24.4233V15.3226H24.1733ZM15.4052 15.3226H15.1552V15.5726H15.4052V15.3226ZM24.1733 45.0419L23.997 45.2192L24.4233 45.6432V45.0419H24.1733ZM16.9723 37.8791L16.796 37.7018L16.6178 37.8791L16.796 38.0563L16.9723 37.8791ZM24.1733 30.7154H24.4233V30.114L23.997 30.5381L24.1733 30.7154ZM17.0963 17.7097V17.4597H16.4905L16.92 17.8869L17.0963 17.7097ZM24.1733 24.75L23.997 24.9273L24.4233 25.3514V24.75H24.1733ZM24.1733 17.7097H24.4233V17.4597H24.1733V17.7097ZM15.406 39.6956L15.5824 39.5184L15.156 39.0943V39.6956H15.406ZM23.327 47.5746L23.5033 47.7519L23.6815 47.5746L23.5033 47.3974L23.327 47.5746ZM15.406 55.4537H15.156V56.055L15.5824 55.6309L15.406 55.4537ZM24.1733 64.4355L23.997 64.6128L24.4233 65.0368V64.4355H24.1733ZM24.1733 50.1082H24.4233V49.5068L23.997 49.9309L24.1733 50.1082ZM16.9715 57.2726L16.7952 57.0954L16.617 57.2726L16.7952 57.4499L16.9715 57.2726ZM44.1269 15.3226V15.5726L44.2066 15.0856L44.1269 15.3226ZM26.5732 15.3226H26.3232V15.5726H26.5732V15.3226ZM26.5732 9.42486L26.6528 9.18788L26.3232 9.07713V9.42486H26.5732ZM24.1733 3.3871H24.4233V3.1371H24.1733V3.3871ZM15.4052 3.3871V3.1371H15.1552V3.3871H15.4052ZM24.1733 6.56989V6.81989H24.4233V6.56989H24.1733ZM15.4052 6.56989H15.1552V6.81989H15.4052V6.56989ZM4.89969 15.3226L4.74221 15.1284L4.19455 15.5726H4.89969V15.3226ZM12.7495 8.95619V8.70619H12.6608L12.592 8.76203L12.7495 8.95619ZM13.0046 15.3226V15.5726H13.2546V15.3226H13.0046ZM13.0046 8.95619H13.2546V8.70619H13.0046V8.95619ZM22.6007 66.2473V66.4973H23.2065L22.777 66.0701L22.6007 66.2473ZM15.406 59.0908L15.5824 58.9136L15.156 58.4895V59.0908H15.406ZM15.406 66.2473H15.156V66.4973H15.406V66.2473ZM7.40669 68.6344V68.3844H7.15669V68.6344H7.40669ZM32.2047 68.6344H32.4547V68.3844H32.2047V68.6344ZM7.40669 72.6129H7.15669V72.8629H7.40669V72.6129ZM32.2047 72.6129V72.8629H32.4547V72.6129H32.2047ZM65.0013 72.6129H64.7513V72.8629H65.0013V72.6129ZM75.4005 72.6129V72.8629H75.6505V72.6129H75.4005ZM65.0013 62.2688V62.0188H64.7513V62.2688H65.0013ZM75.4005 62.2688H75.6505V62.0188H75.4005V62.2688ZM75.4005 59.8817V60.1317H75.6505V59.8817H75.4005ZM65.0013 59.8817H64.7513V60.1317H65.0013V59.8817ZM75.4005 49.5376H75.6505V49.2876H75.4005V49.5376ZM65.0013 49.5376V49.2876H64.7513V49.5376H65.0013ZM75.4005 36.8064H75.6505V36.5564H75.4005V36.8064ZM65.0013 36.8064V36.5564H64.7513V36.8064H65.0013ZM75.4005 47.1505V47.4005H75.6505V47.1505H75.4005ZM65.0013 47.1505H64.7513V47.4005H65.0013V47.1505ZM52.2031 49.5376V49.2876H51.9531V49.5376H52.2031ZM62.6015 49.5376H62.8515V49.2876H62.6015V49.5376ZM52.2031 59.8817H51.9531V60.1317H52.2031V59.8817ZM62.6015 59.8817V60.1317H62.8515V59.8817H62.6015ZM39.4033 62.2688V62.0188H39.1533V62.2688H39.4033ZM39.4033 72.6129H39.1533V72.8629H39.4033V72.6129ZM49.8033 62.2688H50.0533V62.0188H49.8033V62.2688ZM49.8033 72.6129V72.8629H50.0533V72.6129H49.8033ZM52.2031 62.2688V62.0188H51.9531V62.2688H52.2031ZM62.6015 62.2688H62.8515V62.0188H62.6015V62.2688ZM52.2031 72.6129H51.9531V72.8629H52.2031V72.6129ZM62.6015 72.6129V72.8629H62.8515V72.6129H62.6015ZM78.0503 72.6129V62.2688H77.5503V72.6129H78.0503ZM81 72.3629H77.8003V72.8629H81V72.3629ZM81.25 75V72.6129H80.75V75H81.25ZM65.0013 75.25H81V74.75H65.0013V75.25ZM52.2031 75.25H65.0013V74.75H52.2031V75.25ZM49.8033 75.25H52.2031V74.75H49.8033V75.25ZM37.0035 75.25H49.8033V74.75H37.0035V75.25ZM1.0064 75.25H37.0035V74.75H1.0064V75.25ZM0.756399 72.6129V75H1.2564V72.6129H0.756399ZM5.00688 72.3629H1.0064V72.8629H5.00688V72.3629ZM4.75688 66.2473V72.6129H5.25688V66.2473H4.75688ZM13.0062 65.9973H5.00688V66.4973H13.0062V65.9973ZM12.7562 17.7097V66.2473H13.2562V17.7097H12.7562ZM13.0054 17.9597H13.0062V17.4597H13.0054V17.9597ZM1.0064 17.9597H13.0054V17.4597H1.0064V17.9597ZM0.756399 15.4141V17.7097H1.2564V15.4141H0.756399ZM0.805184 15.5628L0.811583 15.5708L1.20122 15.2574L1.19482 15.2495L0.805184 15.5628ZM0.842276 15.212L0.835877 15.2175L1.16412 15.5947L1.17052 15.5891L0.842276 15.212ZM0.756399 15.3226V15.4006H1.2564V15.3226H0.756399ZM1.10319 15.0726H1.0064V15.5726H1.10319V15.0726ZM11.7377 6.37573L0.945714 15.1284L1.26067 15.5167L12.0526 6.76406L11.7377 6.37573ZM13.0054 6.31989H11.8951V6.81989H13.0054V6.31989ZM12.7554 1V6.56989H13.2554V1H12.7554ZM26.5732 0.75H13.0054V1.25H26.5732V0.75ZM26.8232 6.90568V1H26.3232V6.90568H26.8232ZM51.7052 15.0856L26.6528 6.66869L26.4935 7.14266L51.5459 15.5596L51.7052 15.0856ZM53.0022 15.0726H51.6255V15.5726H53.0022V15.0726ZM53.2522 17.7097V15.3226H52.7522V17.7097H53.2522ZM52.2023 17.9597H53.0022V17.4597H52.2023V17.9597ZM52.4523 21.6874V17.7097H51.9523V21.6874H52.4523ZM53.8238 21.4374H52.2023V21.9374H53.8238V21.4374ZM54.0738 24.0745V21.6874H53.5738V24.0745H54.0738ZM52.2023 24.3245H53.8238V23.8245H52.2023V24.3245ZM52.4523 28.0538V24.0745H51.9523V28.0538H52.4523ZM50.7512 28.3038H52.2023V27.8038H50.7512V28.3038ZM52.2047 27.9426L50.7752 27.8049L50.7273 28.3026L52.1567 28.4403L52.2047 27.9426ZM47.2043 32.9355C49.9189 32.9355 52.1674 30.9061 52.4295 28.2157L51.9319 28.1672C51.6949 30.5994 49.6637 32.4355 47.2043 32.4355V32.9355ZM41.9547 27.7124C41.9547 30.5937 44.3101 32.9355 47.2043 32.9355V32.4355C44.5838 32.4355 42.4547 30.3151 42.4547 27.7124H41.9547ZM42.7899 24.8841C42.2438 25.7289 41.9547 26.7069 41.9547 27.7124H42.4547C42.4547 26.8034 42.7159 25.9196 43.2098 25.1555L42.7899 24.8841ZM45.1522 26.1023L43.1347 24.8093L42.8649 25.2302L44.8824 26.5233L45.1522 26.1023ZM44.8537 27.7124C44.8537 27.2623 44.9823 26.8259 45.227 26.4489L44.8076 26.1767C44.5099 26.6352 44.3537 27.1663 44.3537 27.7124H44.8537ZM47.2035 30.0484C45.9061 30.0484 44.8537 28.999 44.8537 27.7124H44.3537C44.3537 29.2776 45.6324 30.5484 47.2035 30.5484V30.0484ZM49.5417 27.9365C49.4246 29.1402 48.4205 30.0484 47.2035 30.0484V30.5484C48.6759 30.5484 49.8972 29.4467 50.0393 27.9849L49.5417 27.9365ZM49.8341 27.7142L49.8213 27.7126L49.7597 28.2088L49.7725 28.2103L49.8341 27.7142ZM49.5533 24.0737V27.9623H50.0533V24.0737H49.5533ZM48.2034 24.3237H49.8033V23.8237H48.2034V24.3237ZM47.9534 21.6866V24.0737H48.4534V21.6866H47.9534ZM49.8033 21.4366H48.2034V21.9366H49.8033V21.4366ZM49.5533 17.7097V21.6866H50.0533V17.7097H49.5533ZM26.5732 17.9597H49.8033V17.4597H26.5732V17.9597ZM26.8232 66.2473V17.7097H26.3232V66.2473H26.8232ZM34.6045 65.9973H26.5732V66.4973H34.6045V65.9973ZM34.8545 72.6129V66.2473H34.3545V72.6129H34.8545ZM37.0035 72.3629H34.6045V72.8629H37.0035V72.3629ZM36.7535 59.8817V72.6129H37.2535V59.8817H36.7535ZM37.0043 59.6317H37.0035V60.1317H37.0043V59.6317ZM36.7543 47.9462V59.8817H37.2543V47.9462H36.7543ZM39.4041 47.6962H37.0043V48.1962H39.4041V47.6962ZM39.6541 59.8817V47.9462H39.1541V59.8817H39.6541ZM49.8033 59.6317H39.4041V60.1317H49.8033V59.6317ZM49.5533 48.3688V59.8817H50.0533V48.3688H49.5533ZM49.8025 48.6188H49.8033V48.1188H49.8025V48.6188ZM49.5525 40.7849V48.3688H50.0525V40.7849H49.5525ZM52.2023 40.5349H49.8025V41.0349H52.2023V40.5349ZM52.4523 47.1505V40.7849H51.9523V47.1505H52.4523ZM62.6007 46.9005H52.2023V47.4005H62.6007V46.9005ZM62.3507 21.6882V47.1505H62.8507V21.6882H62.3507ZM65.0005 21.4382H62.6007V21.9382H65.0005V21.4382ZM65.2505 34.4194V21.6882H64.7505V34.4194H65.2505ZM75.4012 34.1694H65.0005V34.6694H75.4012V34.1694ZM75.1512 8.16129V34.4194H75.6512V8.16129H75.1512ZM77.8011 7.91129H75.4012V8.41129H77.8011V7.91129ZM78.0511 48.3688V8.16129H77.5511V48.3688H78.0511ZM77.8003 48.6188H77.8011V48.1188H77.8003V48.6188ZM78.0503 49.5376V48.3688H77.5503V49.5376H78.0503ZM78.0503 59.8817V49.5376H77.5503V59.8817H78.0503ZM78.0503 62.2688V59.8817H77.5503V62.2688H78.0503ZM15.2297 19.581L23.6027 27.9095L23.9553 27.5551L15.5824 19.2265L15.2297 19.581ZM15.656 36.0609V19.4037H15.156V36.0609H15.656ZM23.6027 27.5551L15.2297 35.8836L15.5824 36.2381L23.9553 27.9095L23.6027 27.5551ZM24.1733 8.70699H15.4052V9.20699H24.1733V8.70699ZM24.4233 15.3226V8.95699H23.9233V15.3226H24.4233ZM15.4052 15.5726H24.1733V15.0726H15.4052V15.5726ZM15.1552 8.95699V15.3226H15.6552V8.95699H15.1552ZM24.3497 44.8647L17.1486 37.7018L16.796 38.0563L23.997 45.2192L24.3497 44.8647ZM23.9233 30.7154V45.0419H24.4233V30.7154H23.9233ZM17.1486 38.0563L24.3497 30.8926L23.997 30.5381L16.796 37.7018L17.1486 38.0563ZM16.92 17.8869L23.997 24.9273L24.3497 24.5728L17.2726 17.5324L16.92 17.8869ZM24.1733 17.4597H17.0963V17.9597H24.1733V17.4597ZM24.4233 24.75V17.7097H23.9233V24.75H24.4233ZM15.2297 39.8729L23.1507 47.7519L23.5033 47.3974L15.5824 39.5184L15.2297 39.8729ZM15.656 55.4537V39.6956H15.156V55.4537H15.656ZM23.1507 47.3974L15.2297 55.2764L15.5824 55.6309L23.5033 47.7519L23.1507 47.3974ZM24.4233 64.4355V50.1082H23.9233V64.4355H24.4233ZM16.7952 57.4499L23.997 64.6128L24.3496 64.2583L17.1478 57.0954L16.7952 57.4499ZM23.997 49.9309L16.7952 57.0954L17.1478 57.4499L24.3497 50.2854L23.997 49.9309ZM44.1269 15.0726H26.5732V15.5726H44.1269V15.0726ZM26.4935 9.66184L44.0473 15.5596L44.2066 15.0856L26.6528 9.18788L26.4935 9.66184ZM26.8232 15.3226V9.42486H26.3232V15.3226H26.8232ZM24.1733 3.1371H15.4052V3.6371H24.1733V3.1371ZM24.4233 6.56989V3.3871H23.9233V6.56989H24.4233ZM15.4052 6.81989H24.1733V6.31989H15.4052V6.81989ZM15.1552 3.3871V6.56989H15.6552V3.3871H15.1552ZM5.05716 15.5167L12.9069 9.15036L12.592 8.76203L4.74221 15.1284L5.05716 15.5167ZM13.0046 15.0726H4.89969V15.5726H13.0046V15.0726ZM12.7546 8.95619V15.3226H13.2546V8.95619H12.7546ZM12.7495 9.20619H13.0046V8.70619H12.7495V9.20619ZM22.777 66.0701L15.5824 58.9136L15.2297 59.268L22.4244 66.4246L22.777 66.0701ZM15.406 66.4973H22.6007V65.9973H15.406V66.4973ZM15.156 59.0908V66.2473H15.656V59.0908H15.156ZM7.40669 68.8844H32.2047V68.3844H7.40669V68.8844ZM7.65669 72.6129V68.6344H7.15669V72.6129H7.65669ZM32.2047 72.3629H7.40669V72.8629H32.2047V72.3629ZM31.9547 68.6344V72.6129H32.4547V68.6344H31.9547ZM65.0013 72.8629H75.4005V72.3629H65.0013V72.8629ZM64.7513 62.2688V72.6129H65.2513V62.2688H64.7513ZM75.4005 62.0188H65.0013V62.5188H75.4005V62.0188ZM75.6505 72.6129V62.2688H75.1505V72.6129H75.6505ZM75.4005 59.6317H65.0013V60.1317H75.4005V59.6317ZM75.1505 49.5376V59.8817H75.6505V49.5376H75.1505ZM65.0013 49.7876H75.4005V49.2876H65.0013V49.7876ZM65.2513 59.8817V49.5376H64.7513V59.8817H65.2513ZM75.4005 36.5564H65.0013V37.0564H75.4005V36.5564ZM75.6505 47.1505V36.8064H75.1505V47.1505H75.6505ZM65.0013 47.4005H75.4005V46.9005H65.0013V47.4005ZM64.7513 36.8064V47.1505H65.2513V36.8064H64.7513ZM52.2031 49.7876H62.6015V49.2876H52.2031V49.7876ZM52.4531 59.8817V49.5376H51.9531V59.8817H52.4531ZM62.6015 59.6317H52.2031V60.1317H62.6015V59.6317ZM62.3515 49.5376V59.8817H62.8515V49.5376H62.3515ZM39.1533 62.2688V72.6129H39.6533V62.2688H39.1533ZM49.8033 62.0188H39.4033V62.5188H49.8033V62.0188ZM50.0533 72.6129V62.2688H49.5533V72.6129H50.0533ZM39.4033 72.8629H49.8033V72.3629H39.4033V72.8629ZM52.2031 62.5188H62.6015V62.0188H52.2031V62.5188ZM52.4531 72.6129V62.2688H51.9531V72.6129H52.4531ZM62.6015 72.3629H52.2031V72.8629H62.6015V72.3629ZM62.3515 62.2688V72.6129H62.8515V62.2688H62.3515Z" fill="#D7499A"/>
</svg>
