<svg width="110" height="86" viewBox="0 0 110 86" fill="none" xmlns="http://www.w3.org/2000/svg">
<path fill-rule="evenodd" clip-rule="evenodd" d="M103.889 36.7389H110V18.3695H91.6667V24.4926H73.3333V18.3695H79.4444V0H61.1111V6.12315H18.3333V0H0V18.3695H6.11111V48.9852H0V67.3547H18.3333V61.2315H36.6667V67.3547H30.5556V85.7241H48.8889V79.601H91.6667V85.7241H110V67.3547H103.889V36.7389ZM97.7778 30.6158V24.4926H103.889V30.6158H97.7778ZM67.2222 6.12315V12.2463H73.3333V6.12315H67.2222ZM6.11111 12.2463V6.12315H12.2222V12.2463H6.11111ZM12.2222 61.2315V55.1084H6.11111V61.2315H12.2222ZM67.2222 55.1084H73.3333V61.2315H67.2222V55.1084ZM18.3333 55.1084H61.1111V48.9852H67.2222V18.3695H61.1111V12.2463H18.3333V18.3695H12.2222V48.9852H18.3333V55.1084ZM42.7778 73.4778V79.601H36.6667V73.4778H42.7778ZM103.889 79.601V73.4778H97.7778V79.601H103.889ZM97.7778 36.7389V67.3547H91.6667V73.4778H48.8889V67.3547H42.7778V61.2315H61.1111V67.3547H79.4444V48.9852H73.3333V30.6158H91.6667V36.7389H97.7778Z" fill="#D7499A"/>
</svg>
