<svg width="30" height="30" viewBox="0 0 30 30" fill="none" xmlns="http://www.w3.org/2000/svg">
<path fill-rule="evenodd" clip-rule="evenodd" d="M24.537 5.1738C22.0608 2.6976 18.6387 1.1679 14.8551 1.1679C11.0715 1.1679 7.6497 2.6976 5.1735 5.1738C2.6898 7.6497 1.1598 11.0799 1.1598 14.8635C1.1598 18.639 2.6898 22.0692 5.1735 24.5451C7.6497 27.0207 11.0715 28.5591 14.8551 28.5591C18.6387 28.5591 22.0608 27.0207 24.537 24.5451C27.0207 22.0692 28.5501 18.639 28.5501 14.8635C28.5501 11.0799 27.0207 7.6497 24.537 5.1738ZM14.8551 0C18.96 0 22.6695 1.6695 25.3593 4.3512C28.0488 7.041 29.7108 10.7589 29.7108 14.8635C29.7108 18.9597 28.0488 22.6779 25.3593 25.3674C22.6695 28.0491 18.96 29.7189 14.8551 29.7189C10.7502 29.7189 7.0407 28.0491 4.3509 25.3674C1.6617 22.6779 0 18.9597 0 14.8635C0 10.7589 1.6617 7.041 4.3509 4.3512C7.0407 1.6695 10.7502 0 14.8551 0Z" fill="#4D4D4F"/>
<path fill-rule="evenodd" clip-rule="evenodd" d="M15.5078 11.2883V9.89556C15.5078 9.22766 15.9502 9.06772 16.2705 9.06772C16.5807 9.06772 18.2182 9.06772 18.2182 9.06772V6.09375H15.5363C12.5531 6.09375 11.8848 8.29583 11.8848 9.72635V11.2883H10.1533V14.761H11.9037C11.9037 18.7039 11.9037 23.4375 11.9037 23.4375H15.3764C15.3764 23.4375 15.3764 18.638 15.3764 14.761H17.9454L18.0583 13.3964L18.2652 11.2883H15.5078Z" fill="#4D4D4F"/>
</svg>
