<svg width="25" height="25" viewBox="0 0 25 25" fill="none" xmlns="http://www.w3.org/2000/svg">
<path fill-rule="evenodd" clip-rule="evenodd" d="M20.4475 4.3115C18.384 2.248 15.5323 0.97325 12.3793 0.97325C9.22625 0.97325 6.37475 2.248 4.31125 4.3115C2.2415 6.37475 0.9665 9.23325 0.9665 12.3863C0.9665 15.5325 2.2415 18.391 4.31125 20.4543C6.37475 22.5173 9.22625 23.7992 12.3793 23.7992C15.5323 23.7992 18.384 22.5173 20.4475 20.4543C22.5173 18.391 23.7917 15.5325 23.7917 12.3863C23.7917 9.23325 22.5173 6.37475 20.4475 4.3115ZM12.3792 0C15.8 0 18.8913 1.39125 21.1327 3.626C23.374 5.8675 24.759 8.96575 24.759 12.3862C24.759 15.7997 23.374 18.8983 21.1327 21.1395C18.8913 23.3743 15.8 24.7658 12.3792 24.7658C8.9585 24.7658 5.86725 23.3743 3.62575 21.1395C1.38475 18.8983 0 15.7997 0 12.3862C0 8.96575 1.38475 5.8675 3.62575 3.626C5.86725 1.39125 8.9585 0 12.3792 0Z" fill="white"/>
<path fill-rule="evenodd" clip-rule="evenodd" d="M12.924 9.40694V8.2463C12.924 7.68972 13.2927 7.55643 13.5595 7.55643C13.8181 7.55643 15.1827 7.55643 15.1827 7.55643V5.07812H12.9478C10.4617 5.07812 9.90485 6.91319 9.90485 8.10529V9.40694H8.46191V12.3008H9.92058C9.92058 15.5866 9.92058 19.5312 9.92058 19.5312H12.8145C12.8145 19.5312 12.8145 15.5316 12.8145 12.3008H14.9553L15.0494 11.1636L15.2218 9.40694H12.924Z" fill="white"/>
</svg>
