<svg width="69" height="83" viewBox="0 0 69 83" fill="none" xmlns="http://www.w3.org/2000/svg">
<path d="M67 25.2768C67 29.5383 66.1662 33.1165 64.4985 36.0114C62.8309 38.9063 60.6074 40.8975 57.828 41.9849L59.8028 78.1786C59.8614 78.9427 59.6273 79.604 59.1007 80.1624C58.5741 80.7208 57.9304 81 57.1697 81H48.7438C47.9831 81 47.3395 80.7208 46.8129 80.1624C46.2863 79.604 46.0522 78.9427 46.1107 78.1786L48.0855 41.9849C45.3062 40.8975 43.0827 38.9063 41.415 36.0114C39.7474 33.1165 38.9136 29.5383 38.9136 25.2768C38.9136 21.5149 39.5353 17.8485 40.7787 14.2776C42.0221 10.7068 43.7409 7.76776 45.9352 5.46066C48.1294 3.15355 50.47 2 52.9568 2C55.4436 2 57.7841 3.15355 59.9784 5.46066C62.1726 7.76776 63.8915 10.7068 65.1349 14.2776C66.3783 17.8485 67 21.5149 67 25.2768Z" stroke="#D7499A" stroke-width="3"/>
<path d="M25.7944 5.72569C25.6582 4.39217 24.9687 3.61338 23.6927 3.61338C22.4124 3.61338 21.5867 4.44172 21.5867 5.72569L21.5878 25.2524C21.5878 26.6075 20.7171 27.4822 19.3671 27.4822H19.2653C17.9163 27.4822 17.0457 26.6075 17.0457 25.2524V5.72677C17.0457 4.44387 16.22 3.61446 14.9408 3.61446C13.6615 3.61446 12.8359 4.44279 12.837 5.72677L12.8359 25.2524C12.8359 26.6075 11.9663 27.4822 10.6163 27.4822H10.5155C9.16655 27.4822 8.29586 26.6075 8.29586 25.2524V5.72569C8.29586 4.44279 7.47021 3.61338 6.19098 3.6123C4.9139 3.6123 4.2255 4.39217 4.08825 5.72569L2.07236 29.0473C1.52443 35.3896 4.07967 40.5438 10.0297 41.9603C10.7246 42.1261 11.28 42.5656 11.2253 43.4974L8.25941 74.396C8.00528 78.696 10.508 81.0001 14.9418 81.0001C19.3757 81.0001 21.8752 78.6982 21.6243 74.3971L18.6616 43.4952C18.6069 42.5635 19.1623 42.124 19.8572 41.9592C25.8051 40.5416 28.3603 35.3885 27.8124 29.0473L25.7944 5.72569Z" stroke="#D7499A" stroke-width="3"/>
</svg>
