<svg width="90" height="57" viewBox="0 0 90 57" fill="none" xmlns="http://www.w3.org/2000/svg">
<path fill-rule="evenodd" clip-rule="evenodd" d="M89.2578 39.1484C89.7526 38.655 90 38.0707 90 37.3955V12.4652C90 11.79 89.7526 11.2057 89.2578 10.7123C88.763 10.2188 88.1771 9.97213 87.5 9.97213H73.6328C73.2682 9.55663 72.7279 8.92688 72.0117 8.08288C71.2956 7.23888 70.7617 6.61563 70.4102 6.21311C70.0586 5.81058 69.5508 5.26523 68.8867 4.57705C68.2227 3.88887 67.6628 3.37598 67.207 3.03838C66.7513 2.70079 66.1719 2.29826 65.4688 1.83082C64.7656 1.36338 64.0951 1.01929 63.457 0.79855C62.819 0.577812 62.0833 0.389536 61.25 0.233722C60.4167 0.0779073 59.5443 0 58.6328 0H52.1094C49.5312 0 47.1745 0.727135 45.0391 2.1814C42.9036 0.727135 40.5469 0 37.9688 0H33.3984C32.4609 0 31.5755 0.071415 30.7422 0.214245C29.9089 0.357075 29.1016 0.610274 28.3203 0.973841C27.5391 1.33741 26.875 1.66851 26.3281 1.96716C25.7812 2.2658 25.1237 2.75272 24.3555 3.42792C23.5872 4.10312 23.0143 4.6225 22.6367 4.98607C22.2591 5.34963 21.6406 5.97289 20.7812 6.85584C19.9219 7.73879 19.3099 8.36205 18.9453 8.72562H2.5C1.82292 8.72562 1.23698 8.97232 0.742188 9.46573C0.247396 9.95915 0 10.5435 0 11.2186V37.3955C0 38.0707 0.247396 38.655 0.742188 39.1484C1.23698 39.6418 1.82292 39.8885 2.5 39.8885H16.4844L27.6953 50.8735C28.9453 52.094 30.293 53.1457 31.7383 54.0287C33.1836 54.9116 34.707 55.6063 36.3086 56.1127C37.9102 56.6191 39.5703 56.8009 41.2891 56.6581C43.0078 56.5152 44.6484 56.0023 46.2109 55.1194C47.9297 55.2233 49.6029 54.9052 51.2305 54.165C52.8581 53.4249 54.2188 52.3667 55.3125 50.9903C56.7448 50.6787 58.0794 50.0879 59.3164 49.2179C60.5534 48.348 61.6016 47.2897 62.4609 46.0432C64.2839 45.7835 65.9115 45.1148 67.3438 44.0371C68.776 42.9594 69.8438 41.5765 70.5469 39.8885H87.5C88.1771 39.8885 88.763 39.6418 89.2578 39.1484ZM65.0391 32.6432C64.7786 32.3055 64.2773 31.6563 63.5352 30.6955C62.793 29.7346 62.2526 29.0334 61.9141 28.592C61.5755 28.1505 61.0807 27.5143 60.4297 26.6832C59.7786 25.8522 59.2253 25.1641 58.7695 24.6187C58.3138 24.0733 57.7865 23.4631 57.1875 22.7879C56.5885 22.1127 56.0026 21.4764 55.4297 20.8792L50.5469 26.3327C48.3854 28.7738 45.6706 29.9683 42.4023 29.9164C39.1341 29.8645 36.4583 28.592 34.375 26.0989C32.8906 24.3071 32.1549 22.2555 32.168 19.9443C32.181 17.633 32.9427 15.5944 34.4531 13.8285L41.3672 5.80409C40.7943 5.51843 40.1302 5.30419 39.375 5.16136C38.6198 5.01853 38.0013 4.94062 37.5195 4.92764C37.0378 4.91465 36.3021 4.92114 35.3125 4.94711C34.3229 4.97308 33.6849 4.98607 33.3984 4.98607C31.0026 4.98607 28.9453 5.84305 27.2266 7.55701L21.0547 13.7117H15V34.9025C15.1302 34.9025 15.4036 34.896 15.8203 34.883C16.237 34.87 16.5234 34.87 16.6797 34.883C16.8359 34.896 17.0898 34.9219 17.4414 34.9609C17.793 34.9998 18.0599 35.0583 18.2422 35.1362C18.4245 35.2141 18.6523 35.3245 18.9258 35.4673C19.1992 35.6101 19.4401 35.7854 19.6484 35.9932L31.25 47.3676C34.2448 50.2502 37.2005 51.6915 40.1172 51.6915C42.1484 51.6915 43.776 51.0812 45 49.8607C46.4844 50.38 47.9492 50.2762 49.3945 49.549C50.8398 48.8219 51.7839 47.7182 52.2266 46.238C54.1536 46.3938 55.8073 45.8225 57.1875 44.524C57.7083 44.0566 58.1771 43.4658 58.5938 42.7516C59.0104 42.0375 59.1927 41.3817 59.1406 40.7845C59.401 41.0442 59.9609 41.174 60.8203 41.174C61.9401 41.174 62.9427 40.9013 63.8281 40.356C64.7135 39.8106 65.3581 39.1224 65.7617 38.2914C66.1654 37.4604 66.3216 36.532 66.2305 35.5062C66.1393 34.4805 65.7422 33.5261 65.0391 32.6432ZM7.5 34.9025C8.54167 34.9025 9.27083 34.487 9.6875 33.6559C10.1042 32.8249 10.1042 31.9939 9.6875 31.1629C9.27083 30.3319 8.54167 29.9164 7.5 29.9164C6.45833 29.9164 5.72917 30.3319 5.3125 31.1629C4.89583 31.9939 4.89583 32.8249 5.3125 33.6559C5.72917 34.487 6.45833 34.9025 7.5 34.9025ZM75 34.9025H71.25C71.0417 32.9807 70.2604 31.1629 68.9062 29.449C68.6198 29.0594 67.7799 27.9622 66.3867 26.1574C64.9935 24.3525 63.9193 22.9826 63.1641 22.0478C62.6432 21.4245 61.862 20.5416 60.8203 19.3989C59.7786 18.2563 59.0495 17.4382 58.6328 16.9448C58.8932 16.1398 58.7826 15.4062 58.3008 14.744C57.819 14.0817 57.207 13.7312 56.4648 13.6922C55.7227 13.6533 55.026 13.9324 54.375 14.5297L46.8359 23.0216C45.6901 24.3201 44.2448 24.9563 42.5 24.9303C40.7552 24.9044 39.3229 24.2292 38.2031 22.9047C37.5 22.0478 37.1484 21.0739 37.1484 19.9832C37.1484 18.8925 37.513 17.9187 38.2422 17.0617L46.4062 7.59596C47.8906 5.85603 49.7917 4.98607 52.1094 4.98607H58.6328C61.3151 4.98607 63.5156 5.97289 65.2344 7.94654L71.3672 14.9582H75V34.9025ZM82.5 34.9025C83.5417 34.9025 84.2708 34.487 84.6875 33.6559C85.1042 32.8249 85.1042 31.9939 84.6875 31.1629C84.2708 30.3319 83.5417 29.9164 82.5 29.9164C81.4583 29.9164 80.7292 30.3319 80.3125 31.1629C79.8958 31.9939 79.8958 32.8249 80.3125 33.6559C80.7292 34.487 81.4583 34.9025 82.5 34.9025Z" fill="#D7499A"/>
</svg>
