<svg width="85" height="67" viewBox="0 0 85 67" fill="none" xmlns="http://www.w3.org/2000/svg">
<path fill-rule="evenodd" clip-rule="evenodd" d="M9.265 41.1175L42.2083 66.6132L75.1275 41.1389C81.0345 36.7571 84.422 30.0884 84.422 22.8425C84.422 10.2474 74.1612 0 61.5472 0C53.6225 0 46.3581 4.08521 42.2083 10.6485C38.0594 4.08521 30.7995 0 22.8811 0C10.2644 0 0 10.2465 0 22.8425C0 30.083 3.38747 36.7517 9.265 41.1175ZM3.57895 22.8416C3.57895 12.2163 12.2373 3.57244 22.8811 3.57244C30.5562 3.57244 37.4984 8.12576 40.5674 15.1697L42.2083 18.936L43.8493 15.1697C46.9182 8.12397 53.8649 3.57155 61.5472 3.57155C72.1865 3.57155 80.8431 12.2154 80.8431 22.8407C80.8431 28.9449 77.9817 34.5684 72.964 38.2909L42.2074 62.0911L11.4285 38.2704C6.44032 34.5649 3.57895 28.9413 3.57895 22.8416Z" fill="#D7499A"/>
<path d="M34.4867 33.165L33.8049 35.108H22.3684V31.9296H31.5466L34.1279 24.5676L40.8376 39.5711L47.8988 17.8667L53.4032 32.7237H62.3238V35.9022H51.1861L48.0948 27.5558L41.3073 48.4178L34.4867 33.165Z" fill="#D7499A"/>
</svg>
