<svg width="30" height="30" viewBox="0 0 30 30" fill="none" xmlns="http://www.w3.org/2000/svg">
<path fill-rule="evenodd" clip-rule="evenodd" d="M24.537 5.1738C22.0608 2.6976 18.6396 1.1679 14.8557 1.1679C11.0712 1.1679 7.65 2.6976 5.1738 5.1738C2.6901 7.6497 1.1598 11.0799 1.1598 14.8635C1.1598 18.639 2.6901 22.0692 5.1738 24.5451C7.65 27.0207 11.0712 28.5591 14.8557 28.5591C18.6396 28.5591 22.0608 27.0207 24.537 24.5451C27.021 22.0692 28.551 18.639 28.551 14.8635C28.551 11.0799 27.021 7.6497 24.537 5.1738ZM14.8557 0C18.96 0 22.6698 1.6695 25.3596 4.3512C28.0494 7.041 29.7108 10.7589 29.7108 14.8635C29.7108 18.9597 28.0494 22.6779 25.3596 25.3674C22.6698 28.0491 18.96 29.7189 14.8557 29.7189C10.7508 29.7189 7.0413 28.0491 4.3518 25.3674C1.6614 22.6779 0 18.9597 0 14.8635C0 10.7589 1.6614 7.041 4.3518 4.3512C7.0413 1.6695 10.7508 0 14.8557 0Z" fill="#4D4D4F"/>
<path fill-rule="evenodd" clip-rule="evenodd" d="M18.2998 11.1C18.2998 11.5962 18.7035 12 19.2 12C19.6961 12 20.0998 11.5963 20.0998 11.1C20.0998 10.6037 19.6961 10.2 19.2 10.2C18.7035 10.2 18.2998 10.6037 18.2998 11.1Z" fill="#4D4D4F"/>
<path fill-rule="evenodd" clip-rule="evenodd" d="M14.9995 17.2524C13.7582 17.2524 12.7473 16.2418 12.7473 15C12.7473 13.7587 13.7582 12.7483 14.9995 12.7483C16.2413 12.7483 17.2514 13.7587 17.2514 15C17.2514 16.2418 16.2413 17.2524 14.9995 17.2524ZM14.9995 11.1001C12.8492 11.1001 11.0996 12.8497 11.0996 15C11.0996 17.1505 12.8492 18.9001 14.9995 18.9001C17.15 18.9001 18.8996 17.1505 18.8996 15C18.8996 12.8497 17.15 11.1001 14.9995 11.1001Z" fill="#4D4D4F"/>
<path fill-rule="evenodd" clip-rule="evenodd" d="M21.1351 11.3596V18.9404C21.1351 20.1506 20.1506 21.1351 18.9405 21.1351H11.3596C10.1497 21.1351 9.16512 20.1506 9.16512 18.9404V11.3596C9.16512 10.1496 10.1497 9.16512 11.3596 9.16512H18.9405C20.1506 9.16512 21.1351 10.1497 21.1351 11.3596ZM11.3596 7.5C9.23131 7.5 7.5 9.23131 7.5 11.3596V18.9404C7.5 21.0689 9.23131 22.8 11.3596 22.8H18.9405C21.0689 22.8 22.8 21.0689 22.8 18.9404V11.3596C22.8 9.23131 21.0689 7.5 18.9405 7.5H11.3596Z" fill="#4D4D4F"/>
</svg>
