<svg width="25" height="25" viewBox="0 0 25 25" fill="none" xmlns="http://www.w3.org/2000/svg">
<path fill-rule="evenodd" clip-rule="evenodd" d="M20.4475 4.3115C18.384 2.248 15.533 0.97325 12.3798 0.97325C9.226 0.97325 6.375 2.248 4.3115 4.3115C2.24175 6.37475 0.9665 9.23325 0.9665 12.3863C0.9665 15.5325 2.24175 18.391 4.3115 20.4543C6.375 22.5173 9.226 23.7992 12.3798 23.7992C15.533 23.7992 18.384 22.5173 20.4475 20.4543C22.5175 18.391 23.7925 15.5325 23.7925 12.3863C23.7925 9.23325 22.5175 6.37475 20.4475 4.3115ZM12.3798 0C15.8 0 18.8915 1.39125 21.133 3.626C23.3745 5.8675 24.759 8.96575 24.759 12.3862C24.759 15.7997 23.3745 18.8983 21.133 21.1395C18.8915 23.3743 15.8 24.7658 12.3798 24.7658C8.959 24.7658 5.86775 23.3743 3.6265 21.1395C1.3845 18.8983 0 15.7997 0 12.3862C0 8.96575 1.3845 5.8675 3.6265 3.626C5.86775 1.39125 8.959 0 12.3798 0Z" fill="white"/>
<path fill-rule="evenodd" clip-rule="evenodd" d="M15.25 9.25002C15.25 9.66355 15.5864 10 16.0001 10C16.4136 10 16.75 9.6636 16.75 9.25002C16.75 8.83645 16.4136 8.5 16.0001 8.5C15.5864 8.5 15.25 8.83645 15.25 9.25002Z" fill="white"/>
<path fill-rule="evenodd" clip-rule="evenodd" d="M12.4999 14.3769C11.4655 14.3769 10.6231 13.5347 10.6231 12.4999C10.6231 11.4655 11.4655 10.6235 12.4999 10.6235C13.5347 10.6235 14.3765 11.4655 14.3765 12.4999C14.3765 13.5347 13.5347 14.3769 12.4999 14.3769ZM12.4999 9.25C10.708 9.25 9.25 10.708 9.25 12.4999C9.25 14.292 10.708 15.75 12.4999 15.75C14.292 15.75 15.75 14.292 15.75 12.4999C15.75 10.708 14.292 9.25 12.4999 9.25Z" fill="white"/>
<path fill-rule="evenodd" clip-rule="evenodd" d="M17.6126 9.46629V15.7837C17.6126 16.7921 16.7921 17.6126 15.7838 17.6126H9.46629C8.45805 17.6126 7.6376 16.7921 7.6376 15.7837V9.46629C7.6376 8.458 8.45805 7.6376 9.46629 7.6376H15.7838C16.7921 7.6376 17.6126 8.45805 17.6126 9.46629ZM9.46629 6.25C7.69275 6.25 6.25 7.69275 6.25 9.46629V15.7837C6.25 17.5574 7.69275 19 9.46629 19H15.7838C17.5574 19 19 17.5574 19 15.7837V9.46629C19 7.69275 17.5574 6.25 15.7838 6.25H9.46629Z" fill="white"/>
</svg>
