<svg width="30" height="30" viewBox="0 0 30 30" fill="none" xmlns="http://www.w3.org/2000/svg">
<path fill-rule="evenodd" clip-rule="evenodd" d="M24.537 5.1738C22.0608 2.6898 18.6396 1.1598 14.8557 1.1598C11.0712 1.1598 7.65 2.6898 5.1738 5.1738C2.6901 7.6497 1.1598 11.0715 1.1598 14.8551C1.1598 18.639 2.6901 22.0611 5.1738 24.5367C7.65 27.021 11.0712 28.5507 14.8557 28.5507C18.6396 28.5507 22.0608 27.021 24.537 24.5367C27.021 22.0611 28.551 18.639 28.551 14.8551C28.551 11.0715 27.021 7.6497 24.537 5.1738ZM14.8557 0C18.96 0 22.6698 1.6614 25.3596 4.3512C28.0494 7.041 29.7108 10.7508 29.7108 14.8551C29.7108 18.9597 28.0494 22.6695 25.3596 25.3593C22.6698 28.0491 18.96 29.7108 14.8557 29.7108C10.7508 29.7108 7.0413 28.0491 4.3518 25.3593C1.6614 22.6695 0 18.9597 0 14.8551C0 10.7508 1.6614 7.041 4.3518 4.3512C7.0413 1.6614 10.7508 0 14.8557 0Z" fill="#4D4D4F"/>
<path fill-rule="evenodd" clip-rule="evenodd" d="M10.0005 7.5C9.1368 7.5 8.4375 8.1993 8.4375 9.063C8.4375 9.9267 9.1368 10.626 10.0005 10.626C10.8642 10.626 11.5632 9.9267 11.5632 9.063C11.5632 8.1993 10.8642 7.5 10.0005 7.5ZM21.7713 14.7141C21.5655 13.0194 20.7927 11.9667 18.5058 11.9667C17.1648 11.9667 16.26 12.4602 15.8817 13.176H15.8406V11.9667H13.3479V20.9079H15.9558V16.4745C15.9558 15.306 16.1859 14.1795 17.6178 14.1795C19.0566 14.1795 19.1634 15.5118 19.1634 16.5564V20.9079H21.8451V15.9972C21.8451 15.5364 21.8202 15.1089 21.7713 14.7141ZM8.4375 14.3439V20.9079H11.5632V11.9667H8.4375V14.3439Z" fill="#4D4D4F"/>
</svg>
