<svg width="25" height="25" viewBox="0 0 25 25" fill="none" xmlns="http://www.w3.org/2000/svg">
<path fill-rule="evenodd" clip-rule="evenodd" d="M20.4475 4.3115C18.384 2.2415 15.533 0.9665 12.3798 0.9665C9.226 0.9665 6.375 2.2415 4.3115 4.3115C2.24175 6.37475 0.9665 9.22625 0.9665 12.3793C0.9665 15.5325 2.24175 18.3842 4.3115 20.4472C6.375 22.5175 9.226 23.7922 12.3798 23.7922C15.533 23.7922 18.384 22.5175 20.4475 20.4472C22.5175 18.3842 23.7925 15.5325 23.7925 12.3793C23.7925 9.22625 22.5175 6.37475 20.4475 4.3115ZM12.3798 0C15.8 0 18.8915 1.3845 21.133 3.626C23.3745 5.8675 24.759 8.959 24.759 12.3792C24.759 15.7997 23.3745 18.8913 21.133 21.1327C18.8915 23.3742 15.8 24.759 12.3798 24.759C8.959 24.759 5.86775 23.3742 3.6265 21.1327C1.3845 18.8913 0 15.7997 0 12.3792C0 8.959 1.3845 5.8675 3.6265 3.626C5.86775 1.3845 8.959 0 12.3798 0Z" fill="white"/>
<path fill-rule="evenodd" clip-rule="evenodd" d="M8.33375 6.25C7.614 6.25 7.03125 6.83275 7.03125 7.5525C7.03125 8.27225 7.614 8.855 8.33375 8.855C9.0535 8.855 9.636 8.27225 9.636 7.5525C9.636 6.83275 9.0535 6.25 8.33375 6.25ZM18.1427 12.2618C17.9712 10.8495 17.3273 9.97225 15.4215 9.97225C14.304 9.97225 13.55 10.3835 13.2347 10.98H13.2005V9.97225H11.1233V17.4233H13.2965V13.7288C13.2965 12.755 13.4882 11.8162 14.6815 11.8162C15.8805 11.8162 15.9695 12.9265 15.9695 13.797V17.4233H18.2043V13.331C18.2043 12.947 18.1835 12.5907 18.1427 12.2618ZM7.03125 11.9532V17.4233H9.636V9.97225H7.03125V11.9532Z" fill="white"/>
</svg>
