<svg width="65" height="65" viewBox="0 0 65 65" fill="none" xmlns="http://www.w3.org/2000/svg">
<path d="M63.9872 0.398996C64.7852 0.979353 65.1116 1.75316 64.9665 2.72042L55.681 58.4347C55.5601 59.136 55.1732 59.6801 54.5203 60.067C54.1818 60.2604 53.8069 60.3571 53.3959 60.3571C53.1299 60.3571 52.8397 60.2967 52.5253 60.1758L36.0943 53.4654L27.3166 64.1657C26.8813 64.7219 26.2889 65 25.5393 65C25.2249 65 24.9589 64.9516 24.7413 64.8549C24.2818 64.6856 23.9131 64.4015 23.635 64.0025C23.3569 63.6035 23.2179 63.1622 23.2179 62.6786V50.0195L54.5566 11.6071L15.7822 45.159L1.4549 39.2829C0.560195 38.9444 0.0765734 38.2794 0.00403018 37.2879C-0.044332 36.3207 0.342565 35.6073 1.16472 35.1479L61.5207 0.326451C61.8834 0.108817 62.2703 0 62.6814 0C63.165 0 63.6003 0.132999 63.9872 0.398996Z" fill="#D7499A"/>
</svg>
