<svg width="70" height="70" viewBox="0 0 70 70" fill="none" xmlns="http://www.w3.org/2000/svg">
<path fill-rule="evenodd" clip-rule="evenodd" d="M65.306 52.5684C68.4353 47.2059 70 41.3498 70 35C70 28.6502 68.4353 22.7941 65.306 17.4316C62.1767 12.0692 57.9308 7.82335 52.5684 4.69401C47.2059 1.56467 41.3498 0 35 0C28.6502 0 22.7941 1.56467 17.4316 4.69401C12.0692 7.82335 7.82335 12.0692 4.69401 17.4316C1.56467 22.7941 0 28.6502 0 35C0 41.3498 1.56467 47.2059 4.69401 52.5684C7.82335 57.9308 12.0692 62.1767 17.4316 65.306C22.7941 68.4353 28.6502 70 35 70C41.3498 70 47.2059 68.4353 52.5684 65.306C57.9308 62.1767 62.1767 57.9308 65.306 52.5684ZM64.1667 35C64.1667 31.0503 63.3919 27.2754 61.8424 23.6751C60.293 20.0749 58.2194 16.9759 55.6217 14.3783C53.0241 11.7806 49.9251 9.70703 46.3249 8.15755C42.7246 6.60807 38.9497 5.83333 35 5.83333C31.0503 5.83333 27.2754 6.60807 23.6751 8.15755C20.0749 9.70703 16.9759 11.7806 14.3783 14.3783C11.7806 16.9759 9.70703 20.0749 8.15755 23.6751C6.60807 27.2754 5.83333 31.0503 5.83333 35C5.83333 38.9497 6.60807 42.7246 8.15755 46.3249C9.70703 49.9251 11.7806 53.0241 14.3783 55.6217C16.9759 58.2194 20.0749 60.293 23.6751 61.8424C27.2754 63.3919 31.0503 64.1667 35 64.1667C38.9497 64.1667 42.7246 63.3919 46.3249 61.8424C49.9251 60.293 53.0241 58.2194 55.6217 55.6217C58.2194 53.0241 60.293 49.9251 61.8424 46.3249C63.3919 42.7246 64.1667 38.9497 64.1667 35ZM29.1667 23.3333C29.1667 24.9436 28.597 26.3184 27.4577 27.4577C26.3184 28.597 24.9436 29.1667 23.3333 29.1667C21.7231 29.1667 20.3483 28.597 19.209 27.4577C18.0697 26.3184 17.5 24.9436 17.5 23.3333C17.5 21.7231 18.0697 20.3483 19.209 19.209C20.3483 18.0697 21.7231 17.5 23.3333 17.5C24.9436 17.5 26.3184 18.0697 27.4577 19.209C28.597 20.3483 29.1667 21.7231 29.1667 23.3333ZM51.6797 41.7083C51.9227 40.9488 51.862 40.212 51.4974 39.498C51.1328 38.7841 50.5707 38.3056 49.8112 38.0625C49.0516 37.8194 48.3073 37.8802 47.5781 38.2448C46.849 38.6094 46.3628 39.1866 46.1198 39.9766C45.3602 42.4071 43.9551 44.3744 41.9043 45.8783C39.8535 47.3822 37.5521 48.1341 35 48.1341C32.4479 48.1341 30.1465 47.3822 28.0957 45.8783C26.0449 44.3744 24.6398 42.4071 23.8802 39.9766C23.6372 39.1866 23.1586 38.6094 22.4447 38.2448C21.7307 37.8802 20.9939 37.8194 20.2344 38.0625C19.4444 38.3056 18.8672 38.7841 18.5026 39.498C18.138 40.212 18.0773 40.9488 18.3203 41.7083C19.4444 45.3846 21.5408 48.3468 24.6094 50.5951C27.678 52.8433 31.1415 53.9674 35 53.9674C38.8585 53.9674 42.322 52.8433 45.3906 50.5951C48.4592 48.3468 50.5556 45.3846 51.6797 41.7083ZM50.791 27.4577C51.9303 26.3184 52.5 24.9436 52.5 23.3333C52.5 21.7231 51.9303 20.3483 50.791 19.209C49.6517 18.0697 48.2769 17.5 46.6667 17.5C45.0564 17.5 43.6816 18.0697 42.5423 19.209C41.403 20.3483 40.8333 21.7231 40.8333 23.3333C40.8333 24.9436 41.403 26.3184 42.5423 27.4577C43.6816 28.597 45.0564 29.1667 46.6667 29.1667C48.2769 29.1667 49.6517 28.597 50.791 27.4577Z" fill="#D7499A"/>
</svg>
