<svg width="75" height="74" viewBox="0 0 75 74" fill="none" xmlns="http://www.w3.org/2000/svg">
<path fill-rule="evenodd" clip-rule="evenodd" d="M74.8121 13.8516C74.8121 13.3646 74.5811 12.9311 74.2227 12.6555L61.7076 0.431918C61.425 0.154796 61.0439 0 60.6477 0H14.1508C13.7545 0 13.3735 0.154796 13.0902 0.431163L0.454545 12.7726C0.453788 12.7733 0.45322 12.7743 0.452652 12.7752C0.452083 12.7761 0.451515 12.7771 0.450758 12.7778C0.356061 12.8707 0.278788 12.9794 0.211364 13.0942C0.195455 13.1214 0.181061 13.1478 0.166667 13.1758C0.0636364 13.3797 0 13.6069 0 13.8516V32.6174V53.0195V71.7845C0 72.6182 0.678788 73.2947 1.51515 73.2947H73.2818C74.1182 73.2947 74.797 72.6182 74.797 71.7845V53.0187V32.6166V13.9973C74.7986 13.9822 74.8007 13.9671 74.8029 13.9519C74.8075 13.9189 74.8121 13.8858 74.8121 13.8516ZM71.7667 51.5085H3.0303V34.1268H71.7667V51.5085ZM3.0303 15.3618V31.1064V31.1072H71.7667V15.3618H3.0303ZM14.7689 3.02041H60.0288L69.5712 12.3414H5.22576L14.7689 3.02041ZM3.0303 54.5289V70.2728V70.2736H71.7667V54.5289H3.0303Z" fill="#D7499A"/>
<path fill-rule="evenodd" clip-rule="evenodd" d="M17.4288 42.664C17.4288 45.3718 15.2182 47.5752 12.5015 47.5752C9.7856 47.5752 7.57576 45.3718 7.57576 42.664C7.57576 39.957 9.7856 37.7551 12.5015 37.7551C15.2189 37.7551 17.4288 39.957 17.4288 42.664ZM14.3985 42.664C14.3985 41.6228 13.5477 40.7755 12.5015 40.7755C11.4561 40.7755 10.6061 41.6228 10.6061 42.664C10.6061 43.7068 11.4561 44.5548 12.5015 44.5548C13.5477 44.5548 14.3985 43.7068 14.3985 42.664Z" fill="#D7499A"/>
<path d="M65.1515 48.8362C65.9879 48.8362 66.6667 48.1597 66.6667 47.326V38.5102C66.6667 37.6766 65.9879 37 65.1515 37C64.3152 37 63.6364 37.6766 63.6364 38.5102V47.326C63.6364 48.1597 64.3152 48.8362 65.1515 48.8362Z" fill="#D7499A"/>
<path d="M58.3333 48.8362C59.1697 48.8362 59.8485 48.1597 59.8485 47.326V38.5102C59.8485 37.6766 59.1697 37 58.3333 37C57.497 37 56.8182 37.6766 56.8182 38.5102V47.326C56.8182 48.1597 57.4962 48.8362 58.3333 48.8362Z" fill="#D7499A"/>
<path d="M50.7576 48.8362C51.5939 48.8362 52.2727 48.1597 52.2727 47.326V38.5102C52.2727 37.6766 51.5939 37 50.7576 37C49.9212 37 49.2424 37.6766 49.2424 38.5102V47.326C49.2424 48.1597 49.9205 48.8362 50.7576 48.8362Z" fill="#D7499A"/>
<path fill-rule="evenodd" clip-rule="evenodd" d="M56.8182 23.033C56.8182 20.3252 59.028 18.1226 61.7439 18.1226C64.4606 18.1226 66.6712 20.3252 66.6712 23.033C66.6712 25.7408 64.4606 27.9434 61.7439 27.9434C59.028 27.9434 56.8182 25.7408 56.8182 23.033ZM59.8485 23.033C59.8485 24.075 60.6985 24.923 61.7439 24.923C62.7901 24.923 63.6409 24.075 63.6409 23.033C63.6409 21.9909 62.7901 21.143 61.7439 21.143C60.6985 21.143 59.8485 21.9909 59.8485 23.033Z" fill="#D7499A"/>
<path d="M9.09091 17.3674C8.25454 17.3674 7.57576 18.044 7.57576 18.8776V27.6942C7.57576 28.5278 8.25454 29.2044 9.09091 29.2044C9.92727 29.2044 10.6061 28.5278 10.6061 27.6942V18.8776C10.6061 18.044 9.92727 17.3674 9.09091 17.3674Z" fill="#D7499A"/>
<path d="M16.6667 17.3674C15.8303 17.3674 15.1515 18.044 15.1515 18.8776V27.6942C15.1515 28.5278 15.8303 29.2044 16.6667 29.2044C17.503 29.2044 18.1818 28.5278 18.1818 27.6942V18.8776C18.1818 18.044 17.5038 17.3674 16.6667 17.3674Z" fill="#D7499A"/>
<path d="M23.4848 17.3674C22.6485 17.3674 21.9697 18.044 21.9697 18.8776V27.6942C21.9697 28.5278 22.6485 29.2044 23.4848 29.2044C24.3212 29.2044 25 28.5278 25 27.6942V18.8776C25 18.044 24.3212 17.3674 23.4848 17.3674Z" fill="#D7499A"/>
<path fill-rule="evenodd" clip-rule="evenodd" d="M56.8182 62.2974C56.8182 59.5903 59.028 57.3877 61.7439 57.3877C64.4606 57.3877 66.6712 59.5903 66.6712 62.2974C66.6712 65.0052 64.4606 67.2078 61.7439 67.2078C59.028 67.2078 56.8182 65.0052 56.8182 62.2974ZM59.8485 62.2966C59.8485 63.3387 60.6985 64.1866 61.7439 64.1866C62.7901 64.1866 63.6409 63.3387 63.6409 62.2966C63.6409 61.2546 62.7901 60.4073 61.7439 60.4073C60.6985 60.4073 59.8485 61.2546 59.8485 62.2966Z" fill="#D7499A"/>
<path d="M9.09091 56.6326C8.25454 56.6326 7.57576 57.3091 7.57576 58.1428V66.9586C7.57576 67.7922 8.25454 68.4688 9.09091 68.4688C9.92727 68.4688 10.6061 67.7922 10.6061 66.9586V58.1428C10.6061 57.3084 9.92727 56.6326 9.09091 56.6326Z" fill="#D7499A"/>
<path d="M16.6667 56.6326C15.8303 56.6326 15.1515 57.3091 15.1515 58.1428V66.9586C15.1515 67.7922 15.8303 68.4688 16.6667 68.4688C17.503 68.4688 18.1818 67.7922 18.1818 66.9586V58.1428C18.1818 57.3084 17.5038 56.6326 16.6667 56.6326Z" fill="#D7499A"/>
<path d="M23.4848 56.6326C22.6485 56.6326 21.9697 57.3091 21.9697 58.1428V66.9586C21.9697 67.7922 22.6485 68.4688 23.4848 68.4688C24.3212 68.4688 25 67.7922 25 66.9586V58.1428C25 57.3084 24.3212 56.6326 23.4848 56.6326Z" fill="#D7499A"/>
</svg>
