<svg width="25" height="25" viewBox="0 0 25 25" fill="none" xmlns="http://www.w3.org/2000/svg">
<path fill-rule="evenodd" clip-rule="evenodd" d="M20.4475 4.3115C18.384 2.248 15.533 0.97325 12.3798 0.97325C9.226 0.97325 6.375 2.248 4.3115 4.3115C2.24175 6.37475 0.9665 9.23325 0.9665 12.3863C0.9665 15.5325 2.24175 18.391 4.3115 20.4543C6.375 22.5173 9.226 23.7992 12.3798 23.7992C15.533 23.7992 18.384 22.5173 20.4475 20.4543C22.5175 18.391 23.7925 15.5325 23.7925 12.3863C23.7925 9.23325 22.5175 6.37475 20.4475 4.3115ZM12.3798 0C15.8 0 18.8915 1.39125 21.133 3.626C23.3745 5.8675 24.759 8.96575 24.759 12.3862C24.759 15.7997 23.3745 18.8983 21.133 21.1395C18.8915 23.3743 15.8 24.7658 12.3798 24.7658C8.959 24.7658 5.86775 23.3743 3.6265 21.1395C1.3845 18.8983 0 15.7997 0 12.3862C0 8.96575 1.3845 5.8675 3.6265 3.626C5.86775 1.39125 8.959 0 12.3798 0Z" fill="white"/>
<path fill-rule="evenodd" clip-rule="evenodd" d="M18.8897 9.012C18.4302 9.211 17.9303 9.348 17.4025 9.4165C17.9438 9.0945 18.3547 8.60075 18.5472 7.9975C18.0468 8.29225 17.4848 8.50475 16.8953 8.62125C16.4285 8.121 15.7505 7.8125 14.9965 7.8125C13.5708 7.8125 12.4053 8.95725 12.4053 10.3623C12.4053 10.568 12.4398 10.76 12.4808 10.9453C10.3218 10.8423 8.409 9.82775 7.134 8.2785C6.91475 8.6625 6.77775 9.0945 6.77775 9.5605C6.77775 10.4515 7.24375 11.233 7.929 11.6855C7.50425 11.6785 7.1065 11.562 6.75725 11.37C6.75725 11.3837 6.75725 11.3907 6.75725 11.4042C6.75725 11.7332 6.819 12.035 6.93525 12.3228C7.25075 13.125 7.9705 13.728 8.84125 13.8995C8.6145 13.9612 8.39525 13.9953 8.1555 13.9953C7.991 13.9953 7.8265 13.9747 7.6685 13.9405C8.00475 14.955 8.95725 15.6953 10.0887 15.7228C9.19725 16.4082 8.087 16.8127 6.87375 16.8127C6.661 16.8127 6.4625 16.7987 6.25 16.7782C7.4015 17.4983 8.7655 17.923 10.2257 17.923C14.2768 17.923 16.7787 15.1195 17.4295 12.2063C17.5465 11.6855 17.601 11.1713 17.601 10.664C17.601 10.5543 17.601 10.438 17.601 10.335C18.1015 9.97175 18.5472 9.51925 18.8897 9.012Z" fill="white"/>
</svg>
