<svg width="30" height="30" viewBox="0 0 30 30" fill="none" xmlns="http://www.w3.org/2000/svg">
<path fill-rule="evenodd" clip-rule="evenodd" d="M24.537 5.1738C22.0608 2.6976 18.6396 1.1679 14.8557 1.1679C11.0712 1.1679 7.65 2.6976 5.1738 5.1738C2.6901 7.6497 1.1598 11.0799 1.1598 14.8635C1.1598 18.639 2.6901 22.0692 5.1738 24.5451C7.65 27.0207 11.0712 28.5591 14.8557 28.5591C18.6396 28.5591 22.0608 27.0207 24.537 24.5451C27.021 22.0692 28.551 18.639 28.551 14.8635C28.551 11.0799 27.021 7.6497 24.537 5.1738ZM14.8557 0C18.96 0 22.6698 1.6695 25.3596 4.3512C28.0494 7.041 29.7108 10.7589 29.7108 14.8635C29.7108 18.9597 28.0494 22.6779 25.3596 25.3674C22.6698 28.0491 18.96 29.7189 14.8557 29.7189C10.7508 29.7189 7.0413 28.0491 4.3518 25.3674C1.6614 22.6779 0 18.9597 0 14.8635C0 10.7589 1.6614 7.041 4.3518 4.3512C7.0413 1.6695 10.7508 0 14.8557 0Z" fill="#4D4D4F"/>
<path fill-rule="evenodd" clip-rule="evenodd" d="M22.6677 10.8144C22.1163 11.0532 21.5163 11.2176 20.883 11.2998C21.5325 10.9134 22.0257 10.3209 22.2567 9.597C21.6561 9.9507 20.9817 10.2057 20.2743 10.3455C19.7142 9.7452 18.9006 9.375 17.9958 9.375C16.2849 9.375 14.8863 10.7487 14.8863 12.4347C14.8863 12.6816 14.9277 12.912 14.9769 13.1343C12.3861 13.0107 10.0908 11.7933 8.5608 9.9342C8.2977 10.395 8.1333 10.9134 8.1333 11.4726C8.1333 12.5418 8.6925 13.4796 9.5148 14.0226C9.0051 14.0142 8.5278 13.8744 8.1087 13.644C8.1087 13.6605 8.1087 13.6689 8.1087 13.6851C8.1087 14.0799 8.1828 14.442 8.3223 14.7873C8.7009 15.75 9.5646 16.4736 10.6095 16.6794C10.3374 16.7535 10.0743 16.7943 9.7866 16.7943C9.5892 16.7943 9.3918 16.7697 9.2022 16.7286C9.6057 17.946 10.7487 18.8343 12.1065 18.8673C11.0367 19.6899 9.7044 20.1753 8.2485 20.1753C7.9932 20.1753 7.755 20.1585 7.5 20.1339C8.8818 20.9979 10.5186 21.5076 12.2709 21.5076C17.1321 21.5076 20.1345 18.1434 20.9154 14.6475C21.0558 14.0226 21.1212 13.4055 21.1212 12.7968C21.1212 12.6651 21.1212 12.5256 21.1212 12.402C21.7218 11.9661 22.2567 11.4231 22.6677 10.8144Z" fill="#4D4D4F"/>
</svg>
