<svg width="30" height="30" viewBox="0 0 30 30" fill="none" xmlns="http://www.w3.org/2000/svg">
<path fill-rule="evenodd" clip-rule="evenodd" d="M24.537 5.1738C22.0608 2.6976 18.6387 1.1679 14.8551 1.1679C11.0715 1.1679 7.6497 2.6976 5.1735 5.1738C2.6898 7.6497 1.1598 11.0799 1.1598 14.8635C1.1598 18.639 2.6898 22.0692 5.1735 24.5451C7.6497 27.0207 11.0715 28.5591 14.8551 28.5591C18.6387 28.5591 22.0608 27.0207 24.537 24.5451C27.0207 22.0692 28.5501 18.639 28.5501 14.8635C28.5501 11.0799 27.0207 7.6497 24.537 5.1738ZM14.8551 0C18.96 0 22.6695 1.6695 25.3593 4.3512C28.0488 7.041 29.7108 10.7589 29.7108 14.8635C29.7108 18.9597 28.0488 22.6779 25.3593 25.3674C22.6695 28.0491 18.96 29.7189 14.8551 29.7189C10.7502 29.7189 7.0407 28.0491 4.3509 25.3674C1.6617 22.6779 0 18.9597 0 14.8635C0 10.7589 1.6617 7.041 4.3509 4.3512C7.0407 1.6695 10.7502 0 14.8551 0Z" fill="#4D4D4F"/>
<path fill-rule="evenodd" clip-rule="evenodd" d="M17.3261 14.6964L13.2215 16.9086V12.4671L15.0806 13.479L17.3261 14.6964ZM22.2284 11.7021C22.2284 11.7021 22.0727 10.608 21.6197 10.131C21.0443 9.50585 20.3942 9.49775 20.1065 9.45635C17.9843 9.30005 14.801 9.30005 14.801 9.30005H14.7842C14.7842 9.30005 11.6096 9.30005 9.4868 9.45635C9.1829 9.49775 8.5412 9.50585 7.9655 10.131C7.5128 10.608 7.3571 11.7021 7.3571 11.7021C7.3571 11.7021 7.2002 12.9852 7.2002 14.2518V15.4611C7.2002 16.7442 7.3571 18.0111 7.3571 18.0111C7.3571 18.0111 7.5128 19.1052 7.9655 19.5903C8.5412 20.2236 9.2984 20.1993 9.6437 20.2647C10.8527 20.3883 14.801 20.4294 14.801 20.4294C14.801 20.4294 17.9843 20.4129 20.1065 20.2647C20.3942 20.2236 21.0443 20.2236 21.6197 19.5903C22.0727 19.1052 22.2284 18.0111 22.2284 18.0111C22.2284 18.0111 22.3763 16.7442 22.3763 15.4611V14.2518C22.3763 12.9852 22.2284 11.7021 22.2284 11.7021Z" fill="#4D4D4F"/>
</svg>
