<svg width="110" height="83" viewBox="0 0 110 83" fill="none" xmlns="http://www.w3.org/2000/svg"><path fill-rule="evenodd" clip-rule="evenodd" d="M107.476 80.205c1.683-1.688 2.524-3.717 2.524-6.087v-65.5c0-2.37-.841-4.399-2.524-6.086C105.793.844 103.77 0 101.406 0H8.594C6.23 0 4.207.844 2.524 2.532.841 4.219 0 6.248 0 8.618v65.5c0 2.37.841 4.4 2.524 6.087 1.683 1.688 3.706 2.532 6.07 2.532h92.812c2.364 0 4.387-.844 6.07-2.532zm-4.351-71.587c0-.466-.17-.87-.51-1.212a1.65 1.65 0 00-1.209-.511H8.594c-.466 0-.869.17-1.209.511-.34.342-.51.746-.51 1.212v65.5c0 .467.17.871.51 1.212.34.341.743.512 1.209.512H27.5v-5.171c0-.503.161-.916.483-1.239.323-.323.734-.485 1.236-.485h3.437c.502 0 .913.162 1.236.485.322.323.483.736.483 1.239v5.171h41.25v-5.171c0-.503.161-.916.483-1.239.323-.323.734-.485 1.236-.485h3.437c.502 0 .913.162 1.236.485.322.323.483.736.483 1.239v5.171h18.906c.466 0 .869-.17 1.209-.512.34-.34.51-.745.51-1.212v-65.5zM46.567 26.017c0 3.375-1.19 6.257-3.571 8.645-2.382 2.388-5.255 3.582-8.621 3.582-3.366 0-6.24-1.194-8.62-3.582-2.382-2.388-3.572-5.27-3.572-8.645 0-3.376 1.19-6.258 3.571-8.645 2.382-2.389 5.255-3.583 8.621-3.583 3.366 0 6.24 1.194 8.62 3.583 2.382 2.387 3.572 5.27 3.572 8.645zM55 54.027c0 2.298-.662 4.21-1.987 5.736-1.325 1.526-2.954 2.29-4.888 2.29h-27.5c-1.934 0-3.563-.764-4.888-2.29-1.325-1.526-1.987-3.438-1.987-5.736 0-2.299.161-4.408.483-6.33.323-1.92.85-3.77 1.585-5.548.734-1.777 1.817-3.178 3.25-4.201 1.432-1.023 3.168-1.535 5.21-1.535.214.143.751.467 1.61.97.86.502 1.531.888 2.015 1.157.483.27 1.119.584 1.907.943.787.36 1.557.62 2.31.781a10.71 10.71 0 002.255.242c.752 0 1.504-.08 2.256-.242a11.304 11.304 0 002.31-.78 27.35 27.35 0 001.906-.944c.484-.269 1.155-.655 2.014-1.158.86-.502 1.397-.826 1.612-.97 2.04 0 3.777.513 5.21 1.536 1.432 1.023 2.515 2.424 3.25 4.201a25.567 25.567 0 011.584 5.548c.322 1.922.483 4.031.483 6.33zm41.25-.593v-3.447c0-.503-.161-.916-.483-1.24-.323-.322-.734-.484-1.236-.484H63.594c-.502 0-.913.162-1.236.485-.322.323-.483.736-.483 1.239v3.447c0 .503.161.916.483 1.239.323.323.734.485 1.236.485H94.53c.502 0 .913-.162 1.236-.485.322-.323.483-.736.483-1.239zm0-17.021v3.016c0 .539-.188.997-.564 1.374a1.862 1.862 0 01-1.37.565H63.81c-.537 0-.994-.188-1.37-.565a1.873 1.873 0 01-.564-1.374v-3.016c0-.539.188-.997.564-1.374a1.862 1.862 0 011.37-.565h30.507c.537 0 .994.188 1.37.565.376.377.564.835.564 1.374zm0-10.558v-3.447c0-.503-.161-.916-.483-1.239-.323-.323-.734-.485-1.236-.485H63.594c-.502 0-.913.162-1.236.485-.322.323-.483.736-.483 1.239v3.447c0 .503.161.916.483 1.24.323.322.734.484 1.236.484H94.53c.502 0 .913-.162 1.236-.485.322-.323.483-.736.483-1.239z" fill="#D7499A"/></svg>