<svg width="70" height="60" viewBox="0 0 70 60" fill="none" xmlns="http://www.w3.org/2000/svg"><path fill-rule="evenodd" clip-rule="evenodd" d="M55 10v50H15V10h5V3.75c0-1.042.365-1.927 1.094-2.656C21.823.364 22.708 0 23.75 0h22.5c1.042 0 1.927.365 2.656 1.094C49.636 1.823 50 2.708 50 3.75V10h5zm-10 0H25V5h20v5zM11.25 60V10h-2.5c-2.396 0-4.453.86-6.172 2.578C.86 14.297 0 16.354 0 18.75v32.5c0 2.396.86 4.453 2.578 6.172C4.297 59.14 6.354 60 8.75 60h2.5zM70 51.25v-32.5c0-2.396-.86-4.453-2.578-6.172C65.703 10.86 63.646 10 61.25 10h-2.5v50h2.5c2.396 0 4.453-.86 6.172-2.578C69.14 55.703 70 53.646 70 51.25z" fill="#D7499A"/></svg>