<svg width="86" height="75" viewBox="0 0 86 75" fill="none" xmlns="http://www.w3.org/2000/svg"><path d="M30.071 7.25v-1.5h-1.5v1.5h1.5zm25.858 0h1.5v-1.5h-1.5v1.5zm0 8.75v1.5h1.5V16h-1.5zM30.07 16h-1.5v1.5h1.5V16zm3-3h-1.5v1.5h1.5V13zm0-2.75v-1.5h-1.5v1.5h1.5zM52.93 13v1.5h1.5V13h-1.5zm0-2.75h1.5v-1.5h-1.5v1.5zM7.01 18.522l-1.064-1.057 1.064 1.057zm0 49.456l-1.064 1.057 1.064-1.057zM18.643 70.5V72h1.5v-1.5h-1.5zm0-54.5h1.5v-1.5h-1.5V16zm-13.76.407l1.063 1.058-1.064-1.058zM21.642 13h1.5v-1.5h-1.5V13zm0 60.5V75h1.5v-1.5h-1.5zm-16.76-3.407l1.063-1.058-1.064 1.058zM28.17 5.314l1.064 1.058-1.064-1.058zM27.357 16v1.5h1.5V16h-1.5zm-5.714 0v-1.5h-1.5V16h1.5zm0 54.5h-1.5V72h1.5v-1.5zm42.714 0V72h1.5v-1.5h-1.5zm0-54.5h1.5v-1.5h-1.5V16zm-5.714 0h-1.5v1.5h1.5V16zm-.814-10.685l-1.064 1.058 1.064-1.058zM26.043 3.2l1.064 1.058L26.043 3.2zm33.914 0l1.064-1.057L59.957 3.2zm1.686 9.8h-1.5v1.5h1.5V13zm5.714 0h1.5v-1.5h-1.5V13zm0 60.5V75h1.5v-1.5h-1.5zm-48.714 0h-1.5V75h1.5v-1.5zm0-60.5v-1.5h-1.5V13h1.5zm5.714 0v1.5h1.5V13h-1.5zm40 0v-1.5h-1.5V13h1.5zm16.76 3.407l-1.063 1.058 1.064-1.058zm0 53.686l-1.063-1.058 1.064 1.058zM64.358 73.5h-1.5V75h1.5v-1.5zm3-3h-1.5V72h1.5v-1.5zm0-54.5v-1.5h-1.5V16h1.5zM78.99 67.978l1.064 1.057-1.064-1.057zm0-49.456l1.064-1.057-1.064 1.057zM31.57 5.75h-1.5v3h1.5v-3zm22.858 0H31.57v3h22.86v-3zm1.5 0h-1.5v3h1.5v-3zm1.5 3v-1.5h-3v1.5h3zm0 5.75V8.75h-3v5.75h3zm0 1.5v-1.5h-3V16h3zm-3 1.5h1.5v-3h-1.5v3zm-22.858 0h22.86v-3H31.57v3zm-1.5 0h1.5v-3h-1.5v3zm-1.5-3V16h3v-1.5h-3zm0-5.75v5.75h3V8.75h-3zm0-1.5v1.5h3v-1.5h-3zm6 5.75v-2.75h-3V13h3zm18.358-1.5H33.07v3h19.86v-3zm-1.5-1.25V13h3v-2.75h-3zm-18.358 1.5h19.86v-3H33.07v3zM8.074 19.58C9.487 18.157 11.076 17.5 13 17.5v-3c-2.738 0-5.09.988-7.054 2.965l2.128 2.114zM6 24.563C6 22.61 6.662 21 8.074 19.58l-2.128-2.115C3.982 19.44 3 21.807 3 24.563h3zm0 37.374V24.563H3v37.374h3zm2.074 4.984C6.662 65.499 6 63.89 6 61.937H3c0 2.756.982 5.122 2.946 7.098l2.128-2.114zM13 69c-1.924 0-3.513-.658-4.926-2.08l-2.128 2.115C7.911 71.012 10.262 72 13 72v-3zm5.643 0H13v3h5.643v-3zm-1.5-53v54.5h3V16h-3zM13 17.5h5.643v-3H13v3zm0-6c-3.553 0-6.665 1.318-9.181 3.85l2.127 2.115C7.911 15.488 10.262 14.5 13 14.5v-3zm7.143 0H13v3h7.143v-3zm1.5 0h-1.5v3h1.5v-3zm1.5 3V13h-3v1.5h3zm0 57.5V14.5h-3V72h3zm0 1.5V72h-3v1.5h3zm-3 1.5h1.5v-3h-1.5v3zM13 75h7.143v-3H13v3zm-9.181-3.85C6.335 73.682 9.447 75 13 75v-3c-2.738 0-5.09-.988-7.054-2.965L3.82 71.15zM0 61.937c0 3.558 1.303 6.681 3.819 9.213l2.127-2.115C3.982 67.06 3 64.693 3 61.938H0zm0-37.374v37.374h3V24.563H0zm3.819-9.213C1.303 17.881 0 21.005 0 24.563h3c0-2.756.982-5.122 2.946-7.098L3.82 15.35zm25.416-8.977c.266-.268.51-.373.908-.373V3c-1.19 0-2.203.42-3.036 1.258l2.128 2.115zm-.378.94c0-.418.111-.672.378-.94l-2.128-2.115c-.833.838-1.25 1.856-1.25 3.054h3zm0 7.187V7.312h-3V14.5h3zm0 1.5v-1.5h-3V16h3zm-3 1.5h1.5v-3h-1.5v3zm-4.214 0h4.214v-3h-4.214v3zm1.5 53V16h-3v54.5h3zM64.357 69H21.643v3h42.714v-3zm-1.5-53v54.5h3V16h-3zm-2.714 1.5h4.214v-3h-4.214v3zm-1.5 0h1.5v-3h-1.5v3zm-1.5-3V16h3v-1.5h-3zm0-7.188V14.5h3V7.312h-3zm-.378-.94c.267.269.378.523.378.94h3c0-1.198-.417-2.216-1.25-3.054l-2.128 2.115zM55.857 6c.398 0 .642.105.908.373l2.128-2.115C58.06 3.419 57.048 3 55.857 3v3zM30.143 6h25.714V3H30.143v3zm0-6c-1.983 0-3.763.733-5.164 2.143l2.128 2.115C27.94 3.419 28.952 3 30.143 3V0zm25.714 0H30.143v3h25.714V0zm5.164 2.143C59.62.733 57.84 0 55.857 0v3c1.19 0 2.203.42 3.036 1.258l2.128-2.115zm2.122 5.17c0-1.979-.722-3.76-2.122-5.17l-2.128 2.115c.833.838 1.25 1.856 1.25 3.054h3zm0 5.687V7.312h-3V13h3zm2.714-1.5h-4.214v3h4.214v-3zm1.5 0h-1.5v3h1.5v-3zm1.5 3V13h-3v1.5h3zm0 57.5V14.5h-3V72h3zm0 1.5V72h-3v1.5h3zm-3 1.5h1.5v-3h-1.5v3zm-45.714 0h45.714v-3H20.143v3zm-1.5 0h1.5v-3h-1.5v3zm-1.5-3v1.5h3V72h-3zm0-57.5V72h3V14.5h-3zm0-1.5v1.5h3V13h-3zm3-1.5h-1.5v3h1.5v-3zm4.214 0h-4.214v3h4.214v-3zm-1.5-4.188V13h3V7.312h-3zm2.122-5.169c-1.4 1.41-2.122 3.191-2.122 5.17h3c0-1.199.417-2.217 1.25-3.055L24.98 2.143zM65.857 11.5h-1.5v3h1.5v-3zm7.143 0h-7.143v3H73v-3zm9.181 3.85C79.665 12.818 76.553 11.5 73 11.5v3c2.738 0 5.09.988 7.054 2.965l2.127-2.115zM86 24.563c0-3.558-1.303-6.681-3.819-9.213l-2.127 2.115C82.018 19.44 83 21.807 83 24.563h3zm0 37.374V24.563h-3v37.374h3zm-3.819 9.213C84.698 68.618 86 65.495 86 61.937h-3c0 2.756-.982 5.122-2.946 7.098l2.127 2.115zM73 75c3.553 0 6.665-1.318 9.181-3.85l-2.127-2.115C78.089 71.012 75.738 72 73 72v3zm-7.143 0H73v-3h-7.143v3zm-1.5 0h1.5v-3h-1.5v3zm-1.5-3v1.5h3V72h-3zm0-57.5V72h3V14.5h-3zm0-1.5v1.5h3V13h-3zm6 57.5V16h-3v54.5h3zM73 69h-5.643v3H73v-3zm4.926-2.08C76.513 68.343 74.924 69 73 69v3c2.738 0 5.09-.988 7.054-2.965l-2.128-2.114zM80 61.938c0 1.953-.662 3.562-2.074 4.984l2.128 2.114C82.018 67.06 83 64.693 83 61.938h-3zm0-37.374v37.374h3V24.563h-3zm-2.074-4.983C79.338 21 80 22.61 80 24.563h3c0-2.756-.982-5.122-2.946-7.098l-2.128 2.114zM73 17.5c1.924 0 3.513.658 4.926 2.08l2.128-2.115C78.089 15.488 75.738 14.5 73 14.5v3zm-5.643 0H73v-3h-5.643v3z" fill="#D7499A"/><path stroke="#D7499A" stroke-width="3" d="M36.5 36.7h13v14.25h-13z"/><path d="M35.571 43.825h-14.9m45.197 0h-14.34" stroke="#D7499A" stroke-width="3" stroke-linecap="square"/></svg>