<svg width="19" height="19" viewBox="0 0 19 19" fill="none" xmlns="http://www.w3.org/2000/svg"><path d="M16.131 15.083c-.033.189-.112.43-.235.721-.124.292-.24.519-.347.68-.209.324-.701.62-1.476.886-.72.241-1.403.305-2.046.191a4.232 4.232 0 01-.55-.134 4.386 4.386 0 01-.58-.238 9.092 9.092 0 01-.466-.24 41.24 41.24 0 01-.545-.317 23.016 23.016 0 00-.48-.28 9.645 9.645 0 01-1.683-1.194c-.79-.71-1.58-1.627-2.37-2.755-.79-1.127-1.382-2.183-1.778-3.169a9.648 9.648 0 01-.547-1.99c-.01-.066-.042-.249-.098-.547a41.854 41.854 0 01-.112-.62 9.137 9.137 0 01-.066-.52 4.376 4.376 0 01-.024-.626c.007-.186.028-.374.06-.563.114-.643.407-1.262.88-1.857.516-.637.962-.999 1.338-1.084.188-.046.44-.077.757-.093.317-.017.57-.008.759.025.097.017.169.04.214.07.119.065.257.363.416.896.053.146.125.354.215.622s.173.512.25.73c.076.22.152.426.226.62.016.031.061.13.137.294.075.165.129.302.16.412a.7.7 0 01.02.312c-.024.14-.155.298-.39.472a5.194 5.194 0 01-.753.463c-.265.133-.515.28-.749.44-.234.162-.362.305-.384.43a.72.72 0 00.011.246c.018.1.035.178.051.23.016.054.05.147.103.279.052.131.08.205.085.22.363 1.052.826 1.981 1.391 2.788.565.806 1.28 1.56 2.144 2.26.012.01.072.061.178.156.106.094.181.158.226.191.044.033.11.075.199.127a.72.72 0 00.227.094c.126.022.304-.049.535-.214.231-.165.455-.349.67-.552.217-.204.448-.387.693-.549.245-.162.437-.231.577-.206a.69.69 0 01.286.126c.093.067.204.164.333.291.129.127.205.204.23.23.156.136.324.277.503.424.18.147.38.309.602.485.221.176.392.314.511.414.447.332.68.564.7.697a.597.597 0 01-.008.226z" fill="#4D4D4F"/></svg>