<svg width="75" height="57" viewBox="0 0 75 57" fill="none" xmlns="http://www.w3.org/2000/svg"><path fill-rule="evenodd" clip-rule="evenodd" d="M70.454 26.42C73.484 23.397 75 19.75 75 15.477c0-4.272-1.515-7.92-4.546-10.943C67.424 1.511 63.766 0 59.483 0H12.93c-.7 0-1.306.255-1.818.766-.512.51-.768 1.115-.768 1.814v29.664c0 2.472.889 4.595 2.667 6.368 1.778 1.774 3.906 2.66 6.385 2.66h28.448c2.478 0 4.607-.886 6.385-2.66 1.778-1.773 2.667-3.896 2.667-6.368v-1.29h2.586c4.283 0 7.94-1.511 10.97-4.534zM67.24 15.477c0-2.15-.754-3.977-2.263-5.481-1.508-1.505-3.34-2.257-5.495-2.257h-2.586v15.477h2.586c2.155 0 3.987-.753 5.495-2.257 1.51-1.505 2.263-3.332 2.263-5.482zM0 46.432h72.414c0 2.848-1.01 5.28-3.03 7.295-2.021 2.015-4.46 3.023-7.315 3.023H10.345c-2.856 0-5.294-1.008-7.314-3.023C1.01 51.712 0 49.28 0 46.432z" fill="#D7499A"/></svg>