<svg width="80" height="88" viewBox="0 0 80 88" fill="none" xmlns="http://www.w3.org/2000/svg"><path fill-rule="evenodd" clip-rule="evenodd" d="M35.148 7.475c-8.132 1.05-15.738 4.853-21.509 10.754l-1.442-1.442c6.033-6.164 14.164-10.23 22.82-11.279A4.987 4.987 0 0140 1.05c2.885 0 5.115 2.23 5.115 5.115 0 2.885-2.36 5.115-5.115 5.115-2.36 0-4.197-1.705-4.852-3.804zm8-1.311c0-1.705-1.443-3.148-3.148-3.148s-3.148 1.312-3.148 3.148c0 1.705 1.443 3.147 3.148 3.147s3.148-1.442 3.148-3.147z" fill="#D7499A"/><path d="M13.64 18.23l-.354.353.357.358.354-.362-.358-.35zM35.147 7.474l.477-.149-.125-.4-.416.053.063.496zm-22.951 9.312l-.358-.35-.346.354.35.35.354-.354zm22.82-11.279l.06.496.395-.047.042-.397-.498-.052zM13.996 18.58c5.692-5.822 13.196-9.573 21.215-10.608l-.129-.992C26.84 8.043 19.13 11.9 13.283 17.88l.715.7zm-2.154-1.439l1.443 1.443.707-.707-1.443-1.443-.707.707zM34.956 5.012c-8.77 1.063-17.005 5.18-23.117 11.425l.715.7C18.508 11.053 26.535 7.04 35.077 6.004l-.12-.992zM40 .549a5.487 5.487 0 00-5.48 4.907l.994.104A4.488 4.488 0 0140 1.55v-1zm5.615 5.615C45.615 3.002 43.16.549 40 .549v1c2.61 0 4.615 2.006 4.615 4.615h1zM40 11.779c3.022 0 5.615-2.445 5.615-5.615h-1c0 2.6-2.129 4.615-4.615 4.615v1zm-5.33-4.155c.707 2.263 2.707 4.155 5.33 4.155v-1c-2.098 0-3.77-1.518-4.375-3.453l-.955.298zM40 3.516c1.429 0 2.648 1.22 2.648 2.648h1c0-1.981-1.667-3.648-3.648-3.648v1zm-2.648 2.648c0-1.547 1.206-2.648 2.648-2.648v-1c-1.967 0-3.648 1.522-3.648 3.648h1zM40 8.81c-1.429 0-2.648-1.218-2.648-2.647h-1c0 1.98 1.667 3.647 3.648 3.647v-1zm2.648-2.647c0 1.429-1.22 2.647-2.648 2.647v1c1.981 0 3.648-1.666 3.648-3.647h-1z" fill="#D7499A"/><path fill-rule="evenodd" clip-rule="evenodd" d="M4.59 54.426l-1.836.525C1.704 51.41 1.18 47.606 1.05 44.065a39.19 39.19 0 013.017-15.081c-1.968-1.574-2.623-4.328-1.312-6.558.918-1.574 2.623-2.492 4.46-2.492.917 0 1.835.263 2.622.656 1.18.787 1.967 1.836 2.36 3.148.394 1.311.132 2.623-.524 3.803-.918 1.574-2.623 2.492-4.459 2.492-.393 0-.918 0-1.311-.132-1.836 4.46-2.754 9.312-2.754 14.165 0 3.54.393 6.95 1.442 10.36zM7.344 21.77c-1.18 0-2.23.656-2.754 1.574-.918 1.443-.393 3.41 1.18 4.197 1.443.918 3.41.393 4.328-1.05a2.947 2.947 0 00.263-2.36c-.263-.918-.787-1.574-1.443-1.967a3.492 3.492 0 00-1.574-.394z" fill="#D7499A"/><path d="M2.754 54.95l-.48.143.141.474.476-.136-.137-.48zm1.836-.524l.138.48.49-.14-.15-.487-.478.147zm-3.54-10.36h-.5v.018l.5-.019zm3.016-15.083l.461.193.145-.348-.294-.235-.312.39zm-1.312-6.557l.431.254.001-.002-.432-.252zm7.082-1.836l.277-.416-.025-.017-.028-.014-.224.447zm1.836 6.95l.432.253.005-.01-.437-.242zm-5.77 2.361l.158-.474-.443-.147-.178.431.463.19zM4.59 23.344l.422.269.006-.01.006-.01-.434-.249zm1.18 4.197l.269-.422-.022-.014-.023-.011-.223.447zm4.328-1.05l.422.27.007-.012-.429-.257zm.263-2.36l-.481.137.003.01.003.011.475-.158zm-1.443-1.967l.257-.429-.016-.01-.017-.008-.224.447zM2.891 55.43l1.837-.524-.275-.962-1.836.525.274.962zM.55 44.084c.132 3.574.661 7.42 1.725 11.009l.959-.284c-1.036-3.494-1.555-7.255-1.685-10.762l-1 .037zm3.054-15.293A39.688 39.688 0 00.549 44.065h1a38.696 38.696 0 012.978-14.89l-.923-.384zm-1.28-6.618c-1.45 2.463-.714 5.486 1.43 7.2l.624-.78C2.587 27.16 2.01 24.675 3.185 22.68l-.862-.507zm4.89-2.739c-2.002 0-3.878 1.002-4.892 2.74l.864.504c.822-1.41 2.356-2.244 4.027-2.244v-1zm2.846.709c-.843-.421-1.837-.709-2.847-.709v1c.826 0 1.668.238 2.4.603l.447-.894zm2.616 3.45c-.428-1.426-1.29-2.57-2.563-3.419l-.554.832c1.087.725 1.8 1.68 2.159 2.875l.958-.287zm-.567 4.19c.705-1.268 1.008-2.719.567-4.19l-.958.288c.346 1.153.124 2.325-.483 3.417l.874.486zm-4.896 2.75c2.001 0 3.877-1.002 4.891-2.74l-.864-.504c-.822 1.41-2.356 2.244-4.027 2.244v1zm-1.47-.157c.486.162 1.1.157 1.47.157v-1c-.417 0-.852-.006-1.153-.106l-.316.949zm-2.095 13.69c0-4.79.906-9.578 2.716-13.974l-.925-.38c-1.862 4.521-2.791 9.439-2.791 14.354h1zm1.42 10.213c-1.031-3.352-1.42-6.71-1.42-10.214h-1c0 3.58.397 7.04 1.464 10.508l.956-.294zm-.044-30.687c.438-.765 1.323-1.322 2.32-1.322v-1c-1.363 0-2.576.755-3.188 1.826l.868.496zm.97 3.502c-1.308-.655-1.741-2.289-.982-3.481l-.844-.537c-1.077 1.692-.46 3.992 1.379 4.912l.447-.894zm3.683-.87c-.784 1.23-2.449 1.652-3.638.895l-.537.844c1.696 1.08 3.965.451 5.018-1.203l-.843-.537zm.21-1.935a2.448 2.448 0 01-.217 1.945l.857.515c.465-.774.619-1.844.308-2.776l-.949.316zM8.66 22.593c.54.324.99.872 1.219 1.675l.961-.274c-.294-1.033-.895-1.796-1.666-2.259l-.514.858zm-1.317-.323c.438 0 .887.11 1.35.341l.448-.894a3.992 3.992 0 00-1.798-.447v1z" fill="#D7499A"/><path fill-rule="evenodd" clip-rule="evenodd" d="M11.41 60.066c1.18 2.098.787 4.59-.787 6.163 4.852 6.296 11.672 11.017 19.279 13.115l-.525 1.836c-8.131-2.23-15.213-7.213-20.327-13.9a5.262 5.262 0 01-1.967.393c-1.836 0-3.541-1.049-4.459-2.623-.656-1.311-.918-2.623-.525-3.934.263-1.312 1.18-2.36 2.361-3.017.787-.393 1.574-.655 2.492-.655 1.836 0 3.54 1.049 4.459 2.623zM4.066 61.77c-.263.787-.132 1.574.262 2.361.918 1.443 2.885 2.099 4.328 1.312 1.442-.918 1.967-2.886 1.18-4.328-.525-.918-1.574-1.574-2.754-1.574-.525 0-1.05.131-1.574.393-.656.394-1.18 1.05-1.442 1.837z" fill="#D7499A"/><path d="M10.623 66.23l-.354-.354-.31.31.268.349.396-.305zm.787-6.164l.436-.246-.004-.006-.432.252zm18.492 19.278l.48.138.139-.486-.486-.134-.133.482zm-.525 1.836l-.132.482.477.131.136-.475-.48-.138zM9.05 67.28l.397-.304-.23-.301-.352.14.185.465zm-6.426-2.23l-.447.224.007.014.008.014.432-.252zm-.525-3.934l.48.143.006-.022.005-.023-.49-.098zm2.361-3.017l-.224-.447-.01.005-.009.005.243.437zm-.131 6.033l-.447.224.011.023.014.022.422-.269zm-.262-2.36l.474.158-.474-.159zm4.59 3.672l.24.439.014-.008.014-.01-.268-.421zm1.18-4.328l.44-.24-.006-.008-.434.248zm-4.328-1.18l-.223-.448-.018.009-.016.01.257.428zm5.468 6.648c1.733-1.733 2.16-4.47.87-6.763l-.872.49c1.07 1.904.71 4.151-.705 5.566l.707.707zm19.059 12.28c-7.497-2.069-14.226-6.725-19.016-12.939l-.792.61c4.915 6.377 11.825 11.164 19.542 13.292l.266-.964zm-.177 2.455l.524-1.836-.961-.275-.525 1.836.962.275zM8.652 67.582c5.177 6.77 12.35 11.82 20.593 14.08l.264-.964C21.491 78.5 14.5 73.583 9.446 66.975l-.794.607zm-1.57.59c.724 0 1.443-.145 2.153-.43l-.371-.928a4.763 4.763 0 01-1.782.358v1zm-4.89-2.87c1 1.716 2.864 2.87 4.89 2.87v-1c-1.646 0-3.192-.944-4.027-2.375l-.864.504zm-.573-4.33c-.441 1.472-.134 2.919.557 4.3l.894-.446c-.62-1.241-.838-2.418-.493-3.568l-.958-.287zm2.597-3.31c-1.276.708-2.31 1.867-2.608 3.355l.98.196c.228-1.135 1.03-2.075 2.114-2.678l-.486-.874zm2.735-.72c-1.022 0-1.887.295-2.716.71l.448.894c.745-.373 1.453-.603 2.268-.603v-1zm4.89 2.872c-1-1.717-2.864-2.871-4.89-2.871v1c1.646 0 3.192.944 4.027 2.375l.864-.504zm-7.066 4.093c-.352-.704-.444-1.351-.235-1.978l-.949-.317c-.315.947-.145 1.874.29 2.743l.894-.448zm3.641 1.097c-1.172.64-2.864.12-3.666-1.141l-.844.537c1.034 1.624 3.276 2.416 4.99 1.482l-.48-.878zm.981-3.65c.656 1.202.22 2.884-1.01 3.667l.537.844c1.655-1.054 2.27-3.306 1.351-4.99l-.878.48zm-2.315-1.313c.998 0 1.883.557 2.32 1.322l.868-.496c-.612-1.071-1.825-1.826-3.188-1.826v1zm-1.35.34a3 3 0 011.35-.34v-1a3.99 3.99 0 00-1.797.446l.447.895zM4.54 61.93a2.892 2.892 0 011.225-1.566l-.514-.857c-.763.457-1.361 1.212-1.66 2.106l.949.317z" fill="#D7499A"/><path fill-rule="evenodd" clip-rule="evenodd" d="M44.852 80.393a36.83 36.83 0 0021.246-10.491l1.312 1.311c-6.164 6.164-14.033 10.098-22.557 11.148a4.987 4.987 0 01-4.984 4.459c-1.312 0-2.623-.656-3.541-1.574-.918-1.05-1.443-2.36-1.443-3.672 0-2.754 2.36-4.984 5.115-4.984 2.36 0 4.328 1.705 4.852 3.803zm-7.081 3.672a3.164 3.164 0 002.229.919c1.705 0 3.148-1.443 3.148-3.148S41.705 78.689 40 78.689s-3.148 1.442-3.148 3.147c0 .787.394 1.574.919 2.23z" fill="#D7499A"/><path d="M66.098 69.902l.354-.354-.354-.353-.353.353.353.354zM44.853 80.393l-.486.122.108.432.442-.058-.065-.496zm22.557-9.18l.353.354.354-.354-.354-.353-.353.353zM44.853 82.361l-.062-.497-.394.049-.042.395.498.053zm-8.525 2.885l-.376.33.01.012.012.011.354-.353zm1.442-1.18l-.39.312.017.022.02.02.353-.355zm27.975-14.518a36.33 36.33 0 01-20.958 10.35l.13.991a37.33 37.33 0 0021.535-10.634l-.707-.707zm2.018 1.311l-1.311-1.31-.707.706 1.311 1.312.707-.707zm-22.85 11.998c8.64-1.064 16.61-5.05 22.85-11.29l-.707-.707c-6.088 6.088-13.855 9.97-22.265 11.004l.123.993zM39.87 87.32a5.487 5.487 0 005.48-4.907l-.994-.105a4.487 4.487 0 01-4.486 4.012v1zm-3.895-1.72c.992.991 2.425 1.72 3.895 1.72v-1c-1.153 0-2.343-.583-3.188-1.428l-.707.707zm-1.589-4.026c0 1.444.577 2.87 1.567 4.001l.752-.658c-.846-.968-1.319-2.164-1.319-3.343h-1zM40 76.09c-3.013 0-5.615 2.437-5.615 5.484h1c0-2.462 2.12-4.484 4.615-4.484v-1zm5.337 4.182c-.576-2.307-2.733-4.182-5.337-4.182v1c2.117 0 3.895 1.535 4.367 3.425l.97-.243zM40 84.484a2.664 2.664 0 01-1.876-.772l-.707.707c.61.61 1.52 1.065 2.583 1.065v-1zm2.648-2.648c0 1.429-1.22 2.648-2.648 2.648v1c1.981 0 3.648-1.667 3.648-3.648h-1zM40 79.189c1.429 0 2.648 1.218 2.648 2.647h1c0-1.981-1.667-3.647-3.648-3.647v1zm-2.648 2.647c0-1.429 1.22-2.647 2.648-2.647v-1c-1.981 0-3.648 1.666-3.648 3.647h1zm.809 1.917c-.49-.611-.809-1.29-.809-1.917h-1c0 .947.468 1.842 1.028 2.542l.78-.625z" fill="#D7499A"/><path fill-rule="evenodd" clip-rule="evenodd" d="M68.197 24.131a4.813 4.813 0 011.311-2.23C64.525 15.083 57.18 10.23 48.918 8.263l.525-1.967c8.655 2.099 16.393 7.344 21.77 14.558.525-.263 1.18-.394 1.836-.394 1.836 0 3.541 1.05 4.46 2.623.655 1.311.786 2.623.393 3.934-.263 1.312-1.18 2.361-2.361 3.017-.787.393-1.574.656-2.492.656-1.836 0-3.54-1.05-4.459-2.623-.656-1.312-.787-2.623-.393-3.935zm7.869 2.23c.262-.787.13-1.574-.263-2.36-.524-.919-1.573-1.575-2.623-1.575-.524 0-1.049.132-1.573.394-.656.393-1.18 1.049-1.443 1.836-.262.787-.131 1.574.262 2.36.787 1.443 2.754 1.968 4.197 1.18.656-.393 1.18-1.048 1.443-1.835z" fill="#D7499A"/><path d="M69.508 21.902l.354.353.303-.302-.253-.346-.404.295zm-1.311 2.23l.479.143.001-.006-.48-.138zM48.918 8.261l-.483-.128-.132.496.5.119.115-.487zm.525-1.967l.117-.486-.475-.115-.126.472.484.13zm21.77 14.558l-.4.298.25.336.374-.187-.224-.448zm6.295 2.23l.447-.225-.007-.014-.008-.014-.432.252zm.394 3.934l-.48-.144-.006.022-.005.023.49.099zm-2.361 3.016l.224.447.01-.005.009-.005-.243-.437zm-6.95-1.967l-.448.223.007.015.008.014.432-.252zM75.802 24l.448-.224-.007-.012-.007-.012-.434.248zm.263 2.36l.474.159-.474-.158zm-4.46-3.54l-.223-.448-.017.01-.017.009.258.429zm-1.442 1.836l-.474-.158.474.158zm.262 2.36l-.447.224.004.008.004.008.44-.24zm4.197 1.18l.24.44.008-.005.01-.005-.258-.43zm-5.468-6.648a5.309 5.309 0 00-1.439 2.446l.962.275a4.31 4.31 0 011.184-2.014l-.707-.707zm-20.353-12.8c8.148 1.94 15.39 6.726 20.303 13.449l.807-.59C64.857 14.69 57.41 9.77 49.034 7.776l-.232.973zm.157-2.582l-.524 1.968.966.257.525-1.967-.967-.258zm22.655 14.388C66.17 13.25 58.334 7.936 49.56 5.809l-.235.972c8.537 2.07 16.177 7.247 21.487 14.37l.802-.597zm1.435-.595c-.716 0-1.451.142-2.06.446l.448.895c.44-.22 1.017-.34 1.612-.34v-1zm4.891 2.871c-1.001-1.716-2.865-2.87-4.89-2.87v1c1.645 0 3.192.943 4.026 2.374l.864-.504zm.44 4.33c.433-1.442.284-2.885-.425-4.302l-.894.448c.603 1.206.716 2.386.362 3.567l.957.287zm-2.596 3.31c1.276-.709 2.31-1.867 2.608-3.355l-.98-.197c-.228 1.135-1.03 2.075-2.114 2.678l.486.874zm-2.735.719c1.022 0 1.887-.294 2.716-.709l-.448-.894c-.744.372-1.453.603-2.268.603v1zm-4.89-2.871c1 1.716 2.864 2.87 4.89 2.87v-1c-1.646 0-3.192-.943-4.027-2.374l-.864.504zm-.441-4.33c-.433 1.442-.283 2.885.425 4.301l.894-.447c-.603-1.206-.716-2.387-.361-3.567l-.958-.287zm7.638.236c.353.705.444 1.352.235 1.979l.949.316c.316-.947.145-1.874-.29-2.742l-.894.447zm-2.176-1.298c.855 0 1.746.546 2.19 1.322l.867-.496c-.605-1.06-1.813-1.826-3.057-1.826v1zm-1.35.341a2.99 2.99 0 011.35-.34v-1c-.61 0-1.211.153-1.797.445l.447.895zm-1.192 1.547a2.892 2.892 0 011.226-1.566l-.515-.857c-.763.458-1.361 1.212-1.66 2.107l.95.316zm.235 1.979c-.352-.705-.444-1.352-.235-1.98l-.948-.315c-.316.947-.145 1.873.289 2.742l.894-.447zm3.51.965c-1.213.662-2.87.206-3.518-.98l-.878.478c.927 1.698 3.204 2.291 4.875 1.38l-.478-.878zm1.208-1.555a2.893 2.893 0 01-1.225 1.565l.514.858a3.891 3.891 0 001.66-2.107l-.949-.316z" fill="#D7499A"/><path fill-rule="evenodd" clip-rule="evenodd" d="M78.82 43.934c0 5.378-1.05 10.492-3.148 15.345.918.787 1.574 1.705 1.574 2.754.393 1.311.131 2.623-.525 3.803-.918 1.574-2.492 2.492-4.328 2.492-.918 0-1.836-.131-2.623-.656-1.18-.656-1.967-1.836-2.36-3.147-.394-1.312-.131-2.623.524-3.804.919-1.573 2.492-2.491 4.328-2.491.525 0 1.05 0 1.443.13 1.967-4.59 3.016-9.442 3.016-14.425 0-3.148-.393-6.296-1.18-9.312l1.967-.525c.918 3.148 1.312 6.558 1.312 9.837zm-8 22.033c1.442.918 3.54.394 4.328-1.049.524-.787.655-1.574.393-2.492-.262-.918-.787-1.574-1.443-1.967a3.492 3.492 0 00-1.573-.393c-1.18 0-2.23.655-2.755 1.573-.917 1.574-.393 3.41 1.05 4.328z" fill="#D7499A"/><path d="M75.672 59.279l-.459-.199-.146.339.28.24.325-.38zm1.574 2.754h-.5v.073l.021.07.479-.143zm-.525 3.803l.432.252.005-.01-.437-.242zm-6.95 1.836l.277-.416-.017-.011-.018-.01-.243.437zm-2.361-3.147l.479-.144-.48.144zm.524-3.804l-.432-.252-.005.01.437.242zm5.77-2.36l-.157.474.436.145.181-.422-.46-.197zm1.837-23.738l-.129-.483-.48.128.125.481.484-.126zm1.967-.525l.48-.14-.137-.469-.472.126.13.483zm-2.36 30.82l-.416-.277-.013.018-.01.02.438.24zm-4.328 1.05l-.269.421.269-.422zm4.721-3.542l.48-.137-.48.137zm-1.443-1.967l.258-.429-.017-.01-.017-.008-.224.447zm-4.328 1.18l.432.252.003-.004-.434-.248zm6.361-2.162c2.126-4.916 3.189-10.098 3.189-15.542h-1c0 5.31-1.036 10.356-3.107 15.145l.918.397zm1.615 2.556c0-1.269-.791-2.313-1.748-3.134l-.651.76c.879.753 1.399 1.544 1.399 2.374h1zm-.588 4.046c.705-1.268 1.008-2.72.567-4.19l-.958.287c.346 1.153.124 2.325-.483 3.417l.874.486zm-4.765 2.749c2.016 0 3.754-1.014 4.76-2.74l-.864-.504c-.829 1.422-2.24 2.244-3.896 2.244v1zm-2.9-.74c.907.605 1.943.74 2.9.74v-1c-.878 0-1.679-.127-2.345-.572l-.555.832zm-2.562-3.42c.42 1.401 1.274 2.706 2.597 3.441l.485-.874c-1.037-.576-1.758-1.632-2.124-2.854l-.958.287zm.566-4.19c-.704 1.269-1.007 2.72-.566 4.19l.958-.287c-.346-1.153-.124-2.325.483-3.417l-.875-.486zm4.765-2.748c-2.016 0-3.753 1.014-4.76 2.74l.864.503c.83-1.422 2.24-2.243 3.896-2.243v-1zm1.601.156c-.487-.162-1.105-.157-1.6-.157v1c.552 0 .984.006 1.284.106l.316-.949zm2.358-13.952c0 4.913-1.034 9.698-2.976 14.23l.92.394c1.992-4.65 3.056-9.569 3.056-14.623h-1zm-1.164-9.185a36.489 36.489 0 011.164 9.185h1c0-3.188-.398-6.378-1.196-9.437l-.968.252zm2.322-1.134l-1.967.525.258.966 1.967-.525-.258-.966zm1.94 10.32c0-3.317-.397-6.775-1.33-9.977l-.96.28c.901 3.094 1.29 6.455 1.29 9.697h1zm-4.61 20.744c-.643 1.178-2.412 1.635-3.62.866l-.538.844c1.677 1.067 4.104.476 5.035-1.231l-.877-.48zm.351-2.115c.221.774.116 1.41-.329 2.077l.833.554c.604-.906.761-1.844.458-2.906l-.962.275zm-1.219-1.676c.54.324.99.872 1.22 1.676l.96-.275c-.294-1.032-.894-1.796-1.665-2.259l-.515.858zm-1.316-.322c.438 0 .886.108 1.35.34l.447-.894a3.992 3.992 0 00-1.797-.446v1zm-2.32 1.321c.437-.765 1.322-1.321 2.32-1.321v-1c-1.364 0-2.577.754-3.189 1.825l.869.496zm.883 3.658c-1.225-.78-1.663-2.322-.886-3.654l-.863-.504c-1.06 1.816-.448 3.946 1.212 5.002l.537-.844z" fill="#D7499A"/><path fill-rule="evenodd" clip-rule="evenodd" d="M35.541 26.885c1.312-.787 2.885-1.18 4.459-1.18 1.574 0 3.148.393 4.459 1.18 1.18-.787 2.623-1.311 4.197-1.311 4.328 0 7.738 3.41 7.738 7.737 0 4.328-3.541 7.738-7.738 7.738a8.235 8.235 0 01-2.492-.393C44.59 42.23 42.36 43.148 40 43.148s-4.59-.919-6.164-2.492a7.636 7.636 0 01-2.492.393c-4.328 0-7.737-3.41-7.737-7.738 0-4.327 3.54-7.737 7.737-7.737 1.443 0 2.886.524 4.197 1.311zm-4.197.656c-3.147 0-5.77 2.623-5.77 5.77 0 3.148 2.492 5.77 5.77 5.64.525 0 .918 0 1.312-.131-.787-1.312-1.312-2.755-1.312-4.46 0-2.36 1.05-4.59 2.623-6.163-.787-.394-1.705-.656-2.623-.656zM40 41.18c-3.672 0-6.82-3.017-6.82-6.82 0-3.672 3.017-6.82 6.82-6.82 3.672 0 6.82 3.016 6.82 6.82 0 3.803-3.148 6.82-6.82 6.82zm14.426-7.87c0-3.147-2.623-5.77-5.77-5.77-.918 0-1.705.262-2.623.787 1.574 1.574 2.623 3.672 2.623 6.164 0 1.574-.525 3.147-1.312 4.459.525.13.918.13 1.312.13 3.147 0 5.77-2.622 5.77-5.77z" fill="#D7499A"/><path d="M35.541 26.885l-.257.429.257.154.257-.154-.257-.429zm8.918 0l-.257.429.271.163.263-.176-.277-.416zm1.705 13.77l.158-.474-.293-.097-.219.218.354.354zm-12.328 0l.354-.353-.219-.218-.293.097.158.475zm-2.492-1.704v-.5h-.02l.02.5zm1.312-.131l.158.474.591-.197-.32-.535-.43.258zm1.311-10.623l.354.353.49-.49-.62-.31-.224.447zm12.066.13l-.248-.433-.569.325.463.462.354-.353zm1.311 10.624l-.428-.258-.348.58.655.163.121-.485zM40 25.205c-1.654 0-3.318.413-4.716 1.252l.514.857c1.225-.735 2.708-1.11 4.202-1.11v-1zm4.716 1.252c-1.398-.84-3.062-1.252-4.716-1.252v1c1.494 0 2.977.374 4.202 1.109l.514-.858zm3.94-1.383c-1.687 0-3.224.562-4.474 1.395l.554.832c1.111-.74 2.459-1.227 3.92-1.227v-1zm8.238 8.237c0-4.604-3.634-8.237-8.238-8.237v1c4.052 0 7.238 3.186 7.238 7.237h1zm-8.238 8.238c4.467 0 8.238-3.628 8.238-8.238h-1c0 4.047-3.312 7.238-7.238 7.238v1zm-2.65-.419c.843.281 1.815.42 2.65.42v-1a7.738 7.738 0 01-2.334-.369l-.316.949zM40 43.647c2.488 0 4.846-.967 6.517-2.638l-.707-.707c-1.476 1.477-3.577 2.346-5.81 2.346v1zm-6.517-2.638c1.67 1.671 4.029 2.639 6.517 2.639v-1c-2.233 0-4.334-.87-5.81-2.346l-.707.707zm-2.139.54c.97 0 1.81-.14 2.65-.419l-.316-.949a7.137 7.137 0 01-2.334.368v1zm-8.237-8.238c0 4.604 3.633 8.238 8.237 8.238v-1c-4.052 0-7.237-3.186-7.237-7.238h-1zm8.237-8.237c-4.467 0-8.237 3.628-8.237 8.237h1c0-4.046 3.311-7.237 7.237-7.237v-1zm4.454 1.382c-1.36-.816-2.892-1.382-4.454-1.382v1c1.324 0 2.677.483 3.94 1.24l.514-.858zm-9.724 6.855c0-2.871 2.399-5.27 5.27-5.27v-1c-3.423 0-6.27 2.847-6.27 6.27h1zm5.25 5.14c-2.976.12-5.25-2.257-5.25-5.14h-1c0 3.413 2.709 6.283 6.29 6.14l-.04-1zm.02 0v1-1zm1.154-.106c-.303.101-.611.106-1.154.106v1c.507 0 .986.004 1.47-.157l-.316-.949zm-1.654-3.984c0 1.816.561 3.346 1.383 4.716l.858-.515c-.753-1.253-1.24-2.608-1.24-4.201h-1zm2.77-6.518c-1.658 1.657-2.77 4.01-2.77 6.518h1c0-2.214.986-4.32 2.477-5.81l-.707-.708zm-2.27.198c.826 0 1.668.237 2.4.603l.447-.894c-.843-.422-1.837-.71-2.847-.71v1zm1.336 6.32c0 4.085 3.378 7.32 7.32 7.32v-1c-3.402 0-6.32-2.8-6.32-6.32h-1zM40 27.04c-4.086 0-7.32 3.378-7.32 7.32h1c0-3.403 2.8-6.32 6.32-6.32v-1zm7.32 7.32c0-4.086-3.378-7.32-7.32-7.32v1c3.402 0 6.32 2.799 6.32 6.32h1zM40 41.68c3.942 0 7.32-3.235 7.32-7.32h-1c0 3.52-2.918 6.32-6.32 6.32v1zm8.656-13.64c2.871 0 5.27 2.399 5.27 5.27h1c0-3.423-2.847-6.27-6.27-6.27v1zm-2.375.721c.867-.496 1.569-.721 2.375-.721v-1c-1.03 0-1.903.3-2.871.853l.496.868zm2.875 5.73c0-2.642-1.115-4.864-2.77-6.518l-.707.707c1.494 1.494 2.477 3.47 2.477 5.81h1zm-1.383 4.716c.824-1.373 1.383-3.035 1.383-4.716h-1c0 1.466-.49 2.952-1.24 4.202l.857.514zm.883-.626c-.39 0-.73-.001-1.19-.116l-.243.97c.589.147 1.035.146 1.433.146v-1zm5.27-5.27c0 2.87-2.399 5.27-5.27 5.27v1c3.423 0 6.27-2.847 6.27-6.27h-1z" fill="#D7499A"/><path fill-rule="evenodd" clip-rule="evenodd" d="M64.262 49.05c.394 2.098.656 4.72.787 7.606l.262 1.18h-6.688c.07.554.102 1.144.137 1.77.03.561.063 1.152.125 1.771v1.05H21.377v-1.05c.062-.62.095-1.21.126-1.77a25.88 25.88 0 01.136-1.77h-6.688v-1.05c.262-2.885.524-5.508.787-7.607v-.13c.13-1.05.393-2.23 1.049-3.28l.131-.262c.525-.918 1.312-1.836 2.36-2.36.263-.263.656-.394 1.05-.525l5.508-1.967 2.23 4.328 5.508-1.968 5.508 10.23h1.836l5.508-10.23 5.508 1.968 2.23-4.328 5.64 1.967c.274.091.548.247.778.377.1.056.191.108.27.148.919.524 1.837 1.442 2.361 2.36v.131c.525 1.18.918 2.23 1.05 3.28v.13zm-47.337 6.557l-.007.13v-.13h.007zm4.845 0h-4.845c.133-2.435.391-4.492.649-6.295v-.263c.13-.787.393-1.574.918-2.623.393-.656.918-1.18 1.705-1.705l.787-.393 3.934-1.443 1.443 2.754c-1.18.656-2.23 1.574-2.886 2.755-.787 1.442-1.311 2.885-1.311 4.327 0 .095-.034.293-.084.581a24.75 24.75 0 00-.31 2.305zm1.574 4.72c.262-4.72.787-7.081.787-7.081v-.262c0-1.05.394-2.23 1.05-3.41.655-1.05 1.704-1.967 2.885-2.36l4.59-1.706 5.246 9.836h4.065l5.246-9.836 4.59 1.574c.394.131.656.262.918.393.787.525 1.443 1.05 1.968 1.968v.13c.524 1.05.917 1.968 1.049 2.886v.262c.262 2.099.524 4.722.787 7.607h-33.18zm34.492-7.867c.131 1.049.262 2.098.394 3.278v.13h4.852c-.131-2.49-.394-4.59-.656-6.425v-.263c-.13-.786-.393-1.573-.918-2.492v-.13c-.524-.656-1.049-1.18-1.705-1.574l-.787-.394-3.803-1.442-1.443 2.754a7.574 7.574 0 012.755 2.623v.13c.787 1.181 1.18 2.493 1.311 3.673v.131z" fill="#D7499A"/><path d="M65.05 56.656l-.5.023.002.043.01.042.487-.108zm-.788-7.607h-.5v.047l.009.045.491-.092zm1.05 8.787v.5h.623l-.135-.608-.489.108zm-6.69 0v-.5h-.566l.07.562.497-.062zm.138 1.77l-.5.028.5-.027zm.125 1.771h.5v-.025l-.002-.025-.498.05zm0 1.05v.5h.5v-.5h-.5zm-37.508 0h-.5v.5h.5v-.5zm0-1.05l-.497-.05-.003.025v.025h.5zm.126-1.77l.499.027v-.007l-.5-.02zm0 0l-.5-.028v.007l.5.02zm.136-1.77l.497.061.07-.562h-.567v.5zm-6.688 0h-.5v.5h.5v-.5zm0-1.05l-.498-.045-.002.022v.023h.5zm.787-7.607l.496.062.004-.03v-.032h-.5zm0-.13l-.496-.063-.004.031v.031h.5zm1.049-3.28l.424.265.013-.02.01-.02-.447-.224zm.131-.262l-.434-.248-.007.012-.006.013.447.223zm2.36-2.36l.224.447.073-.036.057-.058-.353-.353zm1.05-.525l.158.474.01-.003-.168-.471zm5.508-1.967l.445-.23-.2-.388-.413.147.168.47zm2.23 4.328l-.445.229.2.389.413-.147-.168-.471zm5.508-1.968l.44-.237-.204-.378-.404.144.168.471zm5.508 10.23l-.44.237.141.263h.299v-.5zm1.836 0v.5h.299l.141-.263-.44-.237zm5.508-10.23l.168-.47-.404-.145-.204.378.44.237zm5.508 1.968l-.168.47.413.148.2-.39-.445-.228zm2.23-4.328l.165-.472-.41-.143-.2.386.445.229zm5.64 1.967l-.165.472.006.002.158-.474zm.778.377l-.246.435.007.004.239-.44zm0 0l.246-.435-.007-.004-.24.439zm.27.148l.248-.435-.011-.006-.013-.007-.224.448zm2.361 2.36h.5v-.133l-.066-.115-.434.248zm0 .131h-.5v.106l.043.097.457-.203zm1.05 3.28h.5v-.032l-.005-.031-.496.062zm-47.345 6.819h-.5l1 .026-.5-.026zm0-.131v-.5h-.5v.5h.5zm4.852 0v.5h.46l.039-.459-.498-.041zm-4.196-6.295l.495.07.005-.035v-.035h-.5zm0-.263l-.493-.082-.007.04v.042h.5zm.918-2.623l-.429-.257-.01.017-.008.017.447.223zm1.705-1.705l-.224-.447-.028.014-.026.017.278.416zm.787-.393l-.173-.47-.026.01-.025.013.224.447zm3.934-1.443l.443-.232-.204-.388-.411.15.172.47zm1.443 2.754l.242.437.427-.236-.226-.433-.443.232zm-2.886 2.755l-.437-.243-.002.003.44.24zm-1.395 4.908l-.493-.085-.002.011-.002.012.497.062zm0 0l.489.105.004-.021.003-.022-.496-.062zm0 0l-.49-.105-.001.01-.002.01.493.085zm2.051-.056l.488.108.012-.053v-.055h-.5zm-.787 7.082l-.499-.028-.03.528h.53v-.5zm1.836-10.754l-.424-.265-.006.01-.007.012.437.243zm2.886-2.36l.158.474.008-.003.008-.003-.174-.469zm4.59-1.706l.44-.235-.205-.386-.41.152.175.47zm5.246 9.836l-.442.236.142.264h.3v-.5zm4.065 0v.5h.3l.141-.264-.44-.236zm5.246-9.836l.162-.473-.403-.138-.2.376.441.235zm4.59 1.574l-.162.473.004.001.158-.474zm.918.393l.245-.435-.01-.006-.011-.006-.224.447zm0 0L53 47.06l-.016-.01-.017-.01-.245.436zm1.968 1.968h.5v-.133l-.066-.115-.434.248zm0 .13h-.5v.119l.052.105.447-.223zm1.049 2.886h.5v-.036l-.005-.035-.495.071zm0 .262h-.5v.032l.004.03.496-.062zm.787 7.607v.5h.547l-.05-.545-.497.045zm1.705-4.59h.5v-.028l-.004-.028-.496.056zm-.394-3.278l.496-.062v-.002l-.496.064zm.394 3.409h-.5v.5h.5v-.5zm4.852 0v.5h.527l-.028-.526-.499.026zm-.656-6.426h-.5v.035l.005.035.495-.07zm0-.263h.5v-.041l-.007-.04-.493.081zm-.918-2.492h-.5v.133l.066.116.434-.248zm0-.13h.5v-.176l-.11-.137-.39.312zm-1.705-1.574l.258-.43-.017-.009-.017-.009-.224.448zm-.787-.394l.224-.447-.023-.011-.023-.01-.178.468zm-3.803-1.442l.177-.468-.414-.157-.206.393.443.232zm-1.443 2.754l-.442-.232-.227.432.427.237.242-.437zm2.755 2.623h.5v-.144l-.076-.121-.424.265zm0 .13h-.5v.152l.084.126.416-.277zm1.311 3.673h.5V52.3l-.003-.027-.497.055zm0 .131h-.5v.032l.004.032.496-.064zm7.713 4.174c-.132-2.899-.396-5.547-.795-7.676l-.983.184c.388 2.068.648 4.666.779 7.538l.999-.046zm.25 1.095l-.262-1.18-.976.216.262 1.18.977-.216zm-7.176.608h6.688v-1h-6.688v1zm.636 1.243c-.035-.623-.068-1.231-.14-1.805l-.992.124c.066.533.098 1.106.133 1.736l.999-.055zm.124 1.748a38.957 38.957 0 01-.124-1.748l-.999.055c.031.56.065 1.16.128 1.793l.995-.1zm.002 1.1v-1.05h-1v1.05h1zm-38.008.5h37.508v-1H21.377v1zm-.5-1.55v1.05h1v-1.05h-1zm.127-1.798a38.82 38.82 0 01-.125 1.748l.996.1c.063-.632.096-1.233.127-1.793l-.998-.055zm0 .007l.998.041-.999-.041zm.14-1.812c-.073.574-.106 1.182-.14 1.805l.998.055c.035-.63.067-1.203.134-1.736l-.993-.124zm-6.193.562h6.688v-1h-6.688v1zm-.5-1.55v1.05h1v-1.05h-1zm.79-7.668c-.263 2.107-.526 4.737-.788 7.624l.996.09c.262-2.883.524-5.5.785-7.59l-.992-.124zm-.003-.069v.131h1v-.13h-1zm1.125-3.544c-.712 1.14-.987 2.403-1.121 3.482l.992.124c.127-1.02.377-2.116.977-3.075l-.848-.53zm.108-.22l-.131.262.894.447.131-.262-.894-.447zm2.584-2.585c-1.165.583-2.015 1.588-2.571 2.56l.868.496c.494-.864 1.217-1.695 2.15-2.161l-.447-.895zm1.115-.551c-.363.12-.883.283-1.245.645l.707.707c.163-.162.43-.262.854-.404l-.316-.948zm5.498-1.964l-5.508 1.967.336.942 5.508-1.967-.336-.942zm2.842 4.57l-2.23-4.328-.888.458 2.23 4.328.888-.458zm4.896-2.21l-5.509 1.968.337.942 5.508-1.968-.336-.942zm6.116 10.464l-5.508-10.23-.88.474 5.508 10.23.88-.474zm1.396-.263h-1.836v1h1.836v-1zm5.068-9.967l-5.508 10.23.88.474 5.509-10.23-.881-.474zm6.117 1.734l-5.509-1.968-.336.942 5.508 1.968.337-.942zm1.616-4.086l-2.23 4.328.89.458 2.23-4.328-.89-.458zm6.249 1.724l-5.64-1.967-.329.944 5.64 1.967.329-.944zm.86.413c-.222-.125-.538-.306-.867-.415l-.316.948c.22.074.452.203.69.338l.493-.87zm-.007-.003l-.478.878.478-.878zm.255.14a5.93 5.93 0 01-.248-.136l-.492.87c.096.054.2.113.293.16l.447-.895zm2.571 2.56c-.569-.996-1.55-1.979-2.547-2.548l-.496.869c.84.48 1.695 1.334 2.175 2.174l.868-.496zm.066.378v-.13h-1v.13h1zm1.045 3.217c-.14-1.126-.56-2.23-1.088-3.42l-.914.406c.521 1.172.889 2.166 1.01 3.138l.992-.124zm.004.193v-.13h-1v.13h1zm-47.345 6.715l.007-.13-.998-.054-.007.13.998.054zm-.999-.157v.13h1v-.13h-1zm.507-.5h-.007v1h.007v-1zm0 1h4.845v-1h-4.845v1zm.154-6.866c-.259 1.81-.519 3.883-.653 6.338l.998.055c.133-2.414.388-4.455.645-6.252l-.99-.141zm-.005-.192v.263h1v-.263h-1zm.97-2.846c-.54 1.081-.822 1.916-.963 2.764l.986.164c.12-.726.364-1.465.872-2.481l-.894-.447zm1.875-1.898c-.834.556-1.416 1.132-1.856 1.864l.858.515c.347-.58.814-1.054 1.553-1.547l-.555-.832zm.841-.424l-.787.393.447.895.787-.394-.447-.894zm3.986-1.465l-3.934 1.443.344.938 3.934-1.442-.344-.94zm2.058 2.991l-1.443-2.754-.886.464 1.443 2.754.886-.464zm-2.891 3.23c.599-1.08 1.57-1.938 2.69-2.56l-.485-.875c-1.24.69-2.368 1.667-3.08 2.949l.875.485zm-1.25 4.084c0-1.323.483-2.68 1.251-4.088l-.878-.479c-.805 1.477-1.372 3.005-1.372 4.567h1zm-.09.667a19.1 19.1 0 00.062-.373 2.15 2.15 0 00.029-.294h-1l-.003.036a2.776 2.776 0 01-.015.107c-.014.091-.034.207-.059.353l.985.17zm.003-.024l-.992-.124.992.124zm-.008.043l-.977-.21.977.21zm-.3 2.241c.082-.981.216-1.754.304-2.26l-.985-.171c-.089.51-.23 1.32-.315 2.348l.997.083zm1.863-2.402l-.488-.108v.002l-.002.007-.005.023a12.763 12.763 0 00-.083.43c-.055.301-.13.75-.212 1.348a65.746 65.746 0 00-.496 5.352l.998.056c.13-2.347.326-4.104.488-5.27a32.838 32.838 0 01.267-1.63l.016-.079a5.85 5.85 0 00.004-.018l.001-.004-.488-.11zm-.5-.262v.262h1v-.262h-1zm1.112-3.653c-.678 1.22-1.112 2.487-1.112 3.653h1c0-.933.353-2.028.986-3.167l-.874-.486zm3.164-2.592c-1.308.436-2.444 1.44-3.15 2.57l.847.53c.605-.968 1.568-1.8 2.62-2.151l-.317-.95zm4.575-1.7l-4.59 1.705.348.938 4.59-1.705-.348-.938zm5.86 10.07l-5.245-9.836-.883.47 5.246 9.837.883-.471zm3.625-.265h-4.065v1h4.065v-1zm4.805-9.571l-5.246 9.836.882.47 5.246-9.836-.882-.47zm5.193 1.336l-4.59-1.574-.324.946 4.59 1.574.324-.946zm.98.42a6.721 6.721 0 00-.984-.421l-.316.948c.358.12.593.237.853.367l.447-.895zm.021.01l-.49.872.49-.871zm2.157 2.156c-.581-1.017-1.311-1.594-2.124-2.136l-.555.833c.76.507 1.342.98 1.81 1.799l.869-.496zm.066.379v-.131h-1v.13h1zm1.044 2.814c-.144-1.003-.57-1.983-1.097-3.038l-.895.447c.522 1.044.883 1.9 1.002 2.733l.99-.142zm.005.333v-.262h-1v.262h1zm.785 7.562c-.263-2.887-.526-5.517-.79-7.624l-.991.124c.26 2.09.523 4.706.785 7.59l.995-.09zm-33.679.545h33.18v-1h-33.18v1zm35.382-5.146a232.049 232.049 0 00-.394-3.284l-.992.124c.131 1.049.262 2.095.393 3.27l.993-.11zm.004.187v-.131h-1v.13h1zm4.352-.5H58.23v1h4.852v-1zm-1.15-5.856c.26 1.83.52 3.911.65 6.382l1-.052c-.133-2.513-.398-4.628-.66-6.471l-.99.141zm-.006-.333v.263h1v-.263h-1zm-.852-2.243c.497.868.738 1.6.859 2.326l.986-.165c-.14-.847-.424-1.69-.977-2.657l-.868.496zm-.066-.38v.131h1v-.13h-1zm-1.462-1.145c.586.352 1.067.827 1.572 1.458l.78-.625c-.544-.68-1.112-1.255-1.838-1.69l-.514.857zm-.753-.375l.787.394.447-.895-.787-.393-.447.894zm-3.757-1.422l3.803 1.443.355-.935-3.804-1.443-.354.935zm-.823 2.519l1.443-2.754-.886-.464-1.442 2.754.885.464zm2.736 2.126a8.073 8.073 0 00-2.936-2.795l-.485.874a7.075 7.075 0 012.573 2.45l.848-.53zm.076.396v-.131h-1v.13h1zm1.308 3.617c-.138-1.246-.554-2.637-1.392-3.895l-.832.555c.735 1.103 1.106 2.335 1.23 3.45l.994-.11zm.003.186v-.131h-1v.131h1zm-.004-.063l-.992.127.992-.127z" fill="#D7499A"/></svg>