<svg width="82" height="76" viewBox="0 0 82 76" fill="none" xmlns="http://www.w3.org/2000/svg"><path fill-rule="evenodd" clip-rule="evenodd" d="M77.8 62.269v10.344H81V75H1.006v-2.387h4v-6.366h8V17.71h-12v-2.296L1 15.406l.006-.005v-.078h.097L11.895 6.57h1.11V1h13.568v5.906l25.053 8.417h1.376v2.387h-.8v3.977h1.622v2.387h-1.622v3.98h-1.45l1.429.137a4.972 4.972 0 01-4.977 4.494c-2.757 0-5-2.23-5-4.973 0-.957.276-1.888.796-2.692l2.017 1.293a2.563 2.563 0 00-.413 1.4 2.595 2.595 0 002.6 2.585 2.585 2.585 0 002.587-2.337l.012.001v-3.888h-1.6v-2.387h1.6V17.71h-23.23v48.537h8.032v6.366h2.399V47.946h2.4v11.936h10.4V48.369h-.002v-7.584h2.4v6.366h10.399V21.688H65V34.42h10.4V8.161h2.4V62.27zM23.78 27.732l-8.373-8.328V36.06l8.373-8.329zM15.405 8.957h8.768v6.366h-8.768V8.957zm1.567 28.922l7.201 7.163V30.715l-7.2 7.164zm7.201-13.129l-7.077-7.04h7.077v7.04zm-.846 22.825l-7.921-7.88v15.759l7.921-7.88zm.846 2.533v14.328l-7.201-7.163 7.201-7.165zm2.4-34.785h17.554L26.573 9.425v5.898zM15.405 3.387h8.768V6.57h-8.768V3.387zm-2.655 5.57L4.9 15.322h8.105V8.956h-.256zm2.656 50.134l7.195 7.156h-7.195v-7.156zm16.799 9.543H7.407v3.979h24.798v-3.979zM75.4 72.613H65.001V62.269h10.4v10.344zM65.001 59.882h10.4V49.538H65v10.344zm0-23.076h10.4v10.345H65V36.806zm-2.4 12.732H52.204v10.344h10.398V49.538zM39.404 72.613V62.269h10.4v10.344h-10.4zm23.199-10.344h-10.4v10.344h10.398V62.269z" fill="#D7499A"/><path d="M77.8 72.613h-.25v.25h.25v-.25zm3.2 0h.25v-.25H81v.25zM81 75v.25h.25V75H81zM1.006 75h-.25v.25h.25V75zm0-2.387v-.25h-.25v.25h.25zm4 0v.25h.25v-.25h-.25zm0-6.366v-.25h-.25v.25h.25zm8 0v.25h.25v-.25h-.25zm0-48.537h.25v-.25h-.25v.25zm-12 0h-.25v.25h.25v-.25zm0-2.296h.25v-.088l-.055-.069-.195.157zM1 15.406l-.164-.189-.182.158.151.188.195-.157zm.006-.005l.165.188.085-.075v-.113h-.25zm0-.078v-.25h-.25v.25h.25zm.097 0v.25h.089l.069-.056-.158-.194zM11.895 6.57v-.25h-.088l-.07.056.158.194zm1.11 0v.25h.25v-.25h-.25zm0-5.57V.75h-.25V1h.25zm13.568 0h.25V.75h-.25V1zm0 5.906h-.25v.18l.17.057.08-.237zm25.053 8.417l-.08.237.039.013h.04v-.25zm1.376 0h.25v-.25h-.25v.25zm0 2.387v.25h.25v-.25h-.25zm-.8 0v-.25h-.25v.25h.25zm0 3.977h-.25v.25h.25v-.25zm1.622 0h.25v-.25h-.25v.25zm0 2.387v.25h.25v-.25h-.25zm-1.622 0v-.25h-.25v.25h.25zm0 3.98v.25h.25v-.25h-.25zm-1.45 0v-.25l-.025.499.024-.25zm1.429.137l.248.025.025-.25-.25-.023-.023.248zM43 25.02l.135-.21-.21-.135-.135.21.21.135zm2.017 1.293l.21.136.137-.211-.212-.136-.135.21zm4.773 1.648l.031-.248-.255-.032-.024.255.248.025zm.013.001l-.03.248.28.035v-.283h-.25zm0-3.888h.25v-.25h-.25v.25zm-1.6 0h-.25v.25h.25v-.25zm0-2.387v-.25h-.25v.25h.25zm1.6 0v.25h.25v-.25h-.25zm0-3.977h.25v-.25h-.25v.25zm-23.23 0v-.25h-.25v.25h.25zm0 48.537h-.25v.25h.25v-.25zm8.032 0h.25v-.25h-.25v.25zm0 6.366h-.25v.25h.25v-.25zm2.399 0v.25h.25v-.25h-.25zm0-12.731v-.25h-.25v.25h.25zm0 0v.25h.25v-.25h-.25zm0-11.936v-.25h-.25v.25h.25zm2.4 0h.25v-.25h-.25v.25zm0 11.936h-.25v.25h.25v-.25zm10.4 0v.25h.25v-.25h-.25zm0-11.513h.25v-.25h-.25v.25zm-.002 0h-.25v.25h.25v-.25zm0-7.584v-.25h-.25v.25h.25zm2.4 0h.25v-.25h-.25v.25zm0 6.366h-.25v.25h.25v-.25zm10.399 0v.25h.25v-.25h-.25zm0-25.463v-.25h-.25v.25h.25zm2.4 0h.25v-.25H65v.25zm0 12.731h-.25v.25H65v-.25zm10.4 0v.25h.25v-.25h-.25zm0-26.258v-.25h-.25v.25h.25zm2.4 0h.25v-.25h-.25v.25zm0 40.208v.25h.25v-.25h-.25zm0 0v-.25h-.25v.25h.25zM15.405 19.404l.176-.177-.426-.425v.602h.25zm8.373 8.328l.176.178.179-.178-.179-.177-.176.177zm-8.373 8.329h-.25v.601l.426-.424-.176-.177zm8.767-27.104h.25v-.25h-.25v.25zm-8.768 0v-.25h-.25v.25h.25zm8.768 6.366v.25h.25v-.25h-.25zm-8.768 0h-.25v.25h.25v-.25zm8.768 29.719l-.176.177.426.424v-.601h-.25zm-7.2-7.163l-.177-.177-.178.177.178.177.176-.177zm7.2-7.164h.25v-.601l-.426.424.176.177zM17.096 17.71v-.25h-.605l.429.427.176-.177zm7.077 7.04l-.176.177.426.424v-.601h-.25zm0-7.04h.25v-.25h-.25v.25zm-8.767 21.986l.176-.178-.426-.424v.602h.25zm7.921 7.879l.176.177.178-.177-.178-.178-.176.178zm-7.921 7.879h-.25v.601l.426-.424-.176-.177zm8.767 8.982l-.176.177.426.424v-.602h-.25zm0-14.328h.25v-.601l-.426.424.176.177zm-7.201 7.165l-.177-.178-.178.178.178.177.176-.177zm27.155-41.95v.25l.08-.487-.08.237zm-17.554 0h-.25v.25h.25v-.25zm0-5.898l.08-.237-.33-.11v.347h.25zm-2.4-6.038h.25v-.25h-.25v.25zm-8.768 0v-.25h-.25v.25h.25zm8.768 3.183v.25h.25v-.25h-.25zm-8.768 0h-.25v.25h.25v-.25zM4.9 15.323l-.158-.195-.547.445H4.9v-.25zm7.85-6.367v-.25h-.09l-.068.056.157.194zm.255 6.367v.25h.25v-.25h-.25zm0-6.367h.25v-.25h-.25v.25zM22.6 66.247v.25h.605l-.429-.427-.176.177zm-7.195-7.156l.176-.177-.426-.425v.602h.25zm0 7.156h-.25v.25h.25v-.25zm-8 2.387v-.25h-.25v.25h.25zm24.799 0h.25v-.25h-.25v.25zM7.407 72.613h-.25v.25h.25v-.25zm24.798 0v.25h.25v-.25h-.25zm32.796 0h-.25v.25h.25v-.25zm10.4 0v.25h.25v-.25h-.25zM65 62.269v-.25h-.25v.25H65zm10.4 0h.25v-.25h-.25v.25zm0-2.387v.25h.25v-.25h-.25zm-10.4 0h-.25v.25H65v-.25zm10.4-10.344h.25v-.25h-.25v.25zm-10.4 0v-.25h-.25v.25H65zm10.4-12.732h.25v-.25h-.25v.25zm-10.4 0v-.25h-.25v.25H65zm10.4 10.345v.25h.25v-.25h-.25zm-10.4 0h-.25v.25H65v-.25zm-12.798 2.387v-.25h-.25v.25h.25zm10.398 0h.25v-.25h-.25v.25zM52.204 59.882h-.25v.25h.25v-.25zm10.398 0v.25h.25v-.25h-.25zm-23.198 2.387v-.25h-.25v.25h.25zm0 10.344h-.25v.25h.25v-.25zm10.4-10.344h.25v-.25h-.25v.25zm0 10.344v.25h.25v-.25h-.25zm2.4-10.344v-.25h-.25v.25h.25zm10.398 0h.25v-.25h-.25v.25zM52.204 72.613h-.25v.25h.25v-.25zm10.398 0v.25h.25v-.25h-.25zm15.45 0V62.269h-.5v10.344h.5zm2.949-.25h-3.2v.5H81v-.5zM81.25 75v-2.387h-.5V75h.5zm-16.249.25H81v-.5H65.001v.5zm-12.798 0h12.798v-.5H52.203v.5zm-2.4 0h2.4v-.5h-2.4v.5zm-12.8 0h12.8v-.5h-12.8v.5zm-35.997 0h35.998v-.5H1.006v.5zm-.25-2.637V75h.5v-2.387h-.5zm4.25-.25h-4v.5h4v-.5zm-.25-6.116v6.366h.5v-6.366h-.5zm8.25-.25h-8v.5h8v-.5zm-.25-48.287v48.537h.5V17.71h-.5zm.25.25v-.5.5zm-12 0h12v-.5h-12v.5zm-.25-2.546v2.296h.5v-2.296h-.5zm.05.149l.006.008.39-.314-.007-.008-.39.314zm.036-.351l-.006.005.328.378.007-.006-.329-.377zm-.086.11v.079h.5v-.078h-.5zm.347-.25h-.097v.5h.097v-.5zm10.635-8.696L.946 15.128l.315.389 10.792-8.753-.315-.388zm1.267-.056h-1.11v.5h1.11v-.5zM12.755 1v5.57h.5V1h-.5zM26.573.75H13.005v.5h13.568v-.5zm.25 6.156V1h-.5v5.906h.5zm24.882 8.18L26.653 6.669l-.16.474 25.053 8.417.16-.474zm1.297-.013h-1.377v.5h1.377v-.5zm.25 2.637v-2.387h-.5v2.387h.5zm-1.05.25h.8v-.5h-.8v.5zm.25 3.727V17.71h-.5v3.977h.5zm1.372-.25h-1.622v.5h1.622v-.5zm.25 2.637v-2.387h-.5v2.387h.5zm-1.872.25h1.622v-.5h-1.622v.5zm.25 3.73v-3.98h-.5v3.98h.5zm-1.7.25h1.45v-.5h-1.45v.5zm1.453-.361l-1.43-.138-.048.498 1.43.137.048-.497zm-5 4.992a5.222 5.222 0 005.224-4.72l-.497-.048a4.722 4.722 0 01-4.728 4.268v.5zm-5.25-5.223c0 2.882 2.355 5.223 5.25 5.223v-.5c-2.621 0-4.75-2.12-4.75-4.723h-.5zm.835-2.828a5.2 5.2 0 00-.835 2.828h.5a4.7 4.7 0 01.755-2.556l-.42-.272zm2.362 1.218l-2.017-1.293-.27.421 2.017 1.293.27-.42zm-.298 1.61c0-.45.128-.886.373-1.263l-.42-.272c-.297.458-.453.99-.453 1.535h.5zm2.35 2.336a2.345 2.345 0 01-2.35-2.336h-.5a2.845 2.845 0 002.85 2.836v-.5zm2.338-2.111a2.335 2.335 0 01-2.339 2.111v.5a2.835 2.835 0 002.836-2.563l-.497-.049zm.292-.223l-.013-.001-.061.496.013.001.061-.496zm-.28-3.64v3.888h.5v-3.888h-.5zm-1.35.25h1.6v-.5h-1.6v.5zm-.25-2.637v2.387h.5v-2.387h-.5zm1.85-.25h-1.6v.5h1.6v-.5zm-.25-3.727v3.977h.5V17.71h-.5zm-22.98.25h23.23v-.5h-23.23v.5zm.25 48.287V17.71h-.5v48.537h.5zm7.78-.25h-8.03v.5h8.03v-.5zm.25 6.616v-6.366h-.5v6.366h.5zm2.15-.25h-2.4v.5h2.4v-.5zm-.25-12.481v12.73h.5v-12.73h-.5zm.25-.25v.5-.5zm-.25-11.686v11.936h.5V47.946h-.5zm2.65-.25h-2.4v.5h2.4v-.5zm.25 12.186V47.946h-.5v11.936h.5zm10.15-.25h-10.4v.5h10.4v-.5zm-.25-11.263v11.513h.5V48.369h-.5zm.248.25h.001v-.5.5zm-.25-7.834v7.584h.5v-7.584h-.5zm2.65-.25h-2.4v.5h2.4v-.5zm.25 6.616v-6.366h-.5v6.366h.5zm10.149-.25H52.202v.5h10.399v-.5zm-.25-25.213v25.463h.5V21.688h-.5zm2.65-.25h-2.4v.5H65v-.5zm.25 12.981V21.69h-.5v12.73h.5zm10.15-.25h-10.4v.5h10.4v-.5zm-.25-26.008V34.42h.5V8.161h-.5zm2.65-.25h-2.4v.5h2.4v-.5zm.25 40.458V8.16h-.5v40.21h.5zm-.25.25v-.5.5zm.25.919v-1.17h-.5v1.17h.5zm0 10.344V49.538h-.5v10.344h.5zm0 2.387v-2.387h-.5v2.387h.5zM15.23 19.58l8.373 8.329.352-.355-8.373-8.328-.352.354zm.426 16.48V19.404h-.5V36.06h.5zm7.947-8.506l-8.373 8.329.352.354 8.373-8.328-.352-.355zm.57-18.848h-8.768v.5h8.768v-.5zm.25 6.616V8.957h-.5v6.366h.5zm-9.018.25h8.768v-.5h-8.768v.5zm-.25-6.616v6.366h.5V8.957h-.5zm9.195 35.908l-7.201-7.163-.353.354 7.201 7.163.353-.354zm-.427-14.15v14.327h.5V30.715h-.5zm-6.774 7.341l7.2-7.163-.352-.355-7.201 7.164.353.354zm-.229-20.17l7.077 7.041.353-.354-7.077-7.04-.353.354zm7.253-.426h-7.077v.5h7.077v-.5zm.25 7.29v-7.04h-.5v7.04h.5zM15.23 39.873l7.92 7.879.353-.355-7.92-7.879-.353.355zm.426 15.58V39.697h-.5v15.758h.5zm7.495-8.056l-7.921 7.88.352.354 7.921-7.88-.352-.354zm1.272 17.039V50.108h-.5v14.328h.5zm-7.628-6.986l7.202 7.163.353-.355-7.202-7.163-.353.355zm7.202-7.52l-7.202 7.165.353.355 7.202-7.165-.353-.354zm20.13-34.857H26.573v.5h17.554v-.5zM26.493 9.662l17.554 5.898.16-.474-17.554-5.898-.16.474zm.33 5.66V9.426h-.5v5.898h.5zm-2.65-12.185h-8.768v.5h8.768v-.5zm.25 3.433V3.387h-.5V6.57h.5zm-9.018.25h8.768v-.5h-8.768v.5zm-.25-3.433V6.57h.5V3.387h-.5zM5.057 15.517l7.85-6.367-.315-.388-7.85 6.366.315.389zm7.948-.444H4.9v.5h8.105v-.5zm-.25-6.117v6.367h.5V8.956h-.5zm-.006.25h.256v-.5h-.256v.5zM22.777 66.07l-7.195-7.156-.352.354 7.194 7.157.353-.355zm-7.371.427h7.195v-.5h-7.195v.5zm-.25-7.406v7.156h.5v-7.156h-.5zm-7.75 9.793h24.799v-.5H7.407v.5zm.25 3.729v-3.979h-.5v3.979h.5zm24.549-.25H7.407v.5h24.798v-.5zm-.25-3.729v3.979h.5v-3.979h-.5zM65 72.863h10.4v-.5H65v.5zm-.25-10.594v10.344h.5V62.269h-.5zm10.65-.25H65v.5h10.4v-.5zm.25 10.594V62.269h-.5v10.344h.5zm-.25-12.981H65v.5h10.4v-.5zm-.25-10.094v10.344h.5V49.538h-.5zm-10.15.25h10.4v-.5H65v.5zm.25 10.094V49.538h-.5v10.344h.5zM75.4 36.556H65v.5h10.4v-.5zm.25 10.595V36.806h-.5v10.345h.5zM65 47.4h10.4v-.5H65v.5zm-.25-10.595V47.15h.5V36.806h-.5zM52.203 49.788h10.398v-.5H52.204v.5zm.25 10.094V49.538h-.5v10.344h.5zm10.148-.25H52.204v.5h10.398v-.5zm-.25-10.094v10.344h.5V49.538h-.5zm-23.198 12.73v10.345h.5V62.269h-.5zm10.65-.25h-10.4v.5h10.4v-.5zm.25 10.595V62.269h-.5v10.344h.5zm-10.65.25h10.4v-.5h-10.4v.5zm12.8-10.344h10.398v-.5H52.204v.5zm.25 10.094V62.269h-.5v10.344h.5zm10.148-.25H52.204v.5h10.398v-.5zm-.25-10.094v10.344h.5V62.269h-.5z" fill="#D7499A"/></svg>