<svg width="110" height="86" viewBox="0 0 110 86" fill="none" xmlns="http://www.w3.org/2000/svg"><path fill-rule="evenodd" clip-rule="evenodd" d="M103.889 36.739H110v-18.37H91.667v6.124H73.333V18.37h6.111V0H61.111v6.123H18.333V0H0v18.37h6.111v30.615H0v18.37h18.333V61.23h18.334v6.124h-6.111v18.37h18.333V79.6h42.778v6.123H110v-18.37h-6.111V36.74zm-6.111-6.123v-6.123h6.111v6.123h-6.111zM67.222 6.123v6.123h6.111V6.123h-6.11zm-61.11 6.123V6.123h6.11v6.123h-6.11zm6.11 48.986v-6.124h-6.11v6.123h6.11zm55-6.124h6.111v6.123h-6.11v-6.123zm-48.889 0h42.778v-6.123h6.111V18.37h-6.11v-6.123h-42.78v6.123h-6.11v30.616h6.11v6.123zm24.445 18.37V79.6h-6.111v-6.123h6.11zm61.111 6.123v-6.123h-6.111V79.6h6.111zm-6.111-42.862v30.616h-6.111v6.123H48.889v-6.123h-6.111V61.23H61.11v6.124h18.333v-18.37h-6.11v-18.37h18.333v6.124h6.11z" fill="#D7499A"/></svg>