<svg width="25" height="25" viewBox="0 0 25 25" fill="none" xmlns="http://www.w3.org/2000/svg"><path fill-rule="evenodd" clip-rule="evenodd" d="M20.448 4.311A11.37 11.37 0 0012.379.973a11.37 11.37 0 00-8.068 3.338 11.365 11.365 0 00-3.345 8.075c0 3.147 1.275 6.005 3.345 8.068A11.378 11.378 0 0012.38 23.8c3.153 0 6.005-1.282 8.069-3.345a11.36 11.36 0 003.344-8.068c0-3.153-1.275-6.011-3.345-8.074zM12.379 0c3.421 0 6.512 1.391 8.754 3.626a12.351 12.351 0 013.626 8.76 12.35 12.35 0 01-3.626 8.754 12.362 12.362 0 01-8.754 3.626c-3.42 0-6.512-1.392-8.753-3.626A12.347 12.347 0 010 12.386c0-3.42 1.385-6.518 3.626-8.76A12.362 12.362 0 0112.379 0z" fill="#fff"/><path fill-rule="evenodd" clip-rule="evenodd" d="M12.924 9.407v-1.16c0-.557.369-.69.636-.69h1.623v-2.48h-2.235c-2.486 0-3.043 1.835-3.043 3.027v1.302H8.462V12.3H9.92v7.23h2.894V12.3h2.14l.094-1.137.173-1.757h-2.298z" fill="#fff"/></svg>