<svg width="30" height="30" viewBox="0 0 30 30" fill="none" xmlns="http://www.w3.org/2000/svg"><path fill-rule="evenodd" clip-rule="evenodd" d="M24.537 5.174a13.645 13.645 0 00-9.682-4.006c-3.784 0-7.205 1.53-9.681 4.006a13.638 13.638 0 00-4.014 9.69c0 3.775 1.53 7.205 4.013 9.681a13.654 13.654 0 009.682 4.014c3.784 0 7.206-1.538 9.682-4.014a13.633 13.633 0 004.013-9.682c0-3.783-1.53-7.213-4.013-9.69zM14.855 0C18.96 0 22.67 1.67 25.36 4.351a14.821 14.821 0 014.352 10.512c0 4.097-1.662 7.815-4.352 10.504a14.834 14.834 0 01-10.504 4.352c-4.105 0-7.814-1.67-10.504-4.352A14.817 14.817 0 010 14.863 14.83 14.83 0 014.35 4.351 14.834 14.834 0 0114.856 0z" fill="#4D4D4F"/><path fill-rule="evenodd" clip-rule="evenodd" d="M15.508 11.288V9.896c0-.668.442-.828.762-.828h1.948V6.094h-2.682c-2.983 0-3.651 2.202-3.651 3.632v1.562h-1.732v3.473h1.75v8.677h3.473V14.76h2.57l.112-1.365.207-2.108h-2.757z" fill="#4D4D4F"/></svg>