<svg width="69" height="83" viewBox="0 0 69 83" fill="none" xmlns="http://www.w3.org/2000/svg"><path d="M67 25.277c0 4.261-.834 7.84-2.501 10.734-1.668 2.895-3.892 4.886-6.671 5.974l1.975 36.194a2.496 2.496 0 01-.702 1.983A2.553 2.553 0 0157.17 81h-8.426c-.76 0-1.404-.28-1.931-.838a2.496 2.496 0 01-.702-1.983l1.975-36.194c-2.78-1.087-5.003-3.079-6.671-5.974-1.668-2.895-2.501-6.473-2.501-10.734 0-3.762.621-7.428 1.865-11 1.243-3.57 2.962-6.51 5.156-8.816C48.13 3.154 50.47 2 52.957 2s4.827 1.154 7.021 3.46c2.195 2.308 3.913 5.247 5.157 8.818A33.219 33.219 0 0167 25.277zM25.794 5.726c-.136-1.334-.825-2.113-2.101-2.113-1.28 0-2.106.829-2.106 2.113v19.526c0 1.356-.87 2.23-2.22 2.23h-.102c-1.349 0-2.22-.874-2.22-2.23V5.727c0-1.283-.825-2.113-2.104-2.113-1.28 0-2.105.829-2.104 2.113l-.001 19.525c0 1.356-.87 2.23-2.22 2.23h-.1c-1.35 0-2.22-.874-2.22-2.23V5.726c0-1.283-.826-2.113-2.105-2.114-1.277 0-1.965.78-2.103 2.114L2.072 29.047C1.524 35.39 4.08 40.544 10.03 41.96c.695.166 1.25.606 1.195 1.537L8.26 74.396C8.005 78.696 10.508 81 14.942 81s6.933-2.302 6.682-6.603l-2.962-30.902c-.055-.931.5-1.371 1.195-1.536 5.948-1.417 8.503-6.57 7.955-12.912L25.794 5.726z" stroke="#D7499A" stroke-width="3"/></svg>