<svg width="90" height="57" viewBox="0 0 90 57" fill="none" xmlns="http://www.w3.org/2000/svg"><path fill-rule="evenodd" clip-rule="evenodd" d="M89.258 39.148c.495-.493.742-1.077.742-1.753v-24.93c0-.675-.247-1.26-.742-1.753-.495-.493-1.08-.74-1.758-.74H73.633c-.365-.415-.905-1.045-1.621-1.89a190.52 190.52 0 00-1.602-1.869c-.351-.402-.86-.948-1.523-1.636-.664-.688-1.224-1.201-1.68-1.539a42.854 42.854 0 00-1.738-1.207c-.703-.468-1.374-.812-2.012-1.032A15.511 15.511 0 0061.25.234 14.219 14.219 0 0058.633 0h-6.524c-2.578 0-4.934.727-7.07 2.181C42.904.727 40.547 0 37.97 0H33.4c-.938 0-1.823.071-2.657.214a9.537 9.537 0 00-2.422.76 35.34 35.34 0 00-1.992.993c-.547.299-1.204.786-1.973 1.46a55.432 55.432 0 00-1.718 1.56c-.378.363-.996.986-1.856 1.869-.86.883-1.471 1.506-1.836 1.87H2.5c-.677 0-1.263.246-1.758.74C.247 9.959 0 10.544 0 11.219v26.176c0 .676.247 1.26.742 1.753.495.494 1.08.74 1.758.74h13.984l11.211 10.986a22.77 22.77 0 004.043 3.155 20.72 20.72 0 004.57 2.084c1.602.506 3.262.688 4.981.545 1.719-.143 3.36-.656 4.922-1.539 1.719.104 3.392-.214 5.02-.954a10.894 10.894 0 004.081-3.175 10.948 10.948 0 004.004-1.772 12.578 12.578 0 003.145-3.175c1.823-.26 3.45-.928 4.883-2.006 1.432-1.078 2.5-2.46 3.203-4.148H87.5c.677 0 1.263-.247 1.758-.74zm-24.219-6.505l-1.504-1.948c-.742-.96-1.282-1.662-1.62-2.103a316.38 316.38 0 00-1.485-1.909 86.519 86.519 0 00-1.66-2.064 82.538 82.538 0 00-1.583-1.831 66.69 66.69 0 00-1.757-1.909l-4.883 5.454c-2.162 2.44-4.876 3.635-8.145 3.583-3.268-.052-5.944-1.324-8.027-3.817-1.484-1.792-2.22-3.843-2.207-6.155.013-2.311.775-4.35 2.285-6.115l6.914-8.025c-.573-.286-1.237-.5-1.992-.643-.755-.142-1.374-.22-1.855-.233a45.697 45.697 0 00-2.208.02c-.99.025-1.627.038-1.914.038-2.395 0-4.453.857-6.171 2.571l-6.172 6.155H15v21.19c.13 0 .404-.006.82-.019a9 9 0 01.86 0c.156.013.41.039.761.078.352.039.619.097.801.175.182.078.41.188.684.331.273.143.514.318.722.526L31.25 47.368c2.995 2.882 5.95 4.323 8.867 4.323 2.031 0 3.659-.61 4.883-1.83 1.484.519 2.95.415 4.395-.312 1.445-.727 2.389-1.83 2.832-3.311 1.927.156 3.58-.416 4.96-1.714.521-.467.99-1.058 1.407-1.772.416-.715.599-1.37.547-1.968.26.26.82.39 1.68.39 1.12 0 2.122-.273 3.007-.818.885-.545 1.53-1.234 1.934-2.065.403-.83.56-1.759.469-2.785-.092-1.026-.489-1.98-1.192-2.863zM7.5 34.903c1.042 0 1.77-.416 2.188-1.247.416-.831.416-1.662 0-2.493-.417-.831-1.146-1.247-2.188-1.247-1.042 0-1.77.416-2.188 1.247-.416.83-.416 1.662 0 2.493.417.831 1.146 1.247 2.188 1.247zm67.5 0h-3.75c-.208-1.922-.99-3.74-2.344-5.454-.286-.39-1.126-1.487-2.52-3.292a254.54 254.54 0 00-3.222-4.11A88.75 88.75 0 0060.82 19.4a99.787 99.787 0 01-2.187-2.454c.26-.805.15-1.539-.332-2.201-.482-.662-1.094-1.013-1.836-1.052-.742-.039-1.439.24-2.09.838l-7.54 8.492c-1.145 1.298-2.59 1.934-4.335 1.908-1.745-.026-3.177-.7-4.297-2.025-.703-.857-1.055-1.831-1.055-2.922 0-1.09.365-2.064 1.094-2.921l8.164-9.466c1.485-1.74 3.386-2.61 5.703-2.61h6.524c2.682 0 4.883.987 6.601 2.96l6.133 7.012H75v19.945zm7.5 0c1.042 0 1.77-.416 2.188-1.247.416-.831.416-1.662 0-2.493-.417-.831-1.146-1.247-2.188-1.247-1.042 0-1.77.416-2.188 1.247-.416.83-.416 1.662 0 2.493.417.831 1.146 1.247 2.188 1.247z" fill="#D7499A"/></svg>