<svg width="85" height="67" viewBox="0 0 85 67" fill="none" xmlns="http://www.w3.org/2000/svg"><path fill-rule="evenodd" clip-rule="evenodd" d="M9.265 41.117l32.943 25.496 32.92-25.474c5.906-4.382 9.294-11.05 9.294-18.297C84.422 10.248 74.162 0 61.547 0a22.88 22.88 0 00-19.339 10.649A22.867 22.867 0 0022.881 0C10.264 0 0 10.246 0 22.843c0 7.24 3.387 13.909 9.265 18.274zM3.579 22.843c0-10.626 8.658-19.27 19.302-19.27A19.294 19.294 0 0140.567 15.17l1.641 3.766 1.641-3.766A19.3 19.3 0 0161.547 3.572c10.64 0 19.296 8.643 19.296 19.269 0 6.104-2.861 11.727-7.879 15.45l-30.757 23.8-30.779-23.82c-4.988-3.706-7.85-9.33-7.85-15.43z" fill="#D7499A"/><path d="M34.487 33.165l-.682 1.943H22.368V31.93h9.179l2.58-7.362 6.71 15.003L47.9 17.867l5.504 14.857h8.92v3.178H51.187l-3.091-8.346-6.788 20.862-6.82-15.253z" fill="#D7499A"/></svg>