<svg width="30" height="30" viewBox="0 0 30 30" fill="none" xmlns="http://www.w3.org/2000/svg"><path fill-rule="evenodd" clip-rule="evenodd" d="M24.537 5.174a13.643 13.643 0 00-9.681-4.006c-3.785 0-7.206 1.53-9.682 4.006a13.639 13.639 0 00-4.014 9.69c0 3.775 1.53 7.205 4.014 9.681a13.653 13.653 0 009.682 4.014 13.65 13.65 0 009.681-4.014 13.632 13.632 0 004.014-9.682c0-3.783-1.53-7.213-4.014-9.69zM14.856 0C18.96 0 22.67 1.67 25.36 4.351a14.82 14.82 0 014.35 10.512 14.81 14.81 0 01-4.35 10.504 14.835 14.835 0 01-10.504 4.352c-4.105 0-7.815-1.67-10.504-4.352A14.812 14.812 0 010 14.863 14.82 14.82 0 014.352 4.351 14.833 14.833 0 0114.856 0z" fill="#4D4D4F"/><path fill-rule="evenodd" clip-rule="evenodd" d="M18.3 11.1a.901.901 0 001.8 0 .9.9 0 00-1.8 0zM15 17.252A2.255 2.255 0 0112.746 15 2.255 2.255 0 0115 12.748 2.254 2.254 0 0117.252 15 2.255 2.255 0 0115 17.252zm0-6.152c-2.15 0-3.9 1.75-3.9 3.9s1.75 3.9 3.9 3.9 3.9-1.75 3.9-3.9-1.75-3.9-3.9-3.9z" fill="#4D4D4F"/><path fill-rule="evenodd" clip-rule="evenodd" d="M21.135 11.36v7.58c0 1.21-.984 2.195-2.195 2.195h-7.58a2.197 2.197 0 01-2.195-2.195v-7.58c0-1.21.985-2.195 2.195-2.195h7.58c1.21 0 2.195.985 2.195 2.195zM11.36 7.5a3.864 3.864 0 00-3.86 3.86v7.58a3.864 3.864 0 003.86 3.86h7.58a3.864 3.864 0 003.86-3.86v-7.58a3.864 3.864 0 00-3.86-3.86h-7.58z" fill="#4D4D4F"/></svg>