<svg width="25" height="25" viewBox="0 0 25 25" fill="none" xmlns="http://www.w3.org/2000/svg"><path fill-rule="evenodd" clip-rule="evenodd" d="M20.448 4.311A11.37 11.37 0 0012.38.973a11.37 11.37 0 00-8.07 3.338 11.365 11.365 0 00-3.345 8.075c0 3.147 1.276 6.005 3.345 8.068a11.377 11.377 0 008.07 3.346c3.153 0 6.004-1.282 8.068-3.345a11.36 11.36 0 003.345-8.068c0-3.153-1.276-6.011-3.345-8.074zM12.38 0c3.42 0 6.511 1.391 8.753 3.626a12.35 12.35 0 013.626 8.76c0 3.414-1.384 6.512-3.626 8.754a12.362 12.362 0 01-8.753 3.626 12.36 12.36 0 01-8.754-3.626A12.344 12.344 0 010 12.386a12.35 12.35 0 013.627-8.76A12.36 12.36 0 0112.38 0z" fill="#fff"/><path fill-rule="evenodd" clip-rule="evenodd" d="M15.25 9.25a.75.75 0 101.502-.002.75.75 0 00-1.502.002zm-2.75 5.127a1.88 1.88 0 01-1.877-1.877 1.88 1.88 0 011.877-1.877 1.88 1.88 0 011.877 1.877 1.879 1.879 0 01-1.877 1.877zm0-5.127a3.254 3.254 0 00-3.25 3.25 3.254 3.254 0 003.25 3.25 3.254 3.254 0 003.25-3.25 3.254 3.254 0 00-3.25-3.25z" fill="#fff"/><path fill-rule="evenodd" clip-rule="evenodd" d="M17.613 9.466v6.318c0 1.008-.82 1.829-1.83 1.829H9.467a1.831 1.831 0 01-1.828-1.83V9.467a1.83 1.83 0 011.828-1.828h6.318a1.83 1.83 0 011.829 1.828zM9.466 6.25A3.22 3.22 0 006.25 9.466v6.318A3.22 3.22 0 009.466 19h6.318A3.22 3.22 0 0019 15.784V9.466a3.22 3.22 0 00-3.216-3.216H9.466z" fill="#fff"/></svg>