<svg width="25" height="25" viewBox="0 0 25 25" fill="none" xmlns="http://www.w3.org/2000/svg"><path fill-rule="evenodd" clip-rule="evenodd" d="M20.448 4.311A11.348 11.348 0 0012.38.966a11.348 11.348 0 00-8.07 3.346A11.349 11.349 0 00.966 12.38a11.35 11.35 0 003.345 8.068 11.347 11.347 0 008.069 3.345 11.35 11.35 0 008.068-3.345 11.348 11.348 0 003.345-8.068c0-3.153-1.276-6.004-3.345-8.068zM12.38 0c3.42 0 6.511 1.385 8.753 3.626a12.334 12.334 0 013.626 8.753c0 3.42-1.384 6.512-3.626 8.754a12.334 12.334 0 01-8.753 3.626 12.337 12.337 0 01-8.754-3.626A12.332 12.332 0 010 12.379c0-3.42 1.385-6.511 3.627-8.753A12.333 12.333 0 0112.38 0z" fill="#fff"/><path fill-rule="evenodd" clip-rule="evenodd" d="M8.334 6.25a1.302 1.302 0 10-.001 2.604 1.302 1.302 0 000-2.604zm9.809 6.012c-.172-1.412-.816-2.29-2.722-2.29-1.117 0-1.871.412-2.186 1.008H13.2V9.972h-2.078v7.451h2.174V13.73c0-.974.191-1.913 1.384-1.913 1.2 0 1.289 1.11 1.289 1.981v3.626h2.234v-4.092c0-.384-.02-.74-.061-1.07zM7.03 11.953v5.47h2.605v-7.45H7.031v1.98z" fill="#fff"/></svg>