<svg width="30" height="30" viewBox="0 0 30 30" fill="none" xmlns="http://www.w3.org/2000/svg"><path fill-rule="evenodd" clip-rule="evenodd" d="M24.537 5.174a13.618 13.618 0 00-9.681-4.014c-3.785 0-7.206 1.53-9.682 4.014a13.619 13.619 0 00-4.014 9.681c0 3.784 1.53 7.206 4.014 9.682a13.617 13.617 0 009.682 4.014c3.784 0 7.205-1.53 9.681-4.014a13.617 13.617 0 004.014-9.682c0-3.784-1.53-7.205-4.014-9.681zM14.856 0A14.8 14.8 0 0125.36 4.351a14.8 14.8 0 014.35 10.504 14.8 14.8 0 01-4.35 10.504 14.8 14.8 0 01-10.504 4.352 14.8 14.8 0 01-10.504-4.352A14.799 14.799 0 010 14.855c0-4.104 1.661-7.814 4.352-10.504A14.8 14.8 0 0114.856 0z" fill="#4D4D4F"/><path fill-rule="evenodd" clip-rule="evenodd" d="M10 7.5a1.562 1.562 0 100 3.125A1.562 1.562 0 0010 7.5zm11.771 7.214c-.206-1.695-.978-2.747-3.265-2.747-1.341 0-2.246.493-2.624 1.209h-.041v-1.21h-2.493v8.942h2.608v-4.434c0-1.168.23-2.294 1.662-2.294 1.439 0 1.545 1.332 1.545 2.376v4.352h2.682v-4.91c0-.462-.025-.89-.074-1.284zm-13.334-.37v6.564h3.126v-8.941H8.437v2.377z" fill="#4D4D4F"/></svg>