<svg width="65" height="65" viewBox="0 0 65 65" fill="none" xmlns="http://www.w3.org/2000/svg"><path d="M63.987.399c.798.58 1.125 1.354.98 2.321L55.68 58.435c-.12.701-.508 1.245-1.16 1.632-.34.193-.714.29-1.125.29-.266 0-.556-.06-.87-.181l-16.432-6.71-8.777 10.7c-.436.556-1.028.834-1.778.834-.314 0-.58-.048-.798-.145a2.276 2.276 0 01-1.106-.853 2.264 2.264 0 01-.417-1.323v-12.66l31.339-38.412L15.782 45.16 1.455 39.283C.56 38.944.077 38.279.004 37.288c-.048-.967.339-1.68 1.16-2.14L61.522.326A2.222 2.222 0 0162.68 0c.484 0 .92.133 1.306.399z" fill="#D7499A"/></svg>