<svg width="70" height="70" viewBox="0 0 70 70" fill="none" xmlns="http://www.w3.org/2000/svg"><path fill-rule="evenodd" clip-rule="evenodd" d="M65.306 52.568C68.436 47.206 70 41.35 70 35c0-6.35-1.565-12.206-4.694-17.568-3.13-5.363-7.375-9.609-12.738-12.738C47.206 1.564 41.35 0 35 0c-6.35 0-12.206 1.565-17.568 4.694-5.363 3.13-9.609 7.375-12.738 12.738C1.564 22.794 0 28.65 0 35c0 6.35 1.565 12.206 4.694 17.568 3.13 5.363 7.375 9.609 12.738 12.738C22.794 68.436 28.65 70 35 70c6.35 0 12.206-1.565 17.568-4.694 5.363-3.13 9.609-7.375 12.738-12.738zM64.166 35c0-3.95-.774-7.725-2.324-11.325-1.549-3.6-3.623-6.7-6.22-9.297-2.598-2.597-5.697-4.671-9.297-6.22A28.351 28.351 0 0035 5.833c-3.95 0-7.725.775-11.325 2.325-3.6 1.549-6.7 3.623-9.297 6.22-2.597 2.598-4.671 5.697-6.22 9.297A28.351 28.351 0 005.833 35c0 3.95.775 7.725 2.325 11.325 1.549 3.6 3.623 6.7 6.22 9.297 2.598 2.597 5.697 4.671 9.297 6.22A28.351 28.351 0 0035 64.167c3.95 0 7.725-.775 11.325-2.325 3.6-1.549 6.7-3.623 9.297-6.22 2.597-2.598 4.671-5.697 6.22-9.297A28.351 28.351 0 0064.167 35zm-35-11.667c0 1.61-.569 2.985-1.708 4.125-1.14 1.139-2.514 1.709-4.125 1.709-1.61 0-2.985-.57-4.124-1.71-1.14-1.139-1.709-2.513-1.709-4.124 0-1.61.57-2.985 1.709-4.124 1.14-1.14 2.514-1.709 4.124-1.709 1.61 0 2.985.57 4.125 1.709 1.139 1.14 1.709 2.514 1.709 4.124zM51.68 41.708a2.805 2.805 0 00-.183-2.21 2.775 2.775 0 00-1.686-1.435c-.76-.244-1.504-.183-2.233.182-.729.364-1.215.942-1.458 1.732-.76 2.43-2.165 4.397-4.216 5.901-2.05 1.504-4.352 2.256-6.904 2.256-2.552 0-4.854-.752-6.904-2.256-2.051-1.504-3.456-3.47-4.216-5.901-.243-.79-.721-1.368-1.435-1.732a2.805 2.805 0 00-2.21-.182c-.79.243-1.368.721-1.732 1.435a2.805 2.805 0 00-.183 2.21c1.124 3.677 3.22 6.639 6.29 8.887 3.068 2.248 6.532 3.372 10.39 3.372 3.858 0 7.322-1.124 10.39-3.372 3.07-2.248 5.166-5.21 6.29-8.887zm-.889-14.25c1.14-1.14 1.709-2.514 1.709-4.125 0-1.61-.57-2.985-1.709-4.124-1.14-1.14-2.514-1.709-4.124-1.709-1.61 0-2.985.57-4.125 1.709-1.139 1.14-1.709 2.514-1.709 4.124 0 1.61.57 2.985 1.71 4.125 1.139 1.139 2.513 1.709 4.124 1.709 1.61 0 2.985-.57 4.124-1.71z" fill="#D7499A"/></svg>