<svg width="75" height="74" viewBox="0 0 75 74" fill="none" xmlns="http://www.w3.org/2000/svg"><path fill-rule="evenodd" clip-rule="evenodd" d="M74.812 13.852c0-.487-.23-.92-.59-1.197L61.709.432A1.514 1.514 0 0060.648 0H14.15a1.52 1.52 0 00-1.06.431L.454 12.773l-.002.002-.002.003a1.507 1.507 0 00-.284.398 1.491 1.491 0 00-.167.676v57.932c0 .834.679 1.51 1.515 1.51h71.767c.836 0 1.515-.676 1.515-1.51V13.997a1.2 1.2 0 01.006-.045.722.722 0 00.01-.1zm-3.045 37.657H3.03V34.126h68.737v17.381zM3.03 15.361v15.745h68.737V15.362H3.03zM14.77 3.02h45.26l9.542 9.321H5.226l9.543-9.32zM3.03 54.53v15.744h68.737V54.53H3.03z" fill="#D7499A"/><path fill-rule="evenodd" clip-rule="evenodd" d="M17.429 42.664c0 2.708-2.21 4.911-4.927 4.911-2.716 0-4.926-2.203-4.926-4.911 0-2.707 2.21-4.909 4.926-4.909 2.717 0 4.927 2.202 4.927 4.909zm-3.03 0a1.896 1.896 0 00-1.897-1.889 1.894 1.894 0 00-1.896 1.889c0 1.043.85 1.89 1.896 1.89a1.896 1.896 0 001.896-1.89z" fill="#D7499A"/><path d="M65.151 48.836c.837 0 1.516-.676 1.516-1.51V38.51c0-.833-.68-1.51-1.516-1.51s-1.515.677-1.515 1.51v8.816c0 .834.68 1.51 1.515 1.51zm-6.818 0c.837 0 1.516-.676 1.516-1.51V38.51c0-.833-.68-1.51-1.516-1.51s-1.515.677-1.515 1.51v8.816c0 .834.678 1.51 1.515 1.51zm-7.575 0c.836 0 1.515-.676 1.515-1.51V38.51c0-.833-.68-1.51-1.515-1.51-.837 0-1.516.677-1.516 1.51v8.816c0 .834.678 1.51 1.516 1.51z" fill="#D7499A"/><path fill-rule="evenodd" clip-rule="evenodd" d="M56.818 23.033c0-2.708 2.21-4.91 4.926-4.91 2.717 0 4.927 2.202 4.927 4.91s-2.21 4.91-4.927 4.91c-2.716 0-4.926-2.202-4.926-4.91zm3.03 0c0 1.042.85 1.89 1.896 1.89a1.896 1.896 0 001.897-1.89c0-1.042-.85-1.89-1.897-1.89a1.895 1.895 0 00-1.895 1.89z" fill="#D7499A"/><path d="M9.09 17.367c-.835 0-1.514.677-1.514 1.51v8.817c0 .834.679 1.51 1.515 1.51.836 0 1.515-.676 1.515-1.51v-8.816c0-.834-.679-1.51-1.515-1.51zm7.577 0c-.837 0-1.516.677-1.516 1.51v8.817c0 .834.68 1.51 1.516 1.51s1.515-.676 1.515-1.51v-8.816c0-.834-.678-1.51-1.515-1.51zm6.818 0c-.837 0-1.515.677-1.515 1.51v8.817c0 .834.678 1.51 1.515 1.51.836 0 1.515-.676 1.515-1.51v-8.816c0-.834-.679-1.51-1.515-1.51z" fill="#D7499A"/><path fill-rule="evenodd" clip-rule="evenodd" d="M56.818 62.297c0-2.707 2.21-4.91 4.926-4.91 2.717 0 4.927 2.203 4.927 4.91 0 2.708-2.21 4.91-4.927 4.91-2.716 0-4.926-2.202-4.926-4.91zm3.03 0c0 1.042.85 1.89 1.896 1.89a1.896 1.896 0 001.897-1.89c0-1.042-.85-1.89-1.897-1.89a1.894 1.894 0 00-1.895 1.89z" fill="#D7499A"/><path d="M9.09 56.633c-.835 0-1.514.676-1.514 1.51v8.816c0 .833.679 1.51 1.515 1.51.836 0 1.515-.677 1.515-1.51v-8.816c0-.835-.679-1.51-1.515-1.51zm7.577 0c-.837 0-1.516.676-1.516 1.51v8.816c0 .833.68 1.51 1.516 1.51s1.515-.677 1.515-1.51v-8.816c0-.835-.678-1.51-1.515-1.51zm6.818 0c-.837 0-1.515.676-1.515 1.51v8.816c0 .833.678 1.51 1.515 1.51.836 0 1.515-.677 1.515-1.51v-8.816c0-.835-.679-1.51-1.515-1.51z" fill="#D7499A"/></svg>