<svg width="25" height="25" viewBox="0 0 25 25" fill="none" xmlns="http://www.w3.org/2000/svg"><path fill-rule="evenodd" clip-rule="evenodd" d="M20.448 4.311A11.37 11.37 0 0012.38.973a11.37 11.37 0 00-8.07 3.338 11.365 11.365 0 00-3.345 8.075c0 3.147 1.276 6.005 3.345 8.068a11.377 11.377 0 008.07 3.346c3.153 0 6.004-1.282 8.068-3.345a11.36 11.36 0 003.345-8.068c0-3.153-1.276-6.011-3.345-8.074zM12.38 0c3.42 0 6.511 1.391 8.753 3.626a12.35 12.35 0 013.626 8.76c0 3.414-1.384 6.512-3.626 8.754a12.362 12.362 0 01-8.753 3.626 12.36 12.36 0 01-8.754-3.626A12.344 12.344 0 010 12.386a12.35 12.35 0 013.627-8.76A12.36 12.36 0 0112.38 0z" fill="#fff"/><path fill-rule="evenodd" clip-rule="evenodd" d="M18.89 9.012a5.53 5.53 0 01-1.488.404 2.557 2.557 0 001.145-1.419 5.28 5.28 0 01-1.652.624 2.585 2.585 0 00-1.899-.809c-1.425 0-2.59 1.145-2.59 2.55 0 .206.034.398.075.583a7.361 7.361 0 01-5.347-2.667c-.22.384-.356.816-.356 1.282a2.55 2.55 0 001.151 2.125 2.512 2.512 0 01-1.172-.315v.034c0 .33.062.631.178.919a2.586 2.586 0 001.906 1.576 2.552 2.552 0 01-.685.096c-.165 0-.33-.02-.488-.054a2.615 2.615 0 002.42 1.782 5.245 5.245 0 01-3.214 1.09c-.213 0-.411-.014-.624-.035a7.483 7.483 0 003.976 1.145c4.05 0 6.553-2.803 7.204-5.717.117-.52.171-1.035.171-1.542v-.329a5.38 5.38 0 001.289-1.323z" fill="#fff"/></svg>