<svg width="30" height="30" viewBox="0 0 30 30" fill="none" xmlns="http://www.w3.org/2000/svg"><path fill-rule="evenodd" clip-rule="evenodd" d="M24.537 5.174a13.643 13.643 0 00-9.681-4.006c-3.785 0-7.206 1.53-9.682 4.006a13.639 13.639 0 00-4.014 9.69c0 3.775 1.53 7.205 4.014 9.681a13.653 13.653 0 009.682 4.014 13.65 13.65 0 009.681-4.014 13.632 13.632 0 004.014-9.682c0-3.783-1.53-7.213-4.014-9.69zM14.856 0C18.96 0 22.67 1.67 25.36 4.351a14.82 14.82 0 014.35 10.512 14.81 14.81 0 01-4.35 10.504 14.835 14.835 0 01-10.504 4.352c-4.105 0-7.815-1.67-10.504-4.352A14.812 14.812 0 010 14.863 14.82 14.82 0 014.352 4.351 14.833 14.833 0 0114.856 0z" fill="#4D4D4F"/><path fill-rule="evenodd" clip-rule="evenodd" d="M22.668 10.814a6.637 6.637 0 01-1.785.486 3.068 3.068 0 001.374-1.703c-.6.354-1.275.609-1.983.748a3.1 3.1 0 00-2.278-.97c-1.711 0-3.11 1.374-3.11 3.06 0 .247.042.477.09.7a8.833 8.833 0 01-6.415-3.2c-.263.46-.428.978-.428 1.538 0 1.069.56 2.007 1.382 2.55a3.015 3.015 0 01-1.406-.379v.041c0 .395.074.757.213 1.102a3.103 3.103 0 002.288 1.892 3.06 3.06 0 01-.823.115c-.198 0-.395-.024-.585-.065a3.138 3.138 0 002.905 2.138 6.293 6.293 0 01-3.858 1.308c-.256 0-.494-.017-.749-.041a8.98 8.98 0 004.77 1.374c4.862 0 7.864-3.365 8.645-6.86.14-.625.206-1.242.206-1.851v-.395a6.434 6.434 0 001.547-1.588z" fill="#4D4D4F"/></svg>