<svg width="30" height="30" viewBox="0 0 30 30" fill="none" xmlns="http://www.w3.org/2000/svg"><path fill-rule="evenodd" clip-rule="evenodd" d="M24.537 5.174a13.645 13.645 0 00-9.682-4.006c-3.784 0-7.205 1.53-9.681 4.006a13.638 13.638 0 00-4.014 9.69c0 3.775 1.53 7.205 4.013 9.681a13.654 13.654 0 009.682 4.014c3.784 0 7.206-1.538 9.682-4.014a13.633 13.633 0 004.013-9.682c0-3.783-1.53-7.213-4.013-9.69zM14.855 0C18.96 0 22.67 1.67 25.36 4.351a14.821 14.821 0 014.352 10.512c0 4.097-1.662 7.815-4.352 10.504a14.834 14.834 0 01-10.504 4.352c-4.105 0-7.814-1.67-10.504-4.352A14.817 14.817 0 010 14.863 14.83 14.83 0 014.35 4.351 14.834 14.834 0 0114.856 0z" fill="#4D4D4F"/><path fill-rule="evenodd" clip-rule="evenodd" d="M17.326 14.696l-4.104 2.213v-4.442l1.859 1.012 2.245 1.217zm4.902-2.994s-.155-1.094-.608-1.571c-.576-.625-1.226-.633-1.514-.675-2.122-.156-5.305-.156-5.305-.156h-.017s-3.174 0-5.297.156c-.304.042-.946.05-1.522.675-.452.477-.608 1.571-.608 1.571s-.157 1.283-.157 2.55v1.21c0 1.282.157 2.55.157 2.55s.156 1.093.608 1.578c.576.634 1.333.61 1.679.675 1.209.123 5.157.164 5.157.164s3.183-.016 5.306-.164c.287-.041.937-.041 1.513-.675.453-.485.608-1.579.608-1.579s.148-1.267.148-2.55v-1.21a25.55 25.55 0 00-.148-2.549z" fill="#4D4D4F"/></svg>