<svg width="100" height="100" viewBox="0 0 100 100" fill="none" xmlns="http://www.w3.org/2000/svg">
<path fill-rule="evenodd" clip-rule="evenodd" d="M97.7464 97.7464C99.2488 96.244 100 94.4311 100 92.3077C100 90.1843 99.2588 88.3814 97.7764 86.899L77.1635 66.2861C82.1314 59.1146 84.6154 51.1218 84.6154 42.3077C84.6154 36.5785 83.5036 31.0998 81.28 25.8714C79.0565 20.643 76.0517 16.1358 72.2656 12.3498C68.4796 8.5637 63.9724 5.55889 58.744 3.33534C53.5156 1.11178 48.0369 0 42.3077 0C36.5785 0 31.0998 1.11178 25.8714 3.33534C20.643 5.55889 16.1358 8.5637 12.3498 12.3498C8.5637 16.1358 5.55889 20.643 3.33534 25.8714C1.11178 31.0998 0 36.5785 0 42.3077C0 48.0369 1.11178 53.5156 3.33534 58.744C5.55889 63.9724 8.5637 68.4796 12.3498 72.2656C16.1358 76.0517 20.643 79.0565 25.8714 81.28C31.0998 83.5036 36.5785 84.6154 42.3077 84.6154C51.1218 84.6154 59.1146 82.1314 66.2861 77.1635L86.899 97.7163C88.3413 99.2388 90.1442 100 92.3077 100C94.4311 100 96.244 99.2488 97.7464 97.7464ZM69.0391 42.1708C69.0391 34.774 66.4103 28.4468 61.1526 23.1891C55.8949 17.9313 49.5676 15.3025 42.1708 15.3025C34.774 15.3025 28.4468 17.9313 23.1891 23.1891C17.9313 28.4468 15.3025 34.774 15.3025 42.1708C15.3025 49.5676 17.9313 55.8949 23.1891 61.1526C28.4468 66.4103 34.774 69.0391 42.1708 69.0391C49.5676 69.0391 55.8949 66.4103 61.1526 61.1526C66.4103 55.8949 69.0391 49.5676 69.0391 42.1708ZM61.5658 40.427V44.2705C61.5658 44.7909 61.3757 45.2413 60.9953 45.6217C60.615 46.002 60.1646 46.1922 59.6441 46.1922H46.1922V59.6441C46.1922 60.1646 46.002 60.615 45.6217 60.9953C45.2413 61.3757 44.7909 61.5658 44.2705 61.5658H40.427C39.9066 61.5658 39.4562 61.3757 39.0758 60.9953C38.6955 60.615 38.5053 60.1646 38.5053 59.6441V46.1922H25.0534C24.5329 46.1922 24.0825 46.002 23.7022 45.6217C23.3218 45.2413 23.1317 44.7909 23.1317 44.2705V40.427C23.1317 39.9066 23.3218 39.4562 23.7022 39.0758C24.0825 38.6955 24.5329 38.5053 25.0534 38.5053H38.5053V25.0534C38.5053 24.5329 38.6955 24.0825 39.0758 23.7022C39.4562 23.3218 39.9066 23.1317 40.427 23.1317H44.2705C44.7909 23.1317 45.2413 23.3218 45.6217 23.7022C46.002 24.0825 46.1922 24.5329 46.1922 25.0534V38.5053H59.6441C60.1646 38.5053 60.615 38.6955 60.9953 39.0758C61.3757 39.4562 61.5658 39.9066 61.5658 40.427Z" fill="white"/>
</svg>
