<svg width="56" height="34" viewBox="0 0 56 34" fill="none" xmlns="http://www.w3.org/2000/svg">
<path fill-rule="evenodd" clip-rule="evenodd" d="M26.183 2.13738C27.7097 3.01524 29.0837 4.08394 30.3051 5.30532C30.7631 5.8015 31.2211 6.29768 31.5646 6.79387C31.0303 8.16791 30.6868 9.8473 30.6486 11.603C26.8318 8.16791 21.7555 6.14501 20.4959 5.687C19.8853 4.99997 19.1601 4.38929 18.1295 3.62593C18.015 3.51142 17.9005 3.43509 17.786 3.35875C16.5646 2.51906 15.2288 1.79387 13.8547 1.18318C13.7402 1.14501 13.6257 1.10684 13.473 1.03051C14.5036 0.61066 15.6486 0.343484 16.7937 0.190812C16.9463 0.171728 17.1085 0.162186 17.2708 0.152644C17.433 0.143102 17.5952 0.13356 17.7479 0.114476C19.5799 -2.73581e-05 21.3738 0.190812 23.015 0.725163C23.0914 0.744248 23.1582 0.763332 23.225 0.782416C23.2917 0.8015 23.3585 0.820584 23.4349 0.839667C23.5303 0.877835 23.6353 0.916002 23.7402 0.95417C23.8452 0.992338 23.9501 1.03051 24.0456 1.06867C24.1028 1.08776 24.1505 1.10684 24.1982 1.12593C24.2459 1.14501 24.2937 1.1641 24.3509 1.18318C24.6881 1.30579 25.0253 1.47764 25.3427 1.6394C25.4205 1.67907 25.4971 1.71812 25.5723 1.7557C25.6295 1.79387 25.6963 1.83203 25.7631 1.8702C25.8299 1.90837 25.8967 1.94654 25.954 1.98471C25.973 2.00379 25.9921 2.01333 26.0112 2.02287C26.0303 2.03242 26.0494 2.04196 26.0685 2.06104C26.0875 2.08013 26.1066 2.08967 26.1257 2.09921C26.1448 2.10875 26.1639 2.11829 26.183 2.13738ZM44.1601 5.26715C46.2593 4.54196 48.5112 4.12211 50.8776 4.12211C52.557 4.12211 54.2364 4.31295 55.8013 4.65646C55.3433 4.61829 54.8471 4.61829 54.3509 4.61829C51.641 4.61829 49.0837 5.15264 46.7173 6.10684C46.1066 6.33585 45.5341 6.60303 44.9998 6.8702C44.8471 6.94654 44.7326 7.02287 44.6181 7.09921L44.618 7.09928C44.3127 7.32826 44.0074 7.55725 43.7402 7.78623C43.1677 8.28242 42.6715 8.85493 42.2517 9.50379C42.1826 9.59589 42.1274 9.70189 42.0693 9.8134C42.0312 9.88673 41.9918 9.96243 41.9463 10.0381C41.412 11.0687 41.0303 12.2519 40.954 13.4733C40.9158 13.7023 40.9158 13.8931 40.9158 14.0839V14.1603C40.9158 14.5801 40.9921 15.4198 41.0685 16.2595C41.1066 16.7557 41.1448 17.2519 41.1448 17.6336C41.1448 20.458 40.2669 23.0534 38.7402 25.1908C38.7402 25.229 38.7021 25.2671 38.6639 25.3053C38.1677 26.0305 37.5952 26.6794 36.9463 27.2519C36.87 27.3091 36.7937 27.3759 36.7173 27.4427C36.641 27.5095 36.5646 27.5763 36.4883 27.6336C36.3102 27.7862 36.0982 27.9389 35.8861 28.0916C35.7801 28.1679 35.6741 28.2442 35.5723 28.3206C35.4387 28.3969 35.3051 28.4828 35.1715 28.5687C35.0379 28.6546 34.9043 28.7404 34.7708 28.8168C34.7135 28.8549 34.6562 28.8836 34.599 28.9122C34.5417 28.9408 34.4845 28.9694 34.4272 29.0076H34.3891L33.9311 29.2366C33.9311 29.2748 33.8929 29.2748 33.8929 29.2748C33.8929 29.2748 33.8547 29.313 33.8166 29.313C33.0532 29.6946 32.2517 30.0381 31.4501 30.3053C31.412 30.3244 31.3738 30.3339 31.3356 30.3435C31.2975 30.353 31.2593 30.3626 31.2211 30.3817C31.2021 30.3817 31.183 30.3912 31.1639 30.4007C31.1448 30.4103 31.1257 30.4198 31.1066 30.4198C29.5417 30.916 27.9005 31.2977 26.183 31.374H24.9234H24.8853H24.1601H24.1219C23.9311 31.374 23.7402 31.3645 23.5494 31.3549C23.3585 31.3454 23.1677 31.3358 22.9769 31.3358C22.4972 31.3358 22.0628 31.3208 21.7399 31.3096C21.5488 31.303 21.3968 31.2977 21.2975 31.2977C17.557 31.2977 13.9692 32.1374 10.8013 33.6259L10.5723 33.7404C10.4959 33.7786 10.4196 33.7786 10.3433 33.7786C10.2168 33.7786 10.1427 33.7524 10.0559 33.7217C10.0379 33.7154 10.0194 33.7088 9.99976 33.7023C9.80892 33.5878 9.65625 33.3969 9.65625 33.1297C9.65625 33.0152 9.69442 32.9007 9.73259 32.7862C9.77075 32.7099 9.84709 32.5954 9.96159 32.5572C9.99976 32.5381 10.0284 32.5286 10.057 32.5191C10.0856 32.5095 10.1143 32.5 10.1524 32.4809C10.8395 32.2137 11.5646 31.9465 12.2898 31.7557C12.7097 31.6412 16.1448 30.5725 17.2517 30.0763C21.7427 28.0349 23.0575 26.6071 23.969 25.6174C23.9948 25.5894 24.0203 25.5617 24.0456 25.5343C25.4196 25.8778 26.7173 26.0687 27.8624 26.0687C30.4578 26.0687 32.4043 25.1526 33.7784 23.3206C35.6486 20.8397 34.9998 18.1297 34.4654 16.7175C33.8929 15.229 32.9387 13.8549 31.8318 12.6717C31.7555 11.0305 31.9845 9.27478 32.4425 7.86257V7.8244C32.4694 7.63621 32.5341 7.46696 32.5968 7.3033C32.623 7.23461 32.6489 7.16691 32.6715 7.09921C32.6906 7.04196 32.7192 6.99425 32.7479 6.94654C32.7765 6.89883 32.8051 6.85112 32.8242 6.79387C32.8242 6.77478 32.8337 6.76524 32.8433 6.7557C32.8528 6.74616 32.8624 6.73661 32.8624 6.71753C32.8624 6.67936 32.8624 6.64119 32.9005 6.60303C32.9769 6.41219 33.0914 6.22135 33.2059 6.06868C33.244 6.01142 33.2917 5.95417 33.3395 5.89692C33.3872 5.83967 33.4349 5.78242 33.473 5.72516C33.9311 5.11448 34.5417 4.61829 35.1906 4.23661C36.0685 3.74043 37.0608 3.47326 38.1295 3.47326C38.8547 3.47326 39.5417 3.62593 40.1906 3.85493C40.8776 4.12211 41.4883 4.50379 42.0227 4.9618C42.328 5.26715 42.557 5.38165 42.786 5.45799C42.9005 5.49616 43.0532 5.49616 43.2059 5.49616C43.5336 5.49616 43.9176 5.35544 44.0921 5.2915C44.1208 5.28098 44.1439 5.27254 44.1601 5.26715Z" fill="white"/>
<path d="M33.7788 20.7253C33.7788 20.7253 33.7788 20.7635 33.7788 20.7253C33.6262 21.3742 33.359 22.0612 32.8628 22.7101C32.5956 23.0536 32.1758 23.6261 31.3743 24.1223C30.1147 24.8856 27.9773 25.42 24.2369 24.504C22.5575 19.6948 19.8475 16.3742 16.2216 13.9314C15.4201 13.3971 14.5422 12.9009 13.6643 12.4811C11.2598 11.336 8.54984 10.6108 5.72541 10.4963C5.45823 10.4963 5.15289 10.4963 4.88571 10.4963C3.28266 10.4963 0.534569 10.9543 0.496401 10.9925C0.305561 11.0688 0.114722 10.9925 0.267393 10.8017C2.29029 9.23679 4.61854 8.16808 7.09945 7.32839C9.04602 6.67953 11.1071 6.25969 13.2445 6.10702C13.3972 6.10702 13.5498 6.06885 13.7025 6.06885C13.7788 6.06885 13.8552 6.06885 13.9315 6.06885C14.0079 6.06885 14.1224 6.06885 14.1987 6.06885C14.275 6.06885 14.3514 6.06885 14.3895 6.06885H14.504C14.6567 6.06885 14.8475 6.06885 15.0002 6.06885C16.7178 6.06885 18.4353 6.29786 20.0766 6.67953C20.8017 6.94671 23.3972 7.93908 26.2598 9.65663C29.962 11.9467 32.4048 14.4658 33.4353 17.1376C33.7407 17.9772 34.0842 19.3131 33.7788 20.7253Z" fill="white"/>
</svg>
