<svg width="56" height="34" viewBox="0 0 56 34" fill="none" xmlns="http://www.w3.org/2000/svg"><path fill-rule="evenodd" clip-rule="evenodd" d="M26.183 2.137c1.527.878 2.9 1.947 4.122 3.168.458.497.916.993 1.26 1.489-.535 1.374-.878 3.053-.916 4.809-3.817-3.435-8.893-5.458-10.153-5.916-.61-.687-1.336-1.298-2.366-2.061-.115-.115-.23-.19-.344-.267a24.584 24.584 0 00-3.931-2.176 2.634 2.634 0 01-.382-.152c1.03-.42 2.176-.688 3.32-.84.153-.02.316-.029.478-.038.162-.01.324-.02.477-.039C19.58 0 21.374.191 23.015.725l.21.057c.067.02.133.039.21.058.095.038.2.076.305.114.105.038.21.077.306.115.057.019.105.038.152.057a9.07 9.07 0 011.145.513c.078.04.154.08.23.117.056.038.123.076.19.114.067.038.134.077.191.115.019.019.038.028.057.038.02.01.038.019.058.038.018.02.038.029.057.038.019.01.038.02.057.038zm17.977 3.13a20.51 20.51 0 016.718-1.145c1.679 0 3.358.19 4.923.534-.458-.038-.954-.038-1.45-.038a20.3 20.3 0 00-7.634 1.489c-.61.229-1.183.496-1.717.763a3.354 3.354 0 00-.382.23c-.305.228-.61.457-.878.686a8.035 8.035 0 00-1.488 1.718 2.11 2.11 0 00-.183.31 4.075 4.075 0 01-.123.224c-.534 1.03-.916 2.214-.992 3.435-.038.23-.038.42-.038.61v.077c0 .42.076 1.26.153 2.1.038.496.076.992.076 1.374 0 2.824-.878 5.42-2.405 7.557 0 .038-.038.076-.076.114a10.463 10.463 0 01-1.718 1.947c-.076.057-.152.124-.229.19a4.06 4.06 0 01-.229.192c-.178.152-.39.305-.602.458-.106.076-.212.152-.314.229a8.688 8.688 0 00-.4.248 9.227 9.227 0 01-.573.343 1.535 1.535 0 00-.172.096h-.038l-.458.229c0 .038-.038.038-.038.038s-.038.038-.076.038c-.764.382-1.565.725-2.367.992a.463.463 0 01-.114.038.537.537 0 00-.115.039c-.019 0-.038.01-.057.019a.135.135 0 01-.057.019c-1.565.496-3.206.878-4.924.954h-2.061c-.19 0-.382-.01-.573-.02-.19-.009-.381-.018-.572-.018-.48 0-.914-.015-1.237-.026a14.127 14.127 0 00-.442-.012c-3.741 0-7.329.84-10.497 2.328l-.229.114c-.076.039-.152.039-.229.039a.758.758 0 01-.287-.057l-.056-.02c-.191-.114-.344-.305-.344-.572 0-.115.038-.23.077-.344.038-.076.114-.19.229-.229.038-.019.066-.028.095-.038.029-.01.057-.019.095-.038.688-.267 1.413-.535 2.138-.725.42-.115 3.855-1.183 4.962-1.68 4.49-2.041 5.806-3.469 6.717-4.459l.077-.083c1.374.344 2.671.535 3.816.535 2.596 0 4.542-.916 5.916-2.748 1.87-2.481 1.222-5.191.687-6.604-.572-1.488-1.526-2.862-2.633-4.045-.076-1.642.152-3.397.61-4.81v-.038c.027-.188.092-.357.155-.52.026-.07.052-.137.075-.205a.758.758 0 01.076-.152.753.753 0 00.076-.153c0-.02.01-.029.02-.038.009-.01.018-.02.018-.038 0-.039 0-.077.038-.115.077-.19.191-.382.306-.534a2.06 2.06 0 01.133-.172 2.01 2.01 0 00.134-.172c.458-.61 1.069-1.107 1.718-1.488a5.916 5.916 0 012.938-.764c.726 0 1.413.153 2.062.382a6.35 6.35 0 011.832 1.107c.305.305.534.42.763.496.114.038.267.038.42.038.328 0 .712-.14.886-.205a2.77 2.77 0 01.068-.024z" fill="#fff"/><path d="M33.779 20.725s0 .038 0 0a5.152 5.152 0 01-.916 1.985c-.267.344-.687.916-1.489 1.412-1.26.764-3.397 1.298-7.137.382-1.68-4.81-4.39-8.13-8.015-10.573a21.011 21.011 0 00-2.558-1.45 20.464 20.464 0 00-7.939-1.985h-.84c-1.602 0-4.35.458-4.389.496-.19.077-.381 0-.229-.19C2.29 9.237 4.62 8.168 7.1 7.328a25.072 25.072 0 016.146-1.221c.152 0 .305-.038.458-.038H15c1.718 0 3.435.229 5.077.61.725.268 3.32 1.26 6.183 2.978 3.702 2.29 6.145 4.809 7.175 7.48.306.84.65 2.176.344 3.588z" fill="#fff"/></svg>